<svg xmlns="http://www.w3.org/2000/svg" viewBox="0 0 226.34 334.26"><path d="M117.47 328.79a.46.46 0 0 1-.23-.06l-2.65-1.42a.49.49 0 0 1-.2-.67.49.49 0 0 1 .67-.21l2.65 1.42a.49.49 0 0 1 .2.67.5.5 0 0 1-.44.27zm.07-2.16a.49.49 0 0 1-.49-.41l-.51-3a.5.5 0 0 1 .41-.58.52.52 0 0 1 .58.41l.51 3a.51.51 0 0 1-.41.58zm-5.36-.67a.46.46 0 0 1-.23-.06l-2.65-1.42a.49.49 0 0 1-.2-.67.49.49 0 0 1 .67-.21l2.65 1.42a.5.5 0 0 1-.24.94zm-5.29-2.83a.46.46 0 0 1-.23-.06l-2.66-1.42a.5.5 0 0 1 .47-.88l2.65 1.42a.5.5 0 0 1-.24.94zm9.63-2.41a.49.49 0 0 1-.49-.41l-.51-3a.5.5 0 1 1 1-.17l.51 3a.48.48 0 0 1-.4.57zm-14.92-.42a.46.46 0 0 1-.23-.06l-2.65-1.41a.5.5 0 0 1-.21-.68.51.51 0 0 1 .68-.21l2.65 1.42a.5.5 0 0 1-.24.94zm-5.29-2.83a.53.53 0 0 1-.24-.06L93.43 316a.5.5 0 0 1-.21-.68.51.51 0 0 1 .68-.21l2.64 1.42a.49.49 0 0 1 .21.67.5.5 0 0 1-.44.27zm19.19-2.66a.49.49 0 0 1-.49-.42l-.51-2.95a.5.5 0 0 1 .4-.58.51.51 0 0 1 .58.41l.51 3a.49.49 0 0 1-.41.58zm-24.5-.17a.53.53 0 0 1-.24-.06l-2.64-1.41a.5.5 0 0 1-.21-.68.51.51 0 0 1 .68-.21l2.64 1.42a.5.5 0 0 1 .21.68.51.51 0 0 1-.44.26zm-5.29-2.83a.53.53 0 0 1-.24-.06l-2.64-1.41a.5.5 0 0 1-.21-.68.5.5 0 0 1 .68-.2l2.7 1.41a.5.5 0 0 1-.23.94zM80.44 309a.53.53 0 0 1-.24-.06l-2.65-1.41a.5.5 0 1 1 .48-.88l2.64 1.35a.5.5 0 0 1-.23.94zm34-.08a.51.51 0 0 1-.5-.42l-.51-3a.51.51 0 0 1 .41-.58.5.5 0 0 1 .58.41l.51 2.95a.51.51 0 0 1-.41.58zm-39.34-2.75a.46.46 0 0 1-.23-.06l-2.65-1.41a.5.5 0 0 1-.2-.68.49.49 0 0 1 .67-.2l2.65 1.41a.51.51 0 0 1 .21.68.5.5 0 0 1-.41.24zm-5.29-2.83a.46.46 0 0 1-.23-.05L67 301.85a.5.5 0 0 1-.2-.68.49.49 0 0 1 .67-.2l2.65 1.41a.51.51 0 0 1 .2.68.49.49 0 0 1-.47.26zm43.6-.33a.51.51 0 0 1-.49-.42l-.51-3a.49.49 0 0 1 .41-.57.5.5 0 0 1 .58.4l.51 3a.51.51 0 0 1-.41.58zm-48.89-2.5a.46.46 0 0 1-.23-.05L61.68 299a.49.49 0 0 1-.2-.67.49.49 0 0 1 .67-.21l2.65 1.41a.51.51 0 0 1 .2.68.49.49 0 0 1-.44.28zm-5.29-2.82a.46.46 0 0 1-.23-.06l-2.65-1.42a.5.5 0 1 1 .47-.88l2.65 1.41a.51.51 0 0 1 .2.68.5.5 0 0 1-.4.25zm53.16-.6a.49.49 0 0 1-.49-.41l-.51-3a.5.5 0 0 1 .41-.58.51.51 0 0 1 .58.41l.51 3a.51.51 0 0 1-.41.58zM54 294.84a.53.53 0 0 1-.24-.06l-2.64-1.42a.5.5 0 1 1 .47-.88l2.65 1.42a.5.5 0 0 1-.24.94zM48.69 292a.53.53 0 0 1-.24-.06l-2.64-1.42a.49.49 0 0 1-.21-.67.5.5 0 0 1 .68-.21l2.64 1.42a.49.49 0 0 1 .21.67.5.5 0 0 1-.44.27zm62.72-.85a.49.49 0 0 1-.49-.42l-.51-2.95a.5.5 0 0 1 .4-.58.51.51 0 0 1 .58.41l.51 2.95a.49.49 0 0 1-.4.58zm-68-2a.53.53 0 0 1-.24-.06l-2.64-1.41a.5.5 0 0 1-.21-.68.5.5 0 0 1 .68-.21l2.64 1.42a.49.49 0 0 1 .21.67.5.5 0 0 1-.45.3zm-5.29-2.83a.53.53 0 0 1-.24-.06l-2.64-1.42a.49.49 0 0 1-.21-.67.5.5 0 0 1 .68-.21l2.64 1.42a.5.5 0 0 1 .21.68.52.52 0 0 1-.45.29zm72.28-1.1a.49.49 0 0 1-.49-.42l-.48-2.75.85-.42a.5.5 0 0 1 .45.89l-.19.1.35 2a.5.5 0 0 1-.41.58zm-77.57-1.73a.5.5 0 0 1-.24-.06l-2.65-1.41a.51.51 0 0 1 .48-.89l2.64 1.42a.5.5 0 0 1 .21.68.52.52 0 0 1-.45.29zm80.36-2.26a.49.49 0 0 1-.45-.28.5.5 0 0 1 .22-.67l2.68-1.35a.5.5 0 0 1 .45.9l-2.68 1.34a.46.46 0 0 1-.23.09zm-85.66-.57a.46.46 0 0 1-.23-.06l-2.65-1.41a.51.51 0 0 1-.2-.68.49.49 0 0 1 .67-.2l2.65 1.41a.5.5 0 0 1-.24.94zm91-2.13a.51.51 0 0 1-.45-.27.5.5 0 0 1 .22-.67l2.68-1.35a.5.5 0 1 1 .45.89l-2.68 1.35a.44.44 0 0 1-.21.08zm-96.31-.7a.46.46 0 0 1-.23-.06l-2.65-1.41a.51.51 0 0 1-.2-.68.49.49 0 0 1 .67-.2l2.65 1.41a.5.5 0 0 1 .2.68.49.49 0 0 1-.43.29zm101.67-2a.5.5 0 0 1-.45-.28.51.51 0 0 1 .22-.67l2.68-1.35a.51.51 0 0 1 .68.23.51.51 0 0 1-.23.67l-2.68 1.34a.46.46 0 0 1-.21.1zm-107-.84a.46.46 0 0 1-.23-.06l-2.65-1.41a.5.5 0 0 1-.2-.68.49.49 0 0 1 .67-.2l2.65 1.41a.51.51 0 0 1 .2.68.49.49 0 0 1-.39.27zm112.32-1.86a.51.51 0 0 1-.45-.27.5.5 0 0 1 .23-.67l2.68-1.35a.49.49 0 0 1 .67.22.5.5 0 0 1-.22.67l-2.69 1.35a.42.42 0 0 1-.17.09zM13.63 270.9a.5.5 0 0 1-.5-.46l-.26-3a.5.5 0 1 1 1-.09l.27 3a.51.51 0 0 1-.46.55zm121-.42a.5.5 0 0 1-.22-1l2.68-1.34a.49.49 0 0 1 .67.22.51.51 0 0 1-.22.67l-2.68 1.35a.64.64 0 0 1-.24.1zm5.36-2.7a.5.5 0 0 1-.22-.94l2.68-1.35a.49.49 0 0 1 .67.22.5.5 0 0 1-.22.67l-2.68 1.35a.48.48 0 0 1-.22.05zm80.69-1h-.12l-1.35-.32a.5.5 0 0 1-.37-.6.49.49 0 0 1 .6-.37l1.35.32a.5.5 0 0 1-.11 1zm-4.27-1h-.12l-2.92-.69a.5.5 0 0 1-.37-.6.48.48 0 0 1 .6-.37l2.92.69a.49.49 0 0 1 .37.6.5.5 0 0 1-.49.37zm-71.06-.69a.49.49 0 0 1-.44-.27.5.5 0 0 1 .22-.68l2.68-1.34a.49.49 0 0 1 .67.22.5.5 0 0 1-.22.67l-2.69 1.31a.59.59 0 0 1-.23.09zm-132.25-.17a.51.51 0 0 1-.5-.46l-.26-3a.5.5 0 0 1 .45-.55.5.5 0 0 1 .54.46l.27 3a.51.51 0 0 1-.46.54zm197.46-.52h-.12l-2.92-.68a.51.51 0 0 1-.37-.61.5.5 0 0 1 .6-.37l2.92.69a.49.49 0 0 1 .37.6.5.5 0 0 1-.48.37zm-5.84-1.4h-.12l-2.92-.69a.5.5 0 0 1-.37-.6.49.49 0 0 1 .6-.37l2.92.68a.5.5 0 0 1-.11 1zm-54-.62a.48.48 0 0 1-.44-.28.49.49 0 0 1 .22-.67l2.68-1.35a.51.51 0 0 1 .67.22.49.49 0 0 1-.22.67l-2.68 1.35a.46.46 0 0 1-.25.08zm48.18-.76h-.12l-2.92-.69a.5.5 0 0 1-.37-.6.49.49 0 0 1 .6-.37l2.92.69a.5.5 0 0 1-.11 1zm-5.9-1.35h-.12l-2.92-.69a.5.5 0 0 1-.37-.6.49.49 0 0 1 .6-.37l2.92.69a.49.49 0 0 1 .37.6.5.5 0 0 1-.48.37zm-37-.57a.5.5 0 0 1-.44-.27.49.49 0 0 1 .22-.67l2.68-1.35a.5.5 0 1 1 .45.89l-2.68 1.35a.46.46 0 0 1-.17.05zm-143.49-.76a.51.51 0 0 1-.5-.45l-.26-3a.5.5 0 0 1 .45-.54.51.51 0 0 1 .55.45l.26 3a.5.5 0 0 1-.45.54zm174.63-.05h-.12l-2.92-.69a.5.5 0 0 1-.37-.6.49.49 0 0 1 .6-.37l2.92.69a.49.49 0 0 1 .37.6.5.5 0 0 1-.42.37zm-5.84-1.38h-.12l-2.92-.69a.5.5 0 0 1 .23-1l2.92.69a.5.5 0 0 1 .37.6.49.49 0 0 1-.42.4zm-19.93-.5a.49.49 0 0 1-.45-.28.5.5 0 0 1 .22-.67l2.68-1.35a.5.5 0 0 1 .67.23.49.49 0 0 1-.22.67l-2.62 1.39a.46.46 0 0 1-.22 0zm14.09-.88h-.12l-2.92-.69a.5.5 0 0 1-.37-.6.49.49 0 0 1 .6-.37l2.92.69a.49.49 0 0 1 .37.6.48.48 0 0 1-.42.37zm-5.84-1.38h-.12l-2.39-.56-.16.08a.5.5 0 0 1-.45-.89l.49-.25 2.74.65a.5.5 0 0 1-.11 1zM12 253a.5.5 0 0 1-.49-.46l-.27-3a.5.5 0 1 1 1-.08l.26 3a.5.5 0 0 1-.45.55zm-.52-6a.5.5 0 0 1-.5-.46l-.27-3a.51.51 0 0 1 .46-.55.5.5 0 0 1 .54.46l.26 3a.49.49 0 0 1-.45.54zm-.48-6a.49.49 0 0 1-.5-.45l-.26-3a.49.49 0 0 1 .45-.54.51.51 0 0 1 .54.45l.27 3a.5.5 0 0 1-.5.54zm-.53-6a.51.51 0 0 1-.5-.46l-.26-3a.5.5 0 0 1 1-.09l.27 3a.5.5 0 0 1-.46.54zm-.53-6a.5.5 0 0 1-.49-.46l-.27-3a.5.5 0 1 1 1-.09l.26 3a.5.5 0 0 1-.45.54zm-.53-6a.49.49 0 0 1-.49-.45l-.27-3a.5.5 0 0 1 .46-.54.5.5 0 0 1 .54.45l.26 3a.49.49 0 0 1-.45.54zm-.52-6a.5.5 0 0 1-.5-.46l-.26-3a.5.5 0 0 1 1-.09l.27 3a.51.51 0 0 1-.46.55zm-.53-6a.5.5 0 0 1-.5-.46l-.26-3a.5.5 0 1 1 1-.09l.27 3a.51.51 0 0 1-.46.54zm-.53-6a.51.51 0 0 1-.5-.45l-.26-3a.5.5 0 0 1 .45-.54.51.51 0 0 1 .55.45l.26 3a.5.5 0 0 1-.45.54zm-.53-6a.5.5 0 0 1-.49-.46l-.27-3a.66.66 0 0 1 0-.14.49.49 0 0 1 0-.11l.28-.55a.52.52 0 0 1 .68-.22.5.5 0 0 1 .26.51H10a.5.5 0 0 1 .5.5.5.5 0 0 1-.5.5H7.58l.21 2.44a.49.49 0 0 1-.45.54zm5.74-3a.5.5 0 0 1-.5-.5.5.5 0 0 1 .5-.5h3a.49.49 0 0 1 .5.49.51.51 0 0 1-.5.51zm6 0a.5.5 0 0 1 0-1h3a.5.5 0 0 1 0 1zm6 0a.5.5 0 0 1-.5-.5.5.5 0 0 1 .5-.5h3a.5.5 0 0 1 .5.5.5.5 0 0 1-.5.5zm6 0a.5.5 0 0 1 0-1h3a.5.5 0 0 1 0 1zm6 0a.5.5 0 0 1-.5-.5.5.5 0 0 1 .5-.5h3a.5.5 0 0 1 .5.5.5.5 0 0 1-.5.5zm6 0a.5.5 0 0 1 0-1h3a.5.5 0 0 1 0 1zm6 0a.5.5 0 0 1-.5-.5.5.5 0 0 1 .5-.5h3a.5.5 0 0 1 .5.5.5.5 0 0 1-.5.5zm6 0a.5.5 0 0 1 0-1h3a.5.5 0 0 1 0 1zm6 0a.49.49 0 0 1-.5-.49.51.51 0 0 1 .5-.51h3a.47.47 0 0 1 .5.5.5.5 0 0 1-.5.5zm6 0a.5.5 0 0 1 0-1h3a.5.5 0 0 1 0 1zm6 0a.49.49 0 0 1-.5-.49.51.51 0 0 1 .46-.51h3a.5.5 0 0 1 .5.5.5.5 0 0 1-.5.5zm6 0a.5.5 0 0 1-.5-.5.5.5 0 0 1 .5-.5h3a.5.5 0 0 1 0 1zm6 0a.49.49 0 0 1-.5-.49.51.51 0 0 1 .46-.51h1l1.52-.92a.5.5 0 1 1 .52.85L86.25 196zm5.28-2.56a.47.47 0 0 1-.42-.24.49.49 0 0 1 .16-.68l2.55-1.52a.5.5 0 1 1 .52.85l-2.56 1.56a.48.48 0 0 1-.26.02zM8.68 193a.46.46 0 0 1-.22-.06.49.49 0 0 1-.22-.67l1.36-2.67a.51.51 0 0 1 .68-.22.5.5 0 0 1 .21.67l-1.36 2.68a.51.51 0 0 1-.45.27zm86.76-2.65a.49.49 0 0 1-.43-.24.49.49 0 0 1 .17-.68l2.56-1.57a.5.5 0 0 1 .52.86l-2.56 1.56a.48.48 0 0 1-.26.03zm-84-2.69a.46.46 0 0 1-.23-.06.5.5 0 0 1-.22-.67l1.37-2.67A.49.49 0 0 1 13 184a.5.5 0 0 1 .22.67l-1.37 2.67a.49.49 0 0 1-.43.28zm89.14-.43a.5.5 0 0 1-.43-.24.51.51 0 0 1 .17-.69l2.56-1.56a.5.5 0 0 1 .52.86l-2.56 1.56a.48.48 0 0 1-.28.03zm5.13-3.12a.49.49 0 0 1-.43-.24.5.5 0 0 1 .17-.69l2.56-1.56a.49.49 0 0 1 .68.17.5.5 0 0 1-.16.69L106 184a.54.54 0 0 1-.31.07zm-91.54-1.8a.46.46 0 0 1-.23-.05.5.5 0 0 1-.22-.67l1.37-2.67a.5.5 0 1 1 .89.45L14.59 182a.5.5 0 0 1-.44.27zm96.64-1.31a.52.52 0 0 1-.43-.24.5.5 0 0 1 .17-.69l2.56-1.56a.5.5 0 0 1 .52.86l-2.56 1.56a.48.48 0 0 1-.26.07zm5.12-3.12a.5.5 0 0 1-.26-.93l2.57-1.56a.5.5 0 0 1 .52.85l-2.57 1.57a.59.59 0 0 1-.26.02zm-99.05-.9a.48.48 0 0 1-.23-.05.5.5 0 0 1-.21-.67l1.36-2.68a.51.51 0 0 1 .68-.21.49.49 0 0 1 .21.67l-1.36 2.67a.51.51 0 0 1-.45.22zm104.18-2.22a.51.51 0 0 1-.43-.24.5.5 0 0 1 .17-.69l2.56-1.56a.51.51 0 0 1 .69.17.49.49 0 0 1-.17.68l-2.56 1.56a.5.5 0 0 1-.26.03zm-101.45-3.17a.59.59 0 0 1-.22-.05.5.5 0 0 1-.22-.68l1.37-2.67a.49.49 0 0 1 .67-.21.5.5 0 0 1 .22.67l-1.37 2.67a.5.5 0 0 1-.45.27zm106.57 0a.49.49 0 0 1-.42-.24.5.5 0 0 1 .16-.69l2.56-1.56a.5.5 0 1 1 .52.85l-2.56 1.56a.5.5 0 0 1-.26.08zm5.13-3.13a.49.49 0 0 1-.43-.24.49.49 0 0 1 .17-.68l2.56-1.56a.5.5 0 1 1 .52.85l-2.56 1.56a.48.48 0 0 1-.26.07zm-109-2.21a.59.59 0 0 1-.23-.05.51.51 0 0 1-.22-.68l1.37-2.67a.5.5 0 1 1 .89.46L22.79 166a.5.5 0 0 1-.44.25zm114.08-.91a.5.5 0 0 1-.26-.92l2.56-1.56a.5.5 0 1 1 .52.85l-2.56 1.56a.48.48 0 0 1-.22.07zm5.13-3.12a.49.49 0 0 1-.43-.24.51.51 0 0 1 .17-.69l1.68-1a.5.5 0 0 1 .52.85l-1.68 1a.54.54 0 0 1-.22.08zm-116.44-1.31a.46.46 0 0 1-.23-.06.5.5 0 0 1-.22-.67l1.37-2.67a.5.5 0 1 1 .89.46l-1.37 2.67a.49.49 0 0 1-.44.27zm2.73-5.34a.5.5 0 0 1-.44-.73l1.36-2.67a.51.51 0 0 1 .68-.22.5.5 0 0 1 .21.67l-1.36 2.67a.5.5 0 0 1-.45.28zm2.73-5.35a.44.44 0 0 1-.22-.05.49.49 0 0 1-.22-.67l1.37-2.67a.49.49 0 0 1 .67-.22.51.51 0 0 1 .22.67L31 150a.48.48 0 0 1-.46.22zm2.74-5.34a.46.46 0 0 1-.23 0 .5.5 0 0 1-.22-.67l1.37-2.67a.49.49 0 0 1 .67-.22.5.5 0 0 1 .22.67l-1.37 2.67a.5.5 0 0 1-.44.22zm2.72-5.34a.64.64 0 0 1-.23 0 .51.51 0 0 1-.21-.68l1.36-2.67a.5.5 0 0 1 .67-.21.49.49 0 0 1 .22.67l-1.36 2.67a.51.51 0 0 1-.45.22zm2.73-5.34a.59.59 0 0 1-.22 0 .5.5 0 0 1-.22-.68l1.36-2.67a.52.52 0 0 1 .68-.22.51.51 0 0 1 .21.68l-1.36 2.67a.51.51 0 0 1-.44.22zm2.74-5.34a.46.46 0 0 1-.23-.06.49.49 0 0 1-.22-.67l1.37-2.67a.5.5 0 0 1 .67-.22.51.51 0 0 1 .22.68l-1.37 2.67a.5.5 0 0 1-.43.27zm2.73-5.34a.46.46 0 0 1-.23-.06.5.5 0 0 1-.22-.67l1.37-2.67a.5.5 0 0 1 .67-.22.49.49 0 0 1 .22.67l-1.37 2.67a.49.49 0 0 1-.43.28zm2.73-5.34a.5.5 0 0 1-.44-.73l1.36-2.67a.5.5 0 1 1 .89.45l-1.36 2.67a.5.5 0 0 1-.44.28zm2.73-5.35a.44.44 0 0 1-.22 0 .49.49 0 0 1-.22-.67l1.36-2.67a.5.5 0 0 1 .68-.22.51.51 0 0 1 .22.67l-1.37 2.67a.51.51 0 0 1-.44.22zm2.74-5.34a.59.59 0 0 1-.23 0 .51.51 0 0 1-.22-.68l1.42-2.66a.5.5 0 0 1 .87.48l-1.4 2.64a.5.5 0 0 1-.43.22zm2.85-5.27a.44.44 0 0 1-.24-.07.49.49 0 0 1-.19-.68l1.45-2.62a.5.5 0 1 1 .87.48L55.7 102a.51.51 0 0 1-.44.22zM58.16 97a.53.53 0 0 1-.24-.06.49.49 0 0 1-.19-.68l1.45-2.62a.5.5 0 0 1 .68-.2.49.49 0 0 1 .19.68l-1.45 2.59a.5.5 0 0 1-.44.29zm2.9-5.25a.53.53 0 0 1-.24-.06.49.49 0 0 1-.19-.68l1.45-2.63a.5.5 0 1 1 .87.49l-1.45 2.58a.49.49 0 0 1-.44.26zM64 86.46a.53.53 0 0 1-.24-.06.5.5 0 0 1-.19-.68L65 83.09a.49.49 0 0 1 .68-.19.48.48 0 0 1 .19.67L64.4 86.2a.49.49 0 0 1-.4.26zm2.9-5.25a.44.44 0 0 1-.24-.07.48.48 0 0 1-.19-.67l1.45-2.63a.5.5 0 0 1 .68-.2.5.5 0 0 1 .19.68L67.3 81a.51.51 0 0 1-.44.21zM69.76 76a.53.53 0 0 1-.24-.06.49.49 0 0 1-.19-.68l1.45-2.62a.5.5 0 0 1 .68-.2.49.49 0 0 1 .19.68L70.2 75.7a.5.5 0 0 1-.44.3zm2.9-5.25a.53.53 0 0 1-.24-.06.49.49 0 0 1-.19-.68l1.45-2.63a.5.5 0 0 1 .87.49l-1.45 2.57a.49.49 0 0 1-.44.26zm2.91-5.25a.54.54 0 0 1-.25-.06.5.5 0 0 1-.19-.68l1.45-2.63a.5.5 0 1 1 .87.49L76 65.19a.49.49 0 0 1-.43.26zm2.9-5.25a.45.45 0 0 1-.25-.07.48.48 0 0 1-.19-.67l1.45-2.63a.51.51 0 0 1 .68-.2.5.5 0 0 1 .19.68l-1.45 2.58a.51.51 0 0 1-.43.26zm2.9-5.25a.55.55 0 0 1-.25-.07.5.5 0 0 1-.19-.68l1.45-2.62a.51.51 0 0 1 .68-.2.49.49 0 0 1 .19.68l-1.45 2.58a.51.51 0 0 1-.43.31zm2.9-5.26a.48.48 0 0 1-.24-.06.5.5 0 0 1-.2-.68l1.45-2.63a.5.5 0 0 1 .68-.19.49.49 0 0 1 .19.68l-1.45 2.57a.49.49 0 0 1-.43.26zm2.9-5.25a.57.57 0 0 1-.25-.06.51.51 0 0 1-.19-.68l1.45-2.63a.5.5 0 1 1 .87.49l-1.45 2.57a.49.49 0 0 1-.43.26zm2.9-5.25a.5.5 0 0 1-.44-.74l1.45-2.63a.5.5 0 1 1 .88.48l-1.46 2.58a.51.51 0 0 1-.43.26zm2.93-5.3a.42.42 0 0 1-.24-.07.5.5 0 0 1-.2-.68L94 30.57a.5.5 0 0 1 .88.48l-1.45 2.63a.53.53 0 0 1-.43.26zm2.9-5.26a.5.5 0 0 1-.24-.06.5.5 0 0 1-.2-.68l1.45-2.62a.5.5 0 0 1 .68-.2.51.51 0 0 1 .2.68l-1.45 2.62a.51.51 0 0 1-.47.26zm2.9-5.25a.5.5 0 0 1-.24-.06.51.51 0 0 1-.2-.68l1.45-2.63a.49.49 0 0 1 .68-.19.5.5 0 0 1 .2.68l-1.45 2.62a.5.5 0 0 1-.47.26zm2.9-5.25a.5.5 0 0 1-.24-.06.51.51 0 0 1-.2-.68l1.45-2.63a.5.5 0 1 1 .88.48l-1.45 2.63a.52.52 0 0 1-.47.26zm2.9-5.25a.42.42 0 0 1-.24-.07.5.5 0 0 1-.2-.68l1.45-2.62a.5.5 0 0 1 .88.48L105 12.67a.51.51 0 0 1-.43.26zm2.9-5.26a.5.5 0 0 1-.44-.74l1.45-2.62a.5.5 0 0 1 .68-.2.51.51 0 0 1 .2.68l-1.45 2.62a.49.49 0 0 1-.47.26z"/><ellipse cx="108.55" cy="5.44" rx="5.44" ry="5.44" transform="rotate(-26.66 108.54 5.44)"/><ellipse cx="52.75" cy="106.49" rx="5.44" ry="5.44" transform="rotate(-26.66 52.75 106.48)"/><ellipse cx="5.44" cy="194.15" rx="5.44" ry="5.44" transform="rotate(-26.66 5.44 194.14)"/><ellipse cx="14.08" cy="271.94" rx="5.44" ry="5.44" transform="rotate(-26.66 14.08 271.94)"/><ellipse cx="110.21" cy="281.43" rx="5.44" ry="5.44" transform="rotate(-26.66 110.21 281.41)"/><ellipse cx="118.81" cy="328.83" rx="5.44" ry="5.44" transform="rotate(-26.66 118.8 328.8)"/><ellipse cx="166.13" cy="253.33" rx="5.44" ry="5.44" transform="rotate(-26.66 166.12 253.32)"/><ellipse cx="220.9" cy="265.35" rx="5.44" ry="5.44" transform="rotate(-26.66 220.89 265.33)"/><ellipse cx="88.17" cy="195.16" rx="5.44" ry="5.44" transform="rotate(-26.66 88.17 195.15)"/><ellipse cx="146.52" cy="159.76" rx="5.44" ry="5.44" transform="rotate(-26.66 146.5 159.74)"/></svg>