<svg xmlns="http://www.w3.org/2000/svg" viewBox="0 0 157.83 84.26"><path d="M152.33 78.62a.51.51 0 0 1-.44-.26l-1.43-2.64a.5.5 0 0 1 .88-.47l1.43 2.63a.49.49 0 0 1-.2.68.48.48 0 0 1-.24.06zm-2.86-5.27a.53.53 0 0 1-.44-.26l-1.43-2.64a.5.5 0 0 1 .21-.68.49.49 0 0 1 .67.2l1.43 2.64a.49.49 0 0 1-.2.68.5.5 0 0 1-.24.06zm-2.86-5.28a.51.51 0 0 1-.44-.26l-1.43-2.64a.5.5 0 0 1 .88-.47l1.43 2.64a.5.5 0 0 1-.44.73zm-2.86-5.27a.53.53 0 0 1-.44-.26l-1.43-2.64a.5.5 0 0 1 .21-.68.49.49 0 0 1 .67.2l1.43 2.64a.49.49 0 0 1-.2.68.48.48 0 0 1-.24.06zm-2.86-5.28a.51.51 0 0 1-.44-.26L139 54.63a.5.5 0 0 1 .88-.48l1.43 2.64a.49.49 0 0 1-.2.67.41.41 0 0 1-.22.06zM138 52.25a.51.51 0 0 1-.44-.26l-1.43-2.64a.5.5 0 0 1 .21-.68.5.5 0 0 1 .67.2l1.43 2.64a.49.49 0 0 1-.2.68.48.48 0 0 1-.24.06zm-3-5.06a.53.53 0 0 1-.24-.06l-2.64-1.42a.5.5 0 1 1 .48-.88l2.64 1.42a.5.5 0 0 1 .2.68.51.51 0 0 1-.44.26zm-5.28-2.84a.53.53 0 0 1-.24-.06l-2.64-1.42a.5.5 0 0 1-.21-.68.51.51 0 0 1 .68-.21l2.64 1.43a.49.49 0 0 1 .21.67.5.5 0 0 1-.48.27zm-5.29-2.85a.46.46 0 0 1-.23-.06L121.51 40a.5.5 0 0 1 .48-.88l2.64 1.42a.51.51 0 0 1 .2.68.49.49 0 0 1-.44.28zm-5.28-2.84a.53.53 0 0 1-.24-.06l-2.64-1.42a.5.5 0 0 1 .48-.88l2.64 1.42a.51.51 0 0 1 .2.68.49.49 0 0 1-.48.26zm-5.28-2.84a.5.5 0 0 1-.24-.06L111 34.34a.5.5 0 0 1-.21-.68.51.51 0 0 1 .68-.2l2.64 1.42a.5.5 0 0 1 .21.68.53.53 0 0 1-.49.26zM108.54 33a.53.53 0 0 1-.24-.06l-2.64-1.42a.5.5 0 0 1 .48-.88l2.64 1.36a.5.5 0 0 1-.24.94zm-5.28-2.84a.53.53 0 0 1-.24-.06l-2.64-1.43a.49.49 0 0 1-.21-.67.5.5 0 0 1 .68-.21l2.64 1.42a.5.5 0 0 1 .21.68.51.51 0 0 1-.44.25zm-5.5-2.3h-.12l-2.91-.72a.5.5 0 0 1-.36-.61.48.48 0 0 1 .6-.36l2.91.72a.51.51 0 0 1 .37.61.5.5 0 0 1-.49.34zm-5.82-1.45h-.12l-2.91-.73a.5.5 0 0 1 .24-1l2.91.73a.5.5 0 0 1-.12 1zm-5.82-1.46H86l-2.91-.73a.51.51 0 0 1-.37-.61.5.5 0 0 1 .61-.36l2.91.73a.5.5 0 0 1-.12 1zm-5.82-1.47h-.12l-2.91-.72a.51.51 0 0 1-.37-.61.5.5 0 0 1 .61-.36l2.91.72a.5.5 0 0 1 .36.61.49.49 0 0 1-.48.36zM74.48 22h-.12l-2.91-.73a.49.49 0 0 1-.37-.6.51.51 0 0 1 .61-.37l2.91.7a.5.5 0 0 1-.12 1zm-5.82-1.45h-.13l-2.91-.73a.51.51 0 0 1-.36-.61.5.5 0 0 1 .61-.36l2.91.72a.5.5 0 0 1-.12 1zm-5.82-1.45h-.13l-2.91-.73a.48.48 0 0 1-.36-.6.5.5 0 0 1 .61-.37l2.91.73a.51.51 0 0 1 .36.61.5.5 0 0 1-.48.38zM57 17.66h-.12L54 16.92a.5.5 0 0 1 .24-1l2.91.73a.5.5 0 0 1-.12 1zm-5.82-1.45h-.12l-2.91-.72a.5.5 0 0 1-.36-.61.48.48 0 0 1 .6-.36l2.91.72a.51.51 0 0 1 .37.61.5.5 0 0 1-.48.36zm-5.82-1.45h-.12l-2.9-.76a.5.5 0 0 1-.37-.6.51.51 0 0 1 .61-.37l2.91.73a.5.5 0 0 1-.12 1zm-5.81-1.46h-.12l-2.91-.73a.51.51 0 0 1-.37-.61.51.51 0 0 1 .61-.36l2.91.73a.48.48 0 0 1 .36.6.49.49 0 0 1-.48.37zm-5.82-1.45h-.12l-2.91-.72a.51.51 0 0 1-.37-.61.5.5 0 0 1 .61-.36l2.91.72a.5.5 0 0 1 .36.61.49.49 0 0 1-.48.36zm-5.82-1.46h-.12l-2.91-.73a.49.49 0 0 1-.37-.6.5.5 0 0 1 .61-.37l2.88.72a.5.5 0 0 1 .36.61.49.49 0 0 1-.45.37zm-5.82-1.45H22l-2.95-.74a.51.51 0 0 1-.36-.61.5.5 0 0 1 .61-.36l2.91.77a.48.48 0 0 1 .36.6.5.5 0 0 1-.48.34zm-5.82-1.45h-.13l-2.91-.72a.5.5 0 0 1 .25-1l2.91.72a.51.51 0 0 1 .36.61.5.5 0 0 1-.48.39zM10.44 6h-.12l-2.91-.71a.5.5 0 0 1 .24-1l2.91.73a.5.5 0 0 1-.12 1z"/><ellipse cx="5.44" cy="5.44" rx="5.44" ry="5.44"/><ellipse cx="100.68" cy="27.18" rx="5.44" ry="5.44"/><ellipse cx="136.06" cy="46.21" rx="5.44" ry="5.44"/><ellipse cx="152.38" cy="78.83" rx="5.44" ry="5.44"/></svg>