<svg xmlns="http://www.w3.org/2000/svg" viewBox="0 0 160.55 247.35"><path d="M3.65 243.49l1.5-2.26a.5.5 0 0 1 .83.55H6l.27-.08a.5.5 0 1 1 .28 1zm5.62-1.62a.51.51 0 0 1-.48-.36.5.5 0 0 1 .35-.62l2.88-.83a.5.5 0 0 1 .28 1l-2.89.82zm5.73-1.65a.5.5 0 0 1-.13-1l2.88-.82a.5.5 0 1 1 .28 1l-2.89.82a.32.32 0 0 1-.14 0zm-7.82-.71a.49.49 0 0 1-.28-.09.5.5 0 0 1-.14-.69l1.66-2.5a.5.5 0 0 1 .69-.14.49.49 0 0 1 .14.69l-1.65 2.5a.51.51 0 0 1-.38.23zm13.59-.93a.52.52 0 0 1-.48-.37.5.5 0 0 1 .35-.61l2.88-.83a.5.5 0 1 1 .28 1l-2.89.83zm5.77-1.65a.51.51 0 0 1-.48-.36.5.5 0 0 1 .35-.62l2.88-.83a.5.5 0 0 1 .27 1l-2.88.82zm5.77-1.65a.49.49 0 0 1-.48-.36.51.51 0 0 1 .35-.62l2.88-.82a.5.5 0 0 1 .62.34.51.51 0 0 1-.35.62l-2.88.82a.34.34 0 0 1-.1.02zm-21.82-.77a.46.46 0 0 1-.27-.09.49.49 0 0 1-.14-.69l1.65-2.5a.5.5 0 0 1 .84.55l-1.57 2.5a.51.51 0 0 1-.47.23zm27.59-.87a.5.5 0 0 1-.48-.37.51.51 0 0 1 .34-.62l2.89-.82a.5.5 0 1 1 .27 1l-2.88.83zm5.81-1.64a.49.49 0 0 1-.48-.36.5.5 0 0 1 .34-.62l2.89-.83a.5.5 0 0 1 .62.35.51.51 0 0 1-.35.62L44 232zm5.77-1.65a.49.49 0 0 1-.48-.36.5.5 0 0 1 .34-.62l2.89-.82a.5.5 0 0 1 .62.34.51.51 0 0 1-.35.62l-2.88.82a.34.34 0 0 1-.14.01zm-35.81-.84a.48.48 0 0 1-.28-.08.5.5 0 0 1-.14-.69l1.66-2.5a.49.49 0 0 1 .69-.14.5.5 0 0 1 .14.69l-1.66 2.5a.49.49 0 0 1-.41.21zm41.58-.8a.5.5 0 0 1-.48-.37.49.49 0 0 1 .34-.61l2.89-.83a.5.5 0 1 1 .27 1l-2.88.83zm5.77-1.65a.5.5 0 0 1-.48-.36.5.5 0 0 1 .34-.62l2.89-.83a.5.5 0 0 1 .27 1l-2.88.82zm5.8-1.66a.49.49 0 0 1-.48-.36.5.5 0 0 1 .34-.62l2.89-.82a.5.5 0 1 1 .27 1l-2.88.82a.34.34 0 0 1-.14-.02zm-49.81-.9a.57.57 0 0 1-.28-.08.51.51 0 0 1-.14-.7l1.66-2.5a.5.5 0 1 1 .83.56l-1.65 2.5a.52.52 0 0 1-.45.22zm55.58-.74a.51.51 0 0 1-.14-1l2.89-.82a.5.5 0 0 1 .27 1l-2.88.83zm5.77-1.65a.5.5 0 0 1-.14-1l2.43-.7.3-.17a.49.49 0 0 1 .68.17.5.5 0 0 1-.17.69l-.47.26-2.49.71zm5.42-2.46a.5.5 0 0 1-.43-.25.48.48 0 0 1 .17-.68l2.57-1.55a.51.51 0 0 1 .69.18.5.5 0 0 1-.17.68l-2.58 1.54a.49.49 0 0 1-.28.08zm-63.46-.15a.53.53 0 0 1-.27-.08.5.5 0 0 1-.14-.7l1.65-2.5a.51.51 0 0 1 .7-.14.5.5 0 0 1 .14.69l-1.66 2.5a.51.51 0 0 1-.45.23zm68.6-2.94a.52.52 0 0 1-.43-.24.51.51 0 0 1 .17-.69l2.58-1.54a.5.5 0 0 1 .51.86l-2.57 1.54a.48.48 0 0 1-.29.07zm-65.31-2.06a.49.49 0 0 1-.28-.09.5.5 0 0 1-.14-.69l1.66-2.5a.5.5 0 0 1 .83.55l-1.66 2.5a.48.48 0 0 1-.41.23zm70.43-1a.5.5 0 0 1-.26-.93l2.57-1.57a.5.5 0 1 1 .52.85l-2.57 1.55a.63.63 0 0 1-.26.08zm5.14-3.09a.47.47 0 0 1-.42-.24.49.49 0 0 1 .17-.69l2.57-1.54a.52.52 0 0 1 .69.17.51.51 0 0 1-.18.69l-2.57 1.54a.48.48 0 0 1-.26.05zm-72.26-.9a.48.48 0 0 1-.28-.08.5.5 0 0 1-.14-.69l1.66-2.5a.5.5 0 0 1 .69-.14.49.49 0 0 1 .14.69l-1.65 2.5a.5.5 0 0 1-.42.2zm77.41-2.18a.51.51 0 0 1-.43-.25.5.5 0 0 1 .17-.68l2.58-1.54a.5.5 0 0 1 .51.85l-2.57 1.55a.48.48 0 0 1-.26.05zm-74.1-2.82a.45.45 0 0 1-.27-.08.49.49 0 0 1-.14-.69l1.65-2.51a.5.5 0 0 1 .84.56l-1.66 2.5a.52.52 0 0 1-.42.2zm79.25-.27a.49.49 0 0 1-.43-.24.5.5 0 0 1 .17-.69l2.57-1.54a.51.51 0 0 1 .69.17.5.5 0 0 1-.17.69l-2.58 1.54a.45.45 0 0 1-.25.05zm5.14-3.08a.5.5 0 0 1-.42-.24.49.49 0 0 1 .17-.69l2.57-1.54a.5.5 0 1 1 .51.85l-2.57 1.55a.48.48 0 0 1-.26.05zm-81.07-1.65a.57.57 0 0 1-.28-.08.51.51 0 0 1-.14-.7l1.66-2.5a.5.5 0 0 1 .69-.14.51.51 0 0 1 .14.7l-1.66 2.5a.49.49 0 0 1-.41.2zm86.27-1.46a.5.5 0 0 1-.26-.92l2.58-1.55a.5.5 0 0 1 .68.18.48.48 0 0 1-.17.68l-2.62 1.56a.48.48 0 0 1-.21.05zm5.1-3.05a.51.51 0 0 1-.43-.24.5.5 0 0 1 .17-.69l2.57-1.54a.49.49 0 0 1 .69.17.51.51 0 0 1-.17.69l-2.58 1.54a.47.47 0 0 1-.25.07zm-88.1-.51a.49.49 0 0 1-.28-.09.5.5 0 0 1-.14-.69l1.66-2.5a.5.5 0 0 1 .69-.14.49.49 0 0 1 .14.69l-1.65 2.5a.51.51 0 0 1-.42.23zm93.2-2.6a.51.51 0 0 1-.43-.25.5.5 0 0 1 .23-.64l2.57-1.55a.51.51 0 0 1 .69.18.5.5 0 0 1-.18.68l-2.57 1.54a.5.5 0 0 1-.27.04zm-89.89-2.4a.46.46 0 0 1-.27-.09.49.49 0 0 1-.14-.69l1.65-2.5a.51.51 0 0 1 .7-.14.5.5 0 0 1 .14.69l-1.66 2.5a.51.51 0 0 1-.38.23zm95-.69a.52.52 0 0 1-.43-.24.51.51 0 0 1 .17-.69l2.58-1.54a.49.49 0 0 1 .68.17.5.5 0 0 1-.17.69l-2.57 1.54a.48.48 0 0 1-.18.07zm5.15-3.08a.5.5 0 0 1-.26-.93l2.57-1.54a.49.49 0 0 1 .69.17.5.5 0 0 1-.17.68l-2.58 1.54a.49.49 0 0 1-.17.08zm-96.87-1.24a.48.48 0 0 1-.28-.08.5.5 0 0 1-.14-.69l1.66-2.5a.49.49 0 0 1 .69-.14.5.5 0 0 1 .14.69l-1.66 2.5a.49.49 0 0 1-.33.22zm102-1.85a.5.5 0 0 1-.43-.24.51.51 0 0 1 .18-.69l2.57-1.54a.5.5 0 0 1 .68.17.49.49 0 0 1-.17.69l-2.57 1.54a.48.48 0 0 1-.17.07zm5.15-3.08a.5.5 0 0 1-.43-.25.5.5 0 0 1 .17-.68l2.58-1.54a.48.48 0 0 1 .68.17.49.49 0 0 1-.17.68l-2.57 1.55a.59.59 0 0 1-.17.07zM47 179.48a.57.57 0 0 1-.28-.08.51.51 0 0 1-.14-.7l1.66-2.5a.5.5 0 1 1 .83.56l-1.65 2.5a.52.52 0 0 1-.42.22zm108.8-3.09a.49.49 0 0 1-.47-.34l-.94-2.86a.5.5 0 0 1 .95-.31l.94 2.86a.51.51 0 0 1-.32.63zm-105.51-1.91a.53.53 0 0 1-.27-.08.5.5 0 0 1-.14-.7l1.65-2.5a.51.51 0 0 1 .7-.14.5.5 0 0 1 .14.69l-1.66 2.51a.52.52 0 0 1-.42.22zm103.62-3.79a.49.49 0 0 1-.47-.35l-.94-2.85a.51.51 0 0 1 .32-.63.52.52 0 0 1 .64.32l.93 2.85a.49.49 0 0 1-.32.63.41.41 0 0 1-.16.03zm-100.3-1.21a.49.49 0 0 1-.28-.09.5.5 0 0 1-.14-.69l1.66-2.5a.5.5 0 0 1 .83.55l-1.68 2.5a.48.48 0 0 1-.39.23zm98.44-4.48a.5.5 0 0 1-.48-.35l-.93-2.85a.49.49 0 0 1 .32-.63.51.51 0 0 1 .63.32l.93 2.85a.5.5 0 0 1-.32.63zm-95.13-.51a.49.49 0 0 1-.28-.09.5.5 0 0 1-.14-.69l1.66-2.5a.5.5 0 0 1 .83.55l-1.65 2.5a.51.51 0 0 1-.42.22zm3.31-5a.45.45 0 0 1-.27-.08.49.49 0 0 1-.14-.69l1.65-2.51a.5.5 0 1 1 .84.56l-1.66 2.5a.52.52 0 0 1-.42.2zm90-.18a.51.51 0 0 1-.48-.35l-.93-2.85a.5.5 0 0 1 .95-.31l.93 2.85a.49.49 0 0 1-.32.63.4.4 0 0 1-.2.01zm-87.34-5.13h-.12a.49.49 0 0 1-.36-.6l.74-2.91a.5.5 0 1 1 1 .25l-.74 2.9a.5.5 0 0 1-.57.34zm85.47-.58a.5.5 0 0 1-.48-.34l-.93-2.85a.5.5 0 0 1 .95-.31l.93 2.85a.49.49 0 0 1-.32.63.39.39 0 0 1-.2 0zm-84-5.23h-.12a.5.5 0 0 1-.36-.61l.74-2.91a.51.51 0 0 1 .61-.36.5.5 0 0 1 .36.61l-.78 2.9a.51.51 0 0 1-.49.35zm82.12-.47a.48.48 0 0 1-.47-.34l-.94-2.85a.5.5 0 0 1 .32-.63.49.49 0 0 1 .63.32l.94 2.85a.51.51 0 0 1-.32.63zm-80.63-5.35h-.13a.5.5 0 0 1-.36-.61l.74-2.91a.5.5 0 0 1 1 .25l-.74 2.9a.5.5 0 0 1-.55.35zm78.76-.35a.49.49 0 0 1-.47-.34l-.94-2.86a.5.5 0 0 1 1-.31l.94 2.85a.52.52 0 0 1-.32.64zm-77.28-5.46h-.13a.5.5 0 0 1-.36-.61l.74-2.91a.51.51 0 0 1 .61-.36.5.5 0 0 1 .36.61l-.74 2.91a.51.51 0 0 1-.52.34zm75.41-.24a.5.5 0 0 1-.47-.35l-.93-2.85a.49.49 0 0 1 .32-.63.51.51 0 0 1 .63.32l.93 2.85a.5.5 0 0 1-.32.63.41.41 0 0 1-.2.01zm-73.97-5.6h-.13a.51.51 0 0 1-.36-.61l.74-2.91a.5.5 0 0 1 1 .25l-.74 2.9a.5.5 0 0 1-.51.37zm72.07-.12a.51.51 0 0 1-.48-.35l-.93-2.85a.49.49 0 0 1 .32-.63.5.5 0 0 1 .63.32l.93 2.85a.49.49 0 0 1-.32.63.4.4 0 0 1-.15.03zm-70.59-5.69h-.13a.51.51 0 0 1-.36-.61l.74-2.9a.5.5 0 0 1 1 .24l-.74 2.91a.5.5 0 0 1-.51.36zm68.72 0a.5.5 0 0 1-.48-.34l-.93-2.85a.5.5 0 0 1 .95-.31l.93 2.85a.5.5 0 0 1-.31.63.47.47 0 0 1-.13 0zm-1.87-5.7a.48.48 0 0 1-.47-.34l-.94-2.85a.5.5 0 0 1 .32-.63.49.49 0 0 1 .63.32l.94 2.85a.51.51 0 0 1-.32.63.44.44 0 0 1-.16 0zm-65.37-.1h-.13a.51.51 0 0 1-.36-.61l.74-2.91a.5.5 0 0 1 1 .25l-.74 2.91a.5.5 0 0 1-.51.34zm63.5-5.6a.49.49 0 0 1-.47-.34l-.94-2.85a.5.5 0 0 1 .32-.63.49.49 0 0 1 .63.31l.94 2.86a.51.51 0 0 1-.32.63zm-62-.21h-.13a.51.51 0 0 1-.36-.61l.74-2.9a.5.5 0 0 1 .61-.36.49.49 0 0 1 .36.6l-.74 2.91a.5.5 0 0 1-.5.34zm60.13-5.48a.49.49 0 0 1-.47-.34l-.94-2.86a.51.51 0 0 1 .32-.63.52.52 0 0 1 .64.32l.93 2.85a.49.49 0 0 1-.32.63.41.41 0 0 1-.16.03zm-58.67-.33h-.13a.51.51 0 0 1-.36-.61l.74-2.91a.51.51 0 0 1 .61-.36.5.5 0 0 1 .36.61l-.74 2.91a.5.5 0 0 1-.48.33zm56.81-5.37a.51.51 0 0 1-.48-.35l-.93-2.85a.49.49 0 0 1 .32-.63.5.5 0 0 1 .63.32l.93 2.85a.5.5 0 0 1-.32.63.4.4 0 0 1-.15 0zm-55.33-.44h-.13a.5.5 0 0 1-.36-.61l.74-2.9a.5.5 0 0 1 1 .24l-.74 2.91a.5.5 0 0 1-.51.33zm53.46-5.26a.51.51 0 0 1-.48-.35l-.93-2.85a.5.5 0 1 1 .95-.31l.93 2.85a.49.49 0 0 1-.32.63.4.4 0 0 1-.15 0zm-52-.56h-.13a.51.51 0 0 1-.36-.61l.74-2.91a.51.51 0 0 1 .61-.36.5.5 0 0 1 .36.61l-.74 2.91a.5.5 0 0 1-.46.32zm50.11-5.15a.5.5 0 0 1-.48-.34l-.93-2.85a.5.5 0 0 1 1-.31l.94 2.85a.51.51 0 0 1-.32.63.47.47 0 0 1-.19-.01zm-48.61-.69h-.12a.5.5 0 0 1-.37-.6l.74-2.91a.5.5 0 0 1 1 .25l-.74 2.9a.49.49 0 0 1-.51.36zm46.76-5a.49.49 0 0 1-.47-.34l-.94-2.86a.5.5 0 0 1 .32-.63.49.49 0 0 1 .63.32l.94 2.85a.51.51 0 0 1-.32.63zm-45.28-.77h-.12a.51.51 0 0 1-.37-.61l.74-2.91a.51.51 0 0 1 .61-.36.5.5 0 0 1 .36.61L81.09 84a.5.5 0 0 1-.48.39zM124 79.46a.49.49 0 0 1-.47-.34l-.94-2.85a.52.52 0 0 1 .32-.64.5.5 0 0 1 .63.32l.94 2.85a.51.51 0 0 1-.32.64zm-41.93-.89H82a.52.52 0 0 1-.4-.57l.75-3a.48.48 0 0 1 .6-.36.5.5 0 0 1 .36.61l-.74 2.9a.49.49 0 0 1-.48.42zm40.07-4.81a.51.51 0 0 1-.48-.35l-.93-2.85a.49.49 0 0 1 .32-.63.51.51 0 0 1 .63.32l.93 2.85a.49.49 0 0 1-.32.63.4.4 0 0 1-.13.03zm-38.59-1h-.12a.5.5 0 0 1-.36-.61l.74-2.9a.49.49 0 0 1 .6-.37.5.5 0 0 1 .36.61l-.74 2.91a.49.49 0 0 1-.46.36zm36.72-4.7a.51.51 0 0 1-.48-.35l-.93-2.85a.5.5 0 0 1 1-.31l.93 2.85a.49.49 0 0 1-.32.63.4.4 0 0 1-.18.03zm-35.22-1.12h-.12a.5.5 0 0 1-.36-.61l.74-2.91a.48.48 0 0 1 .6-.36.5.5 0 0 1 .36.61l-.74 2.91a.49.49 0 0 1-.48.36zm33.37-4.58a.51.51 0 0 1-.48-.35l-.94-2.85a.5.5 0 1 1 .95-.31l.93 2.85a.49.49 0 0 1-.32.63.4.4 0 0 1-.14.03zm-31.89-1.23h-.12a.5.5 0 0 1-.36-.61l.74-2.9a.48.48 0 0 1 .6-.36.5.5 0 0 1 .37.6L87 60.75a.51.51 0 0 1-.47.38zm30-4.48a.48.48 0 0 1-.47-.34l-.94-2.85a.5.5 0 0 1 .32-.63.49.49 0 0 1 .63.32L117 56a.51.51 0 0 1-.32.63.47.47 0 0 1-.13.02zM88 55.31h-.12a.5.5 0 0 1-.36-.61l.74-2.91a.49.49 0 0 1 .6-.36.51.51 0 0 1 .37.61l-.74 2.91a.51.51 0 0 1-.49.36zM114.68 51a.49.49 0 0 1-.47-.34l-.94-2.85a.5.5 0 0 1 1-.31l.93 2.85a.51.51 0 0 1-.32.63zm-25.19-1.5h-.12a.5.5 0 0 1-.36-.61l.74-2.9a.48.48 0 0 1 .6-.36.5.5 0 0 1 .37.6L90 49.12a.5.5 0 0 1-.51.38zm23.32-4.25a.49.49 0 0 1-.47-.34l-.93-2.86a.49.49 0 0 1 .32-.63.51.51 0 0 1 .63.32l.93 2.85a.51.51 0 0 1-.32.64zM91 43.68h-.12a.5.5 0 0 1-.36-.61l.74-2.91a.5.5 0 1 1 1 .25l-.74 2.91a.5.5 0 0 1-.52.36zm20-4.13a.51.51 0 0 1-.48-.35l-.93-2.85a.5.5 0 0 1 .95-.31l.93 2.85a.49.49 0 0 1-.32.63zm-18.5-1.68h-.12a.49.49 0 0 1-.36-.6l.74-2.91a.5.5 0 0 1 .61-.36.51.51 0 0 1 .36.61l-.74 2.9a.5.5 0 0 1-.54.36zm16.63-4a.51.51 0 0 1-.48-.35l-.93-2.85a.5.5 0 0 1 1-.31l.93 2.85a.49.49 0 0 1-.32.63.4.4 0 0 1-.25.01zm-15.15-1.8h-.12a.5.5 0 0 1-.36-.61l.74-2.91a.5.5 0 0 1 1 .25l-.74 2.91a.5.5 0 0 1-.57.34zm13.28-3.91a.5.5 0 0 1-.48-.34l-.35-1.09-1-2.81a.5.5 0 0 1 .31-.64.48.48 0 0 1 .63.3l1.38 3.93a.51.51 0 0 1-.32.63.47.47 0 0 1-.22 0zm-11.8-1.9a.25.25 0 0 1-.12 0 .49.49 0 0 1-.36-.6l.74-2.91a.49.49 0 0 1 .61-.36.51.51 0 0 1 .36.61l-.74 2.9a.5.5 0 0 1-.54.34zm9.42-4.84a.49.49 0 0 1-.47-.33l-1-2.82a.5.5 0 0 1 .3-.64.49.49 0 0 1 .64.3l1 2.82a.49.49 0 0 1-.3.64.51.51 0 0 1-.22.01zm-7.94-1h-.12a.5.5 0 0 1-.36-.61l.74-2.91a.5.5 0 0 1 1 .25l-.74 2.91a.5.5 0 0 1-.57.37zm5.92-4.68a.5.5 0 0 1-.47-.33l-1-2.82a.5.5 0 0 1 .31-.64.49.49 0 0 1 .63.3l1 2.82a.49.49 0 0 1-.3.64.47.47 0 0 1-.22.04zm-4.44-1.14h-.12a.5.5 0 0 1-.36-.61l.74-2.91a.5.5 0 0 1 .61-.36.51.51 0 0 1 .36.61l-.74 2.9a.5.5 0 0 1-.54.38zm2.42-4.51a.49.49 0 0 1-.47-.33l-.35-1a.49.49 0 0 1-.24 0 .5.5 0 0 1-.36-.61l.6-2.35 1.29 3.61a.49.49 0 0 1-.3.64.51.51 0 0 1-.22.05z"/><ellipse cx="5.44" cy="241.91" rx="5.44" ry="5.44"/><ellipse cx="81.63" cy="220.17" rx="5.44" ry="5.44"/><ellipse cx="62.59" cy="154.93" rx="5.44" ry="5.44"/><ellipse cx="155.1" cy="176.68" rx="5.44" ry="5.44"/><ellipse cx="108.84" cy="29.9" rx="5.44" ry="5.44"/><ellipse cx="100.68" cy="5.44" rx="5.44" ry="5.44"/></svg>