<svg xmlns="http://www.w3.org/2000/svg" viewBox="0 0 165.99 163.09"><path d="M53.79 157.77a.5.5 0 0 1-.5-.5v-3a.51.51 0 0 1 .5-.5.5.5 0 0 1 .5.5v3a.5.5 0 0 1-.5.5zm0-6a.5.5 0 0 1-.5-.5v-3a.51.51 0 0 1 .5-.5.5.5 0 0 1 .5.5v3a.5.5 0 0 1-.5.5zm0-6a.5.5 0 0 1-.5-.5v-3a.51.51 0 0 1 .5-.5.5.5 0 0 1 .5.5v3a.5.5 0 0 1-.5.5zm0-6a.5.5 0 0 1-.5-.5v-3a.51.51 0 0 1 .5-.5.5.5 0 0 1 .5.5v3a.5.5 0 0 1-.5.5zm0-6a.5.5 0 0 1-.5-.5v-3a.51.51 0 0 1 .5-.5.5.5 0 0 1 .5.5v3a.5.5 0 0 1-.5.5zm0-6a.5.5 0 0 1-.5-.5v-3a.51.51 0 0 1 .5-.5.5.5 0 0 1 .5.5v3a.5.5 0 0 1-.5.5zm106.12-2.87a.57.57 0 0 1-.18 0l-.17-.07a.5.5 0 1 1 .37-.93l.17.07a.5.5 0 0 1 .28.65.51.51 0 0 1-.47.28zm-2.91-1.17a.46.46 0 0 1-.19 0l-2.78-1.1a.5.5 0 0 1 .37-.93l2.78 1.11a.5.5 0 0 1-.18 1zm-103.17-2a.5.5 0 0 1-.5-.5v-3a.51.51 0 0 1 .5-.5.5.5 0 0 1 .5.5v3a.5.5 0 0 1-.54.54zm97.59-.25a.58.58 0 0 1-.18 0l-2.79-1.11a.5.5 0 0 1-.28-.65.51.51 0 0 1 .65-.28l2.79 1.11a.5.5 0 0 1-.19 1zm-5.57-2.22a.58.58 0 0 1-.19 0l-2.79-1.11a.51.51 0 0 1-.28-.65.5.5 0 0 1 .65-.28l2.79 1.11a.5.5 0 0 1 .28.65.51.51 0 0 1-.5.32zm-5.58-2.21a.39.39 0 0 1-.18 0l-2.79-1.1a.5.5 0 0 1 .37-.93l2.78 1.1a.49.49 0 0 1 .28.65.48.48 0 0 1-.5.32zm-86.44-1.32a.5.5 0 0 1-.5-.5v-3a.51.51 0 0 1 .5-.5.5.5 0 0 1 .5.5v3a.5.5 0 0 1-.54.54zm80.86-.9a.57.57 0 0 1-.18 0l-2.79-1.11a.5.5 0 0 1-.28-.65.51.51 0 0 1 .65-.28l2.79 1.11a.51.51 0 0 1 .28.65.5.5 0 0 1-.51.32zm-5.57-2.21a.41.41 0 0 1-.19 0l-2.79-1.1a.5.5 0 1 1 .37-.93l2.79 1.1a.5.5 0 0 1 .28.65.49.49 0 0 1-.5.32zm-5.58-2.21a.72.72 0 0 1-.19 0l-2.78-1.11a.49.49 0 0 1-.28-.65.51.51 0 0 1 .65-.28l2.78 1.11a.49.49 0 0 1 .28.65.48.48 0 0 1-.5.32zm-69.71-.68a.5.5 0 0 1-.5-.5v-3a.51.51 0 0 1 .5-.5.5.5 0 0 1 .5.5v3a.5.5 0 0 1-.54.54zm64.13-1.54a.57.57 0 0 1-.18 0l-2.78-1.1a.5.5 0 0 1 .37-.93l2.79 1.11a.51.51 0 0 1 .28.65.51.51 0 0 1-.52.31zm-5.61-2.19a.41.41 0 0 1-.19 0l-2.79-1.1a.51.51 0 0 1-.28-.65.5.5 0 0 1 .65-.28l2.79 1.1a.5.5 0 0 1 .28.65.49.49 0 0 1-.46.28zm-5.58-2.22a.57.57 0 0 1-.18 0l-2.79-1.11a.5.5 0 0 1-.28-.65.51.51 0 0 1 .65-.28l2.78 1.11a.5.5 0 0 1-.18 1zm-53 0a.5.5 0 0 1-.5-.5v-3a.51.51 0 0 1 .5-.5.5.5 0 0 1 .5.5v3a.5.5 0 0 1-.48.49zm47.4-2.18a.57.57 0 0 1-.18 0l-2.79-1.11a.5.5 0 0 1 .37-.93l2.79 1.11a.5.5 0 0 1 .28.64.51.51 0 0 1-.45.28zm-5.57-2.21a.58.58 0 0 1-.19 0l-2.79-1.11a.5.5 0 0 1-.28-.64.5.5 0 0 1 .65-.28l2.79 1.1a.5.5 0 0 1-.18 1zm-41.81-1.62a.5.5 0 0 1-.5-.5v-3a.51.51 0 0 1 .5-.5.5.5 0 0 1 .5.5v3a.5.5 0 0 1-.5.5zM90 97.16h-.19L87.07 96a.49.49 0 0 1-.28-.65.5.5 0 0 1 .65-.28l2.78 1.11a.5.5 0 0 1-.18 1zM84.46 95a.39.39 0 0 1-.18 0l-2.79-1.1a.5.5 0 0 1 .37-.93L84.65 94a.51.51 0 0 1 .28.65.51.51 0 0 1-.47.35zm-5.57-2.22a.58.58 0 0 1-.19 0l-2.79-1.11a.51.51 0 0 1-.28-.65.51.51 0 0 1 .65-.28l2.79 1.11a.5.5 0 0 1 .28.65.48.48 0 0 1-.46.23zm-25.1-1a.5.5 0 0 1-.5-.5v-3a.51.51 0 0 1 .5-.5.5.5 0 0 1 .5.5v3a.5.5 0 0 1-.5.49zm19.52-1.25a.57.57 0 0 1-.18 0l-2.79-1.11a.5.5 0 1 1 .37-.93l2.78 1.11a.5.5 0 0 1-.18 1zm-5.58-2.21a.39.39 0 0 1-.18 0l-2.79-1.1a.5.5 0 0 1-.28-.65.5.5 0 0 1 .65-.28l2.79 1.1a.5.5 0 0 1-.19 1zm-5.57-2.22a.58.58 0 0 1-.19 0L59.18 85a.51.51 0 0 1-.28-.65.51.51 0 0 1 .65-.28l2.79 1.11a.5.5 0 0 1-.18 1zm-8.37-.32a.5.5 0 0 1-.5-.5v-3a.34.34 0 0 1 0-.1.38.38 0 0 1 .06-.16.46.46 0 0 1 .15-.16.5.5 0 0 1 .2-.08.54.54 0 0 1 .18 0h.1l2.77 1.1a.5.5 0 0 1 .28.65.49.49 0 0 1-.64.28l-2.1-.81v2.26a.5.5 0 0 1-.5.51zm-1.47-5.35a.5.5 0 0 1-.43-.24l-1.59-2.55a.51.51 0 0 1 .16-.69.5.5 0 0 1 .69.16l1.59 2.54a.51.51 0 0 1-.42.77zm-3.18-5.09a.51.51 0 0 1-.43-.23l-1.59-2.55a.5.5 0 0 1 .16-.69.51.51 0 0 1 .72.13l1.59 2.55a.49.49 0 0 1-.16.69.48.48 0 0 1-.29.09zM46 70.25a.5.5 0 0 1-.42-.24l-1.59-2.54a.5.5 0 0 1 .85-.53l1.59 2.54a.51.51 0 0 1-.16.69.53.53 0 0 1-.27.08zm-3.18-5.09a.48.48 0 0 1-.42-.24l-1.59-2.54a.5.5 0 0 1 .15-.69.51.51 0 0 1 .69.16l1.59 2.54a.5.5 0 0 1-.15.69.56.56 0 0 1-.32.08zm-3.18-5.09a.51.51 0 0 1-.43-.23l-1.59-2.55a.5.5 0 0 1 .85-.53L40 59.31a.49.49 0 0 1-.16.69.48.48 0 0 1-.25.07zM36.41 55a.52.52 0 0 1-.43-.24l-1.59-2.54a.5.5 0 0 1 .16-.69.49.49 0 0 1 .69.16l1.59 2.54a.51.51 0 0 1-.42.77zm-3.19-5.1a.48.48 0 0 1-.42-.24l-1.59-2.54a.49.49 0 0 1 .16-.69.51.51 0 0 1 .69.16l1.59 2.54a.51.51 0 0 1-.16.69.45.45 0 0 1-.27.08zM30 44.81a.49.49 0 0 1-.42-.23L28 42a.5.5 0 0 1 .15-.69.49.49 0 0 1 .69.16l1.59 2.54a.5.5 0 0 1-.15.69.54.54 0 0 1-.28.11zm-3.18-5.08a.52.52 0 0 1-.43-.24L24.84 37a.51.51 0 0 1 .16-.69.49.49 0 0 1 .69.16L27.28 39a.51.51 0 0 1-.42.77zm-3.18-5.09a.51.51 0 0 1-.43-.23l-1.59-2.55a.5.5 0 0 1 .16-.69.51.51 0 0 1 .69.16l1.59 2.55a.48.48 0 0 1-.16.68.42.42 0 0 1-.22.08zm-3.19-5.09a.49.49 0 0 1-.42-.23l-1.59-2.54a.5.5 0 0 1 .85-.53l1.59 2.54a.51.51 0 0 1-.16.69.52.52 0 0 1-.23.07zm-3.18-5.08a.49.49 0 0 1-.42-.24l-1.55-2.54a.5.5 0 1 1 .84-.53l1.59 2.54a.5.5 0 0 1-.15.69.56.56 0 0 1-.27.08zm-3.18-5.09a.51.51 0 0 1-.43-.23l-1.55-2.55a.5.5 0 0 1 .85-.53l1.59 2.55a.49.49 0 0 1-.16.69.48.48 0 0 1-.26.07zM11 14.29a.51.51 0 0 1-.43-.23l-1.64-2.54a.5.5 0 0 1 .85-.52l1.59 2.54a.49.49 0 0 1-.16.69.48.48 0 0 1-.21.06zM7.76 9.21A.48.48 0 0 1 7.34 9L5.75 6.43a.49.49 0 0 1 .16-.69.5.5 0 0 1 .69.16l1.59 2.54a.51.51 0 0 1-.19.69.53.53 0 0 1-.24.08z"/><ellipse cx="5.44" cy="5.44" rx="5.44" ry="5.44"/><ellipse cx="54.42" cy="81.54" rx="5.44" ry="5.44"/><ellipse cx="54.42" cy="157.65" rx="5.44" ry="5.44"/><ellipse cx="160.54" cy="125.03" rx="5.44" ry="5.44"/></svg>