<svg xmlns="http://www.w3.org/2000/svg" viewBox="0 0 182.32 293.56"><path d="M4.15 289l.41-3.93a.5.5 0 0 1 1 .11l-.15 1.36a.71.71 0 0 1 .15.08.51.51 0 0 1 .05.71zm3.05-3.76a.52.52 0 0 1-.33-.12.51.51 0 0 1 0-.71l2-2.26a.49.49 0 0 1 .7-.05.51.51 0 0 1 .05.71l-2 2.26a.52.52 0 0 1-.42.18zm-1.82-2.6a.5.5 0 0 1-.45-.55l.32-3a.49.49 0 0 1 .55-.45.5.5 0 0 1 .44.55l-.31 3a.51.51 0 0 1-.55.46zm5.77-1.92a.5.5 0 0 1-.33-.12.51.51 0 0 1-.05-.71l2-2.26a.5.5 0 1 1 .76.66l-2 2.26a.5.5 0 0 1-.38.18zm-5.14-4H6a.5.5 0 0 1-.45-.55l.32-3a.5.5 0 0 1 1 .11l-.32 3a.51.51 0 0 1-.55.41zm9.08-.48a.54.54 0 0 1-.33-.12.51.51 0 0 1 0-.71l2-2.26a.49.49 0 0 1 .7-.05.51.51 0 0 1 .05.71l-2 2.26a.52.52 0 0 1-.42.14zm3.91-4.55a.5.5 0 0 1-.33-.12.51.51 0 0 1-.05-.71l2-2.26a.5.5 0 0 1 .76.66l-2 2.26a.5.5 0 0 1-.38.17zm-12.39-1h-.02a.5.5 0 0 1-.44-.55l.31-3a.49.49 0 0 1 .55-.44.5.5 0 0 1 .45.55l-.32 3a.5.5 0 0 1-.49.47zM23 267.17a.54.54 0 0 1-.33-.12.5.5 0 0 1 0-.71l2-2.26a.49.49 0 0 1 .7-.05.51.51 0 0 1 0 .71l-2 2.26a.52.52 0 0 1-.37.17zm-15.7-2.42a.5.5 0 0 1-.45-.55l.32-3a.5.5 0 0 1 .55-.45.5.5 0 0 1 .44.55l-.31 3a.51.51 0 0 1-.57.45zm19.65-2.1a.5.5 0 0 1-.33-.12.51.51 0 0 1-.05-.71l2-2.26a.5.5 0 1 1 .76.66l-2 2.26a.48.48 0 0 1-.4.17zm-19-3.86a.49.49 0 0 1-.44-.55l.31-3a.48.48 0 0 1 .55-.44.5.5 0 0 1 .45.55l-.32 3a.5.5 0 0 1-.59.44zm23-.66a.54.54 0 0 1-.33-.12.5.5 0 0 1 0-.71l2-2.26a.49.49 0 0 1 .7 0 .51.51 0 0 1 0 .71l-2 2.26a.52.52 0 0 1-.45.12zm3.95-4.52a.46.46 0 0 1-.33-.13.49.49 0 0 1-.05-.7l2-2.26a.5.5 0 0 1 .76.66l-2 2.26a.48.48 0 0 1-.46.17zm-26.27-.79h-.14a.5.5 0 0 1-.44-.55l.32-3a.49.49 0 0 1 .55-.44.5.5 0 0 1 .44.55l-.32 3a.49.49 0 0 1-.49.44zm30.21-3.73a.5.5 0 0 1-.33-.13.5.5 0 0 1 0-.7l2-2.26a.49.49 0 0 1 .7-.05.51.51 0 0 1 0 .71l-2 2.26a.52.52 0 0 1-.45.17zm-29.66-2.24a.5.5 0 0 1-.45-.55l.32-3a.5.5 0 0 1 .55-.45.5.5 0 0 1 .44.55l-.31 3a.51.51 0 0 1-.55.45zm33.53-2.28a.46.46 0 0 1-.33-.13.49.49 0 0 1-.05-.7l2-2.26a.5.5 0 0 1 .76.66l-2 2.26a.52.52 0 0 1-.38.17zm-32.9-3.68h-.05a.5.5 0 0 1-.44-.55l.31-3a.49.49 0 0 1 .55-.44.5.5 0 0 1 .45.55l-.32 3a.5.5 0 0 1-.5.44zm36.84-.84a.45.45 0 0 1-.32-.13.49.49 0 0 1 0-.7l2-2.26a.5.5 0 1 1 .75.65l-2 2.27a.52.52 0 0 1-.43.17zm4-4.52a.53.53 0 0 1-.33-.13.49.49 0 0 1-.05-.7l.47-.54 1.77-1.56a.49.49 0 0 1 .7.05.5.5 0 0 1 0 .7l-1.72 1.51-.42.49a.49.49 0 0 1-.47.18zm-40.15-.61h-.06a.5.5 0 0 1-.44-.55l.32-3a.49.49 0 0 1 .55-.45.5.5 0 0 1 .44.55l-.32 3a.49.49 0 0 1-.54.45zM55 231.5a.52.52 0 0 1-.38-.17.51.51 0 0 1 .05-.71l2.25-2a.51.51 0 0 1 .71 0 .51.51 0 0 1-.05.71l-2.25 2a.48.48 0 0 1-.33.17zm-44-2.55a.5.5 0 0 1-.45-.55l.32-3a.5.5 0 0 1 .55-.45.5.5 0 0 1 .44.55l-.31 3a.51.51 0 0 1-.47.5zm48.46-1.42a.46.46 0 0 1-.37-.17.5.5 0 0 1 0-.7l2.26-2a.5.5 0 0 1 .7 0 .51.51 0 0 1 0 .71l-2.26 2a.5.5 0 0 1-.25.16zm4.51-4a.52.52 0 0 1-.38-.17.49.49 0 0 1 0-.7l2.25-2a.5.5 0 0 1 .71 0 .51.51 0 0 1-.05.71l-2.25 2a.52.52 0 0 1-.2.2zM11.71 223h-.05a.49.49 0 0 1-.44-.55l.31-3a.49.49 0 0 1 .55-.44.5.5 0 0 1 .45.55l-.32 3a.5.5 0 0 1-.5.44zm56.84-3.38a.5.5 0 0 1-.33-.88l2.26-2a.49.49 0 0 1 .7.05.5.5 0 0 1 0 .7l-2.26 2a.46.46 0 0 1-.37.12zM12.35 217h-.06a.5.5 0 0 1-.44-.55l.32-3a.49.49 0 0 1 .55-.45.5.5 0 0 1 .44.55l-.32 3a.49.49 0 0 1-.49.45zm60.71-1.37a.52.52 0 0 1-.38-.17.51.51 0 0 1 0-.71l2.25-2a.51.51 0 0 1 .71.05.49.49 0 0 1 0 .7l-2.25 2a.46.46 0 0 1-.33.15zm4.51-4a.49.49 0 0 1-.33-.87l2.25-2a.5.5 0 0 1 .66.75l-2.25 2a.54.54 0 0 1-.33.17zM13 211.06h-.05a.5.5 0 0 1-.45-.55l.32-3a.5.5 0 1 1 1 .1l-.31 3a.52.52 0 0 1-.51.45zm69.09-3.34a.5.5 0 0 1-.33-.87l2.25-2a.5.5 0 0 1 .71 0 .51.51 0 0 1 0 .71l-2.25 2a.5.5 0 0 1-.4.16zm-68.46-2.63a.5.5 0 0 1-.44-.55l.31-3a.49.49 0 0 1 .55-.44.5.5 0 0 1 .45.55l-.32 3a.5.5 0 0 1-.57.44zm73-1.33a.52.52 0 0 1-.38-.17.49.49 0 0 1 0-.7l2.25-2a.49.49 0 0 1 .7 0 .48.48 0 0 1 0 .7l-2.25 2a.54.54 0 0 1-.37.17zm4.5-4a.5.5 0 0 1-.33-.88l2.25-2a.51.51 0 0 1 .71.05.49.49 0 0 1 0 .7l-2.25 2a.46.46 0 0 1-.43.17zm-76.83-.68h-.06a.5.5 0 0 1-.44-.55l.11-1 1.52-1.75a.5.5 0 0 1 .76.66L14.82 198l-.08.68a.49.49 0 0 1-.49.44zm81.34-3.28a.52.52 0 0 1-.38-.17.51.51 0 0 1 .05-.71l2.25-2a.5.5 0 0 1 .7 0 .5.5 0 0 1 0 .71l-2.25 2a.55.55 0 0 1-.42.21zm-77.91-1.4a.49.49 0 0 1-.32-.12.51.51 0 0 1-.05-.71l2-2.25a.51.51 0 0 1 .71 0 .49.49 0 0 1 .05.7l-2 2.26a.48.48 0 0 1-.39.12zm82.36-2.53a.5.5 0 0 1-.37-.17.5.5 0 0 1 0-.7l2.26-2a.48.48 0 0 1 .7 0 .51.51 0 0 1 0 .71l-2.26 2a.5.5 0 0 1-.33.16zm-78.41-2a.5.5 0 0 1-.33-.13.5.5 0 0 1 0-.7l2-2.26a.51.51 0 0 1 .71-.05.5.5 0 0 1 0 .71l-2 2.26a.52.52 0 0 1-.38.19zm82.92-2a.52.52 0 0 1-.38-.17.49.49 0 0 1 0-.7l2.25-2a.51.51 0 0 1 .71 0 .49.49 0 0 1 0 .7l-2.25 2a.52.52 0 0 1-.33.21zm-79-2.54a.5.5 0 0 1-.37-.83l2-2.26a.5.5 0 1 1 .75.66l-2 2.26a.52.52 0 0 1-.35.21zm83.5-1.33a.5.5 0 0 1-.37-.17.51.51 0 0 1 0-.71l2.26-2a.49.49 0 0 1 .7 0 .5.5 0 0 1 0 .7l-2.26 2a.46.46 0 0 1-.33.18zm-79.52-3.1a.52.52 0 0 1-.33-.12.5.5 0 0 1 0-.71l2-2.26a.51.51 0 0 1 .71 0 .5.5 0 0 1 0 .7l-2 2.26a.52.52 0 0 1-.38.08zm84-.86a.52.52 0 0 1-.38-.17.51.51 0 0 1 0-.71l2.25-2a.51.51 0 0 1 .71 0 .51.51 0 0 1 0 .71l-2.25 2a.53.53 0 0 1-.3.13zm-80.08-3.66a.52.52 0 0 1-.33-.12.49.49 0 0 1-.05-.7l2-2.26a.5.5 0 1 1 .75.65l-2 2.26a.48.48 0 0 1-.34.12zm84.58-.31a.48.48 0 0 1-.37-.17.5.5 0 0 1 0-.7l2.26-2a.49.49 0 0 1 .7 0 .51.51 0 0 1 0 .71l-2.26 2a.5.5 0 0 1-.3.09zm4.51-4a.5.5 0 0 1-.33-.87l2.25-2a.51.51 0 0 1 .71.05.49.49 0 0 1 0 .7l-2.25 2a.5.5 0 0 1-.35.11zm-85.14-.24a.48.48 0 0 1-.33-.13.49.49 0 0 1 0-.7l2-2.26a.49.49 0 0 1 .7 0 .51.51 0 0 1 0 .71l-2 2.26a.52.52 0 0 1-.34.11zm89.65-3.72a.52.52 0 0 1-.38-.17.51.51 0 0 1 0-.71l2.25-2a.49.49 0 0 1 .7 0 .48.48 0 0 1 0 .7l-2.25 2a.5.5 0 0 1-.29.17zm-85.7-.8a.5.5 0 0 1-.33-.12.51.51 0 0 1-.05-.71l2-2.26a.49.49 0 0 1 .7-.05.51.51 0 0 1 .05.71l-2 2.26a.48.48 0 0 1-.34.16zm90.2-3.16a.48.48 0 0 1-.37-.17.5.5 0 0 1 0-.71l2.25-2a.51.51 0 0 1 .71 0 .51.51 0 0 1 0 .71L132 164a.46.46 0 0 1-.37.14zm-86.25-1.36a.5.5 0 0 1-.33-.12.51.51 0 0 1 0-.71l2-2.26a.5.5 0 0 1 .7 0 .49.49 0 0 1 0 .7l-2 2.26a.5.5 0 0 1-.34.12zm90.76-2.61a.48.48 0 0 1-.38-.17.49.49 0 0 1 .05-.7l2.25-2a.51.51 0 0 1 .71 0 .51.51 0 0 1-.05.71l-2.25 2a.54.54 0 0 1-.3.15zm-86.81-1.9a.51.51 0 0 1-.33-.13.49.49 0 0 1 0-.7l2-2.26a.5.5 0 1 1 .76.66l-2 2.25a.47.47 0 0 1-.4.17zm91.31-2.06a.5.5 0 0 1-.37-.17.5.5 0 0 1 0-.7l2.25-2a.51.51 0 0 1 .71.05.49.49 0 0 1-.05.7l-2.25 2a.5.5 0 0 1-.26.11zm-87.36-2.46a.46.46 0 0 1-.33-.13.49.49 0 0 1-.05-.7l2-2.26a.5.5 0 0 1 .76.66l-2 2.26a.51.51 0 0 1-.35.16zm91.87-1.5a.52.52 0 0 1-.38-.17.51.51 0 0 1 0-.71l2.25-2a.51.51 0 0 1 .71.05.49.49 0 0 1-.05.7l-2.25 2a.5.5 0 0 1-.25.12zm-87.93-3a.49.49 0 0 1-.32-.12.51.51 0 0 1 0-.71l2-2.26a.5.5 0 0 1 .76.66l-2 2.26a.52.52 0 0 1-.41.14zm92.43-.94a.5.5 0 0 1-.37-.17.51.51 0 0 1 0-.71l2.26-2a.5.5 0 0 1 .7 0 .51.51 0 0 1 0 .71l-2.26 2a.46.46 0 0 1-.3.14zm-88.48-3.58a.54.54 0 0 1-.33-.12.51.51 0 0 1 0-.71l2-2.25a.51.51 0 0 1 .71 0 .48.48 0 0 1 0 .7l-2 2.26a.48.48 0 0 1-.35.09zm93-.39a.48.48 0 0 1-.38-.17.49.49 0 0 1 .05-.7l2.25-2a.51.51 0 0 1 .71 0 .51.51 0 0 1 0 .71l-2.25 2a.52.52 0 0 1-.36.13zm4.5-4a.51.51 0 0 1-.37-.17.5.5 0 0 1 0-.7l2.26-2a.49.49 0 0 1 .7.05.51.51 0 0 1 0 .71l-2.26 2a.5.5 0 0 1-.31.12zm-93.54-.16a.5.5 0 0 1-.37-.83l2-2.26a.51.51 0 0 1 .71-.05.51.51 0 0 1 0 .71l-2 2.25a.49.49 0 0 1-.32.19zm98-3.8a.48.48 0 0 1-.37-.17.5.5 0 0 1 0-.71l2.25-2a.51.51 0 0 1 .71.05.49.49 0 0 1-.05.7l-2.25 2a.46.46 0 0 1-.22.14zm-94.1-.72a.52.52 0 0 1-.33-.12.51.51 0 0 1 0-.71l2-2.26a.51.51 0 0 1 .71-.05.51.51 0 0 1 0 .71l-2 2.26a.52.52 0 0 1-.31.18zm98.6-3.24a.5.5 0 0 1-.33-.88l2.26-2a.5.5 0 0 1 .66.75l-2.25 2a.5.5 0 0 1-.27.14zM73 131.16a.52.52 0 0 1-.33-.12.51.51 0 0 1 0-.71l2-2.26a.5.5 0 0 1 .75.66l-2 2.26a.52.52 0 0 1-.42.17zm99.16-2.69a.45.45 0 0 1-.37-.17.48.48 0 0 1 0-.7l2.25-2a.51.51 0 0 1 .71 0 .51.51 0 0 1-.05.71l-2.25 2a.5.5 0 0 1-.27.16zM77 126.64a.52.52 0 0 1-.33-.12.51.51 0 0 1 0-.71l2-2.25a.5.5 0 0 1 .75.65l-2 2.26a.48.48 0 0 1-.42.17zm98.83-2.13a.5.5 0 0 1-.33-.12l-2.25-2a.51.51 0 0 1-.05-.71.51.51 0 0 1 .71 0l2.25 2a.49.49 0 0 1 0 .7.51.51 0 0 1-.36.13zm-94.88-2.38a.46.46 0 0 1-.33-.13.49.49 0 0 1 0-.7l2-2.26a.49.49 0 0 1 .7-.05.51.51 0 0 1 0 .71l-2 2.26a.48.48 0 0 1-.4.17zm90.38-1.59a.46.46 0 0 1-.33-.13l-2.25-2a.5.5 0 0 1 0-.71.48.48 0 0 1 .7 0l2.25 2a.51.51 0 0 1 .05.71.52.52 0 0 1-.45.13zm-86.43-2.93a.5.5 0 0 1-.33-.12.51.51 0 0 1-.05-.71l2-2.26a.49.49 0 0 1 .7 0 .51.51 0 0 1 0 .71l-2 2.26a.48.48 0 0 1-.35.12zm81.93-1a.54.54 0 0 1-.33-.12l-2.24-2a.49.49 0 0 1 0-.7.51.51 0 0 1 .71 0l2.25 2a.51.51 0 0 1 0 .71.51.51 0 0 1-.42.06zm-78-3.47a.5.5 0 0 1-.33-.12.51.51 0 0 1 0-.71l2-2.26a.51.51 0 0 1 .71 0 .49.49 0 0 1 0 .7l-2 2.26a.5.5 0 0 1-.39.08zm73.49-.5a.5.5 0 0 1-.33-.12l-2.25-2a.5.5 0 0 1 0-.71.5.5 0 0 1 .7 0l2.25 2a.48.48 0 0 1 0 .7.46.46 0 0 1-.38.08zm-4.5-4a.48.48 0 0 1-.33-.13l-2.25-2a.51.51 0 0 1 0-.71.5.5 0 0 1 .71 0l2.24 2a.51.51 0 0 1 .05.71.52.52 0 0 1-.43.11zm-65 0a.5.5 0 0 1-.32-.13.49.49 0 0 1 0-.7l2-2.26a.5.5 0 0 1 .76.66l-2 2.25a.49.49 0 0 1-.5.12zm60.56-3.93a.51.51 0 0 1-.33-.13l-2.25-2a.5.5 0 1 1 .66-.74l2.25 2a.5.5 0 0 1-.33.88zm-56.61-.59a.5.5 0 0 1-.33-.13.5.5 0 0 1 0-.7L98 101.3l-.61-.68a.5.5 0 1 1 .74-.66l.91 1a.61.61 0 0 1 .07.1.5.5 0 0 1 .06.24.58.58 0 0 1 0 .19.35.35 0 0 1-.08.13l-2 2.26a.52.52 0 0 1-.38.18zm4.5-2.75a.51.51 0 0 1-.49-.4.5.5 0 0 1 .4-.59l2.95-.57a.5.5 0 0 1 .19 1l-3 .57zm47.61-.64a.5.5 0 0 1-.33-.12l-2.25-2a.48.48 0 0 1 0-.7.49.49 0 0 1 .7 0l2.25 2a.49.49 0 0 1 0 .7.48.48 0 0 1-.43.06zm-41.71-.5a.49.49 0 0 1-.49-.4.49.49 0 0 1 .39-.59l2.95-.57a.5.5 0 0 1 .58.4.49.49 0 0 1-.39.58l-3 .57zM113 99a.49.49 0 0 1-.49-.4.49.49 0 0 1 .39-.59l2.95-.57a.5.5 0 0 1 .58.4.48.48 0 0 1-.39.58l-3 .57zm-17.23-.47a.49.49 0 0 1-.37-.16l-2-2.23a.5.5 0 0 1 0-.71.49.49 0 0 1 .7 0l2 2.23a.49.49 0 0 1 0 .7.5.5 0 0 1-.33.2zm23.12-.67a.49.49 0 0 1-.49-.4.5.5 0 0 1 .39-.59l2.95-.57a.5.5 0 0 1 .58.4.48.48 0 0 1-.39.58l-3 .57zm5.89-1.14a.49.49 0 0 1-.49-.4.51.51 0 0 1 .39-.59l2.95-.57a.52.52 0 0 1 .59.4.51.51 0 0 1-.4.59l-2.95.57zm19.54 0a.5.5 0 0 1-.33-.13l-2.24-2a.5.5 0 1 1 .66-.75l2.25 2a.5.5 0 0 1 0 .7.52.52 0 0 1-.34.16zm-13.65-1.08a.5.5 0 0 1-.49-.41.49.49 0 0 1 .4-.58l2.94-.57a.5.5 0 0 1 .59.39.51.51 0 0 1-.4.59l-3 .57zm5.89-1.14a.51.51 0 0 1-.49-.41.49.49 0 0 1 .4-.58l2.94-.57a.5.5 0 0 1 .59.39.51.51 0 0 1-.4.59l-2.94.57zm-44.8-.38a.51.51 0 0 1-.38-.16l-2-2.23a.5.5 0 1 1 .74-.67l2 2.23a.5.5 0 0 1-.37.83zm-4-4.45a.5.5 0 0 1-.37-.17l-2-2.23a.48.48 0 0 1 0-.7.49.49 0 0 1 .7 0l2 2.23a.5.5 0 0 1 0 .71.51.51 0 0 1-.35.14zm-4-4.46a.51.51 0 0 1-.37-.17l-2-2.23a.49.49 0 0 1 0-.7.5.5 0 0 1 .71 0l2 2.23a.5.5 0 0 1-.37.84zm-4-4.46a.52.52 0 0 1-.38-.17l-2-2.22a.5.5 0 0 1 0-.71.5.5 0 0 1 .71 0l2 2.23a.49.49 0 0 1 0 .7.46.46 0 0 1-.38.15zm-4-4.46a.49.49 0 0 1-.37-.16l-1.7-1.83.06-1a.5.5 0 0 1 .53-.47.5.5 0 0 1 .47.53v.56l1.35 1.5a.48.48 0 0 1 0 .7.46.46 0 0 1-.41.15zm-1.25-5.42a.49.49 0 0 1-.46-.53l.18-3a.49.49 0 0 1 .53-.47.5.5 0 0 1 .47.53l-.19 3a.49.49 0 0 1-.6.45zm.37-6a.49.49 0 0 1-.47-.53l.19-3a.51.51 0 0 1 .53-.47.52.52 0 0 1 .47.53l-.19 3a.5.5 0 0 1-.6.46zm.37-6a.49.49 0 0 1-.46-.53l.18-3a.5.5 0 0 1 1 .06l-.19 3a.5.5 0 0 1-.6.48zm.38-6a.5.5 0 0 1-.47-.53l.19-3a.5.5 0 0 1 .53-.47.52.52 0 0 1 .47.53l-.19 3a.51.51 0 0 1-.6.49zm.37-6a.52.52 0 0 1-.47-.53l.19-3a.5.5 0 0 1 .53-.46.49.49 0 0 1 .47.53l-.19 3a.49.49 0 0 1-.6.49zm.38-6a.5.5 0 0 1-.47-.53l.19-3a.5.5 0 1 1 1 .06l-.18 3a.5.5 0 0 1-.61.51zm.37-6a.51.51 0 0 1-.47-.53l.19-3a.5.5 0 0 1 .53-.47.5.5 0 0 1 .47.53l-.19 3a.49.49 0 0 1-.6.52zm.38-6a.49.49 0 0 1-.47-.53l.19-3a.5.5 0 1 1 1 .06l-.18 3a.5.5 0 0 1-.61.53zm.37-6a.52.52 0 0 1-.47-.54l.19-3a.51.51 0 0 1 .53-.47.5.5 0 0 1 .47.53l-.19 3a.5.5 0 0 1-.6.61zm.38-6a.5.5 0 0 1-.47-.53l.19-3a.5.5 0 1 1 1 .06l-.18 3a.51.51 0 0 1-.61.6zm.37-6a.52.52 0 0 1-.47-.53l.13-2 1.83-.16a.5.5 0 0 1 .09 1l-1 .08-.07 1.16a.5.5 0 0 1-.58.58zm4.49-2a.49.49 0 0 1-.49-.46.5.5 0 0 1 .38-.41l3-.26a.5.5 0 0 1 .09 1l-3 .26zm6-.52a.51.51 0 0 1-.5-.45.51.51 0 0 1 .46-.55l3-.26a.5.5 0 0 1 .09 1l-3 .26zm6-.52a.5.5 0 0 1 0-1l3-.26a.51.51 0 0 1 .54.45.5.5 0 0 1-.46.54l-3 .26zm6-.52a.5.5 0 0 1 0-1l3-.26a.49.49 0 0 1 .54.45.48.48 0 0 1-.45.54l-3 .26zm6-.51a.5.5 0 0 1-.5-.46.49.49 0 0 1 .45-.54l3-.26a.49.49 0 0 1 .54.45.49.49 0 0 1-.45.54l-3 .26z"/><ellipse cx="111.57" cy="5.44" rx="5.44" ry="5.44"/><ellipse cx="78.91" cy="8.16" rx="5.44" ry="5.44"/><ellipse cx="73.47" cy="73.39" rx="5.44" ry="5.44"/><ellipse cx="97.96" cy="100.57" rx="5.44" ry="5.44"/><ellipse cx="141.5" cy="92.42" rx="5.44" ry="5.44"/><ellipse cx="176.87" cy="125.03" rx="5.44" ry="5.44"/><ellipse cx="16.33" cy="195.7" rx="5.44" ry="5.44"/><ellipse cx="5.44" cy="288.12" rx="5.44" ry="5.44"/><ellipse cx="51.7" cy="233.76" rx="5.44" ry="5.44"/></svg>