<svg xmlns="http://www.w3.org/2000/svg" viewBox="0 0 133.34 163.09"><path d="M68.76 158.88a.5.5 0 0 1-.26-.93l2.39-1.4a.5.5 0 1 1 .51.86l-2.4 1.4a.47.47 0 0 1-.24.07zm5-2.92a.5.5 0 0 1-.43-.25.51.51 0 0 1 .18-.69l2.59-1.51a.49.49 0 0 1 .68.17.51.51 0 0 1-.18.69l-2.6 1.52a.59.59 0 0 1-.27.11zm5.18-3a.51.51 0 0 1-.44-.25.49.49 0 0 1 .18-.68l2.59-1.52a.49.49 0 0 1 .68.17.51.51 0 0 1-.17.69l-2.59 1.52a.59.59 0 0 1-.28.03zm5.17-3a.5.5 0 0 1-.25-.93l2.58-1.52a.5.5 0 1 1 .51.86l-2.59 1.52a.55.55 0 0 1-.28-.01zm5.17-3a.5.5 0 0 1-.25-.93l2.59-1.52a.49.49 0 0 1 .68.17.51.51 0 0 1-.18.69l-2.59 1.52a.55.55 0 0 1-.28-.05zm5.17-3a.51.51 0 0 1-.43-.25.49.49 0 0 1 .18-.68l2.59-1.52a.49.49 0 0 1 .68.17.51.51 0 0 1-.18.69l-2.58 1.52a.59.59 0 0 1-.29-.09zm5.18-3a.5.5 0 0 1-.26-.93l2.59-1.52a.49.49 0 0 1 .68.17.5.5 0 0 1-.17.69l-2.59 1.52a.59.59 0 0 1-.28-.13zm5.17-3a.5.5 0 0 1-.25-.93l2.58-1.52a.5.5 0 1 1 .51.86l-2.64 1.28a.45.45 0 0 1-.23.07zm5.17-3a.51.51 0 0 1-.43-.25.49.49 0 0 1 .18-.68l2.59-1.52a.5.5 0 0 1 .5.86l-2.58 1.52a.48.48 0 0 1-.29-.21zm5.1-3.1H115a.51.51 0 0 1-.41-.58l.48-3a.5.5 0 0 1 1 .16l-.48 3a.49.49 0 0 1-.59.14zm.95-5.92h-.08a.49.49 0 0 1-.41-.57l.48-3a.5.5 0 1 1 1 .16l-.48 3a.5.5 0 0 1-.53.13zm1-5.92h-.08a.5.5 0 0 1-.42-.57l.48-3a.51.51 0 0 1 .58-.41.5.5 0 0 1 .41.57l-.48 3a.5.5 0 0 1-.51.13zm1-5.93h-.08a.51.51 0 0 1-.41-.58l.48-3a.49.49 0 0 1 .57-.41.51.51 0 0 1 .42.57l-.48 3a.5.5 0 0 1-.62.14zm1-5.92h-.08a.49.49 0 0 1-.41-.57l.47-3a.5.5 0 1 1 1 .16l-.48 3a.5.5 0 0 1-.66.13zm1-5.92h-.08a.5.5 0 0 1-.42-.57l.48-3a.5.5 0 0 1 .58-.41.5.5 0 0 1 .41.57l-.48 3a.5.5 0 0 1-.69.16zm1-5.93h-.08a.51.51 0 0 1-.41-.58l.48-3a.5.5 0 0 1 .57-.41.49.49 0 0 1 .41.57l-.47 3a.5.5 0 0 1-.75.1zm1-5.92h-.08a.49.49 0 0 1-.41-.57l.47-3a.5.5 0 1 1 1 .16l-.48 3a.5.5 0 0 1-.79.13zm1-5.92h-.08a.5.5 0 0 1-.42-.57l.48-3a.5.5 0 0 1 .57-.41.5.5 0 0 1 .42.57l-.48 3a.5.5 0 0 1-.82.13zM4.81 84.13a.52.52 0 0 1-.43-.24.51.51 0 0 1 .17-.69l2.58-1.54a.5.5 0 0 1 .68.17.49.49 0 0 1-.17.69l-2.57 1.54a.48.48 0 0 1-.26.07zM10 81.05a.5.5 0 0 1-.26-.93l2.57-1.54a.5.5 0 1 1 .52.85L10.21 81a.55.55 0 0 1-.21.05zm113.68-2.78h-.08a.5.5 0 0 1-.41-.58l.48-3a.5.5 0 0 1 .57-.41.49.49 0 0 1 .41.57l-.48 3a.49.49 0 0 1-.53.42zM15.11 78a.49.49 0 0 1-.43-.24.5.5 0 0 1 .17-.69l2.57-1.54a.51.51 0 0 1 .69.17.51.51 0 0 1-.18.69l-2.57 1.54a.47.47 0 0 1-.25.07zm5.14-3.08a.51.51 0 0 1-.43-.25A.5.5 0 0 1 20 74l2.58-1.54a.5.5 0 0 1 .51.85l-2.57 1.55a.59.59 0 0 1-.27.02zm104.35-2.57h-.08a.49.49 0 0 1-.41-.57l.47-3a.51.51 0 0 1 .58-.42.51.51 0 0 1 .41.58l-.48 3a.5.5 0 0 1-.49.41zm-99.2-.56a.49.49 0 0 1-.43-.24.5.5 0 0 1 .17-.69l2.57-1.54a.5.5 0 0 1 .52.86l-2.58 1.54a.45.45 0 0 1-.25.07zm5.14-3.08a.5.5 0 0 1-.25-.93l2.57-1.54a.5.5 0 1 1 .51.86l-2.57 1.54a.48.48 0 0 1-.26.07zm95-2.28h-.09a.5.5 0 0 1-.41-.57l.48-3a.5.5 0 0 1 .57-.42.5.5 0 0 1 .42.57l-.48 3a.5.5 0 0 1-.47.42zm-89.87-.81a.5.5 0 0 1-.26-.92L38 63.15a.5.5 0 0 1 .51.86L36 65.55a.48.48 0 0 1-.31.07zm5.15-3.08a.51.51 0 0 1-.43-.24.5.5 0 0 1 .17-.69l2.57-1.54a.5.5 0 0 1 .69.17.51.51 0 0 1-.17.69l-2.58 1.54a.47.47 0 0 1-.23.07zm85.67-2h-.08a.5.5 0 0 1-.41-.58l.48-3a.49.49 0 0 1 .57-.41.49.49 0 0 1 .41.57l-.47 3a.5.5 0 0 1-.48.38zm-80.73-1.26a.45.45 0 0 1-.16 0 .51.51 0 0 1-.31-.64l1-2.83a.5.5 0 0 1 .63-.31.51.51 0 0 1 .31.64l-1 2.83a.51.51 0 0 1-.47.31zm81.71-4.7h-.08A.51.51 0 0 1 127 54l.48-3a.5.5 0 1 1 1 .16l-.48 3a.5.5 0 0 1-.53.42zm-79.72-1a.51.51 0 0 1-.17 0 .5.5 0 0 1-.3-.64l1-2.83a.51.51 0 0 1 .64-.31.5.5 0 0 1 .3.64l-1 2.83a.49.49 0 0 1-.47.35zm80.67-5h-.08a.5.5 0 0 1-.41-.57l.15-.9-1.21-.8a.5.5 0 1 1 .55-.83l1.75 1.15-.25 1.54a.51.51 0 0 1-.5.49zM49.73 48a.45.45 0 0 1-.16 0 .5.5 0 0 1-.31-.63l1-2.83a.5.5 0 0 1 1 .33l-1 2.83a.5.5 0 0 1-.53.3zm74.91-3.13a.46.46 0 0 1-.27-.09l-2.51-1.65a.5.5 0 1 1 .55-.83l2.51 1.65a.5.5 0 0 1 .14.69.51.51 0 0 1-.42.18zm-72.92-2.58a.51.51 0 0 1-.17 0 .49.49 0 0 1-.3-.64l1-2.83a.48.48 0 0 1 .63-.3.5.5 0 0 1 .31.63l-1 2.84a.51.51 0 0 1-.47.3zm67.91-.78a.45.45 0 0 1-.27-.08l-2.51-1.65a.5.5 0 0 1-.14-.69.49.49 0 0 1 .69-.14l2.51 1.65a.5.5 0 0 1-.28.91zm-5-3.3a.45.45 0 0 1-.27-.08l-2.51-1.65a.5.5 0 0 1-.14-.69.49.49 0 0 1 .69-.14l2.51 1.65a.5.5 0 0 1 .09.7.52.52 0 0 1-.38.21zM53.7 36.63a.45.45 0 0 1-.16 0 .51.51 0 0 1-.31-.64l1-2.83a.5.5 0 0 1 1 .33l-1 2.83a.49.49 0 0 1-.53.31zm55.91-1.72a.45.45 0 0 1-.27-.08l-2.51-1.65a.5.5 0 0 1 .55-.84l2.51 1.66a.5.5 0 0 1 .14.69.52.52 0 0 1-.42.22zm-5-3.3a.53.53 0 0 1-.27-.08l-2.51-1.65a.5.5 0 0 1-.14-.69.49.49 0 0 1 .69-.15l2.51 1.65a.51.51 0 0 1 .14.7.52.52 0 0 1-.43.22zM55.69 31a.47.47 0 0 1-.17 0 .51.51 0 0 1-.31-.64l1-2.83a.5.5 0 0 1 .63-.31.51.51 0 0 1 .31.64l-1 2.83a.5.5 0 0 1-.46.31zm43.9-2.66a.53.53 0 0 1-.27-.08l-2.51-1.65a.51.51 0 0 1-.14-.7.5.5 0 0 1 .69-.14l2.51 1.65a.51.51 0 0 1 .14.7.52.52 0 0 1-.42.19zm-41.92-3a.51.51 0 0 1-.17 0 .49.49 0 0 1-.3-.63l1-2.83a.51.51 0 0 1 .64-.31.5.5 0 0 1 .3.64l-1 2.83a.5.5 0 0 1-.47.26zM94.58 25a.6.6 0 0 1-.28-.08l-2.5-1.65a.51.51 0 0 1-.14-.7.5.5 0 0 1 .69-.14l2.51 1.65a.5.5 0 0 1 .14.69.51.51 0 0 1-.42.23zm-5-3.3a.53.53 0 0 1-.27-.08L86.79 20a.51.51 0 0 1-.14-.7.5.5 0 0 1 .69-.14l2.51 1.65a.5.5 0 0 1 .14.69.51.51 0 0 1-.42.21zm-29.93-2.06a.45.45 0 0 1-.16 0 .5.5 0 0 1-.31-.64l1-2.83a.5.5 0 0 1 .64-.3.5.5 0 0 1 .31.63l-1 2.84a.52.52 0 0 1-.48.3zm24.91-1.23a.49.49 0 0 1-.28-.09l-2.5-1.65a.5.5 0 1 1 .55-.83l2.51 1.65a.5.5 0 0 1 .14.69.51.51 0 0 1-.42.23zm-5-3.3a.51.51 0 0 1-.28-.09l-2.5-1.65a.49.49 0 0 1-.14-.69.5.5 0 0 1 .69-.14l2.51 1.65a.5.5 0 0 1 .14.69.51.51 0 0 1-.43.23zM61.64 14a.51.51 0 0 1-.17 0 .49.49 0 0 1-.3-.64l1-2.83a.5.5 0 1 1 .94.33l-1 2.83a.5.5 0 0 1-.47.31zm12.9-2.17a.49.49 0 0 1-.28-.09l-2.5-1.65a.49.49 0 0 1-.14-.69.5.5 0 0 1 .69-.14l2.5 1.65a.49.49 0 0 1 .15.69.51.51 0 0 1-.42.21zm-5-3.31a.48.48 0 0 1-.28-.08l-2.5-1.65a.49.49 0 0 1-.14-.69.5.5 0 0 1 .69-.14l2.5 1.65a.49.49 0 0 1-.27.91zm-5.91-.18a.45.45 0 0 1-.16 0 .51.51 0 0 1-.31-.64l1-2.83a.5.5 0 0 1 1 .33L64.09 8a.49.49 0 0 1-.47.32z"/><ellipse cx="5.44" cy="84.26" rx="5.44" ry="5.44"/><ellipse cx="46.26" cy="57.08" rx="5.44" ry="5.44"/><ellipse cx="65.31" cy="5.44" rx="5.44" ry="5.44"/><ellipse cx="127.89" cy="46.21" rx="5.44" ry="5.44"/><ellipse cx="114.29" cy="130.47" rx="5.44" ry="5.44"/><ellipse cx="70.75" cy="157.65" rx="5.44" ry="5.44"/></svg>