<svg xmlns="http://www.w3.org/2000/svg" viewBox="0 0 234.02 347.92"><path d="M227.9 342.31a.49.49 0 0 1-.38-.18l-2-2.27a.5.5 0 0 1 .76-.65l2 2.27a.51.51 0 0 1-.05.71.52.52 0 0 1-.33.12zm-2.9-.11l-3-.15a.5.5 0 0 1-.47-.53.47.47 0 0 1 .52-.47l3 .15a.5.5 0 0 1 .47.53.5.5 0 0 1-.52.47zm-6-.3l-3-.15a.49.49 0 0 1-.47-.52.48.48 0 0 1 .52-.48l3 .16a.5.5 0 0 1 0 1zm-6-.31l-3-.15a.51.51 0 0 1-.48-.53.48.48 0 0 1 .53-.47l3 .15a.5.5 0 0 1 .48.53.51.51 0 0 1-.53.47zm-6-.31l-3-.15a.5.5 0 0 1-.47-.52.48.48 0 0 1 .53-.48l3 .16a.5.5 0 0 1 .48.52.5.5 0 0 1-.54.47zm-6-.3l-3-.15a.5.5 0 0 1-.47-.53.47.47 0 0 1 .52-.47l3 .15a.49.49 0 0 1 .47.53.5.5 0 0 1-.52.49zm-6-.31l-3-.15a.49.49 0 0 1-.47-.52.47.47 0 0 1 .52-.48l3 .16a.5.5 0 0 1 0 1zm-6-.3l-3-.15a.51.51 0 0 1-.48-.53.47.47 0 0 1 .53-.47l3 .15a.5.5 0 0 1 .48.52.51.51 0 0 1-.48.48zm-6-.31l-3-.15a.5.5 0 0 1-.48-.52.48.48 0 0 1 .53-.48l3 .15a.51.51 0 0 1 .48.53.5.5 0 0 1-.47.47zm-6-.3l-3-.16a.49.49 0 0 1-.47-.52.46.46 0 0 1 .52-.47l3 .15a.49.49 0 0 1 .47.52.5.5 0 0 1-.46.48zm-6-.31l-3-.15a.5.5 0 0 1-.47-.53.47.47 0 0 1 .52-.47l3 .15a.5.5 0 0 1 .47.53.49.49 0 0 1-.45.47zm-6-.3l-3-.16a.5.5 0 0 1-.48-.52.47.47 0 0 1 .53-.47l3 .15a.5.5 0 0 1 0 1zm-6-.31l-3-.15a.51.51 0 0 1-.48-.53.47.47 0 0 1 .53-.47l3 .15a.5.5 0 0 1 0 1zm-6-.3l-3-.16a.5.5 0 0 1-.47-.52.48.48 0 0 1 .53-.48l3 .16a.49.49 0 0 1 .47.52.5.5 0 0 1-.43.48zm-6-.31l-3-.15a.5.5 0 0 1-.47-.53.46.46 0 0 1 .52-.47l3 .15a.5.5 0 0 1 .47.53.5.5 0 0 1-.42.47zm-6-.3l-3-.15a.49.49 0 0 1-.47-.52.46.46 0 0 1 .52-.48l3 .16a.5.5 0 0 1 0 1zm82.87-.17a.48.48 0 0 1-.38-.17l-2-2.27a.51.51 0 0 1 .06-.71.49.49 0 0 1 .7.06l2 2.27a.49.49 0 0 1-.38.82zm-88.86-.14l-3-.15a.51.51 0 0 1-.48-.53.47.47 0 0 1 .53-.47l3 .15a.5.5 0 0 1 .48.52.51.51 0 0 1-.42.48zm-6-.31l-3-.15a.5.5 0 0 1-.48-.52.47.47 0 0 1 .53-.48l3 .16a.5.5 0 0 1 .48.52.5.5 0 0 1-.41.47zm-6-.3l-3-.15a.51.51 0 0 1-.47-.53.47.47 0 0 1 .52-.47l3 .15a.49.49 0 0 1 .47.52.5.5 0 0 1-.4.47zm-6-.31l-3-.15a.49.49 0 0 1-.47-.52.48.48 0 0 1 .52-.48l3 .15a.5.5 0 0 1 .47.53.49.49 0 0 1-.39.47zm-6-.3l-3-.16a.5.5 0 1 1 .05-1l3 .15a.5.5 0 0 1 0 1zm-6-.31l-3-.15a.5.5 0 1 1 0-1l3 .15a.51.51 0 0 1 .48.53.5.5 0 0 1-.33.47zm-6-.3l-3-.16a.49.49 0 0 1-.47-.52.48.48 0 0 1 .53-.47l3 .15a.5.5 0 0 1 .48.52.51.51 0 0 1-.38.48zm-6-.23h-3a.51.51 0 0 1-.5-.5.5.5 0 0 1 .5-.5h3a.5.5 0 0 1 .5.5.5.5 0 0 1-.34.5zm-6 0h-3a.51.51 0 0 1-.5-.5.5.5 0 0 1 .5-.5h3a.5.5 0 0 1 .5.5.5.5 0 0 1-.34.5zm-6 0h-3a.51.51 0 0 1-.5-.5.5.5 0 0 1 .5-.5h3a.5.5 0 0 1 .5.5.5.5 0 0 1-.34.5zm-6 0h-3a.51.51 0 0 1-.5-.5.5.5 0 0 1 .5-.5h3a.5.5 0 0 1 .5.5.5.5 0 0 1-.34.5zm-6 0h-3a.51.51 0 0 1-.5-.5.5.5 0 0 1 .5-.5h3a.5.5 0 0 1 .5.5.5.5 0 0 1-.34.5zm-6 0h-3a.51.51 0 0 1-.5-.5.5.5 0 0 1 .5-.5h3a.5.5 0 0 1 .5.5.5.5 0 0 1-.34.5zm-6 0h-3a.51.51 0 0 1-.5-.5.5.5 0 0 1 .5-.5h3a.5.5 0 0 1 .5.5.5.5 0 0 1-.34.5zm-6 0h-3a.51.51 0 0 1-.5-.5.5.5 0 0 1 .5-.5h3a.5.5 0 0 1 .5.5.5.5 0 0 1-.34.5zm-6 0h-3a.51.51 0 0 1-.5-.5.5.5 0 0 1 .5-.5h3a.5.5 0 0 1 .5.5.5.5 0 0 1-.34.5zm-6 0h-3a.51.51 0 0 1-.5-.5.5.5 0 0 1 .5-.5h3a.5.5 0 0 1 .5.5.5.5 0 0 1-.34.5zm-6 0h-3a.51.51 0 0 1-.5-.5.5.5 0 0 1 .5-.5h3a.5.5 0 0 1 .5.5.5.5 0 0 1-.34.5zm-6 0h-3a.51.51 0 0 1-.5-.5.5.5 0 0 1 .5-.5h3a.5.5 0 0 1 .5.5.5.5 0 0 1-.34.5zm-6 0h-3a.51.51 0 0 1-.5-.5.5.5 0 0 1 .5-.5h3a.5.5 0 0 1 .5.5.5.5 0 0 1-.34.5zm-6 0h-3a.51.51 0 0 1-.5-.5.5.5 0 0 1 .5-.5h3a.5.5 0 0 1 .5.5.5.5 0 0 1-.34.5zm-6 0h-3a.51.51 0 0 1-.5-.5.5.5 0 0 1 .5-.5h3a.5.5 0 0 1 .5.5.5.5 0 0 1-.34.5zm210.89-2.34a.5.5 0 0 1-.37-.17l-2-2.28a.5.5 0 0 1 .75-.65l2 2.27a.51.51 0 0 1-.05.71.5.5 0 0 1-.17.12zm-3.92-4.54a.47.47 0 0 1-.37-.18l-2-2.27a.5.5 0 1 1 .75-.65l2 2.27a.51.51 0 0 1-.05.71.5.5 0 0 1-.17.12zm-3.91-4.55a.47.47 0 0 1-.38-.17l-2-2.27a.51.51 0 0 1 .05-.71.52.52 0 0 1 .71.06l1.95 2.27a.49.49 0 0 1-.37.82zm-3.92-4.54a.52.52 0 0 1-.38-.17l-2-2.27a.5.5 0 1 1 .76-.66l2 2.28a.5.5 0 0 1-.38.82zm-3.92-4.54a.49.49 0 0 1-.38-.18l-2-2.27a.49.49 0 0 1 0-.7.51.51 0 0 1 .71.05l2 2.27a.51.51 0 0 1-.06.71.49.49 0 0 1-.11.12zm-3.92-4.55a.48.48 0 0 1-.38-.17l-2-2.27a.51.51 0 0 1 .05-.71.52.52 0 0 1 .71.06l2 2.27a.5.5 0 0 1-.38.82zm-3.76-4.5a.52.52 0 0 1-.38-.17l-2-2.27a.5.5 0 0 1 .76-.66l2 2.28a.5.5 0 0 1-.05.7.52.52 0 0 1-.33.12zm-3.92-4.54a.49.49 0 0 1-.38-.18l-2-2.27a.49.49 0 0 1 .05-.7.51.51 0 0 1 .71.05l2 2.27a.51.51 0 0 1 0 .71.52.52 0 0 1-.38.08zm-3.92-4.54a.49.49 0 0 1-.38-.18l-2-2.27a.51.51 0 0 1 0-.71.52.52 0 0 1 .71.06l2 2.27a.49.49 0 0 1-.05.7.48.48 0 0 1-.28.09zm-3.92-4.55a.52.52 0 0 1-.38-.17l-2-2.27a.51.51 0 0 1 .06-.71.49.49 0 0 1 .7.05l2 2.28a.49.49 0 0 1 0 .7.52.52 0 0 1-.38.08zm-3.92-4.54a.49.49 0 0 1-.38-.18l-2-2.27a.5.5 0 0 1 .76-.65l2 2.27a.51.51 0 0 1-.05.71.5.5 0 0 1-.33.08zm-3.87-4.58a.49.49 0 0 1-.38-.18l-1.95-2.27a.5.5 0 1 1 .75-.65l2 2.27a.49.49 0 0 1-.05.7.46.46 0 0 1-.37.13zm-4-4.55a.48.48 0 0 1-.37-.17l-2-2.27a.51.51 0 0 1 .05-.71.49.49 0 0 1 .7.05l2 2.28a.49.49 0 0 1-.38.82zm-3.91-4.54a.52.52 0 0 1-.38-.17l-2-2.28a.5.5 0 0 1 .75-.65l2 2.27a.51.51 0 0 1-.05.71.49.49 0 0 1-.29.12zm-3.92-4.54a.49.49 0 0 1-.38-.18l-2-2.27a.49.49 0 0 1 0-.7.51.51 0 0 1 .71 0l2 2.27a.5.5 0 0 1-.06.7.45.45 0 0 1-.24.18zm-3.92-4.55a.52.52 0 0 1-.38-.17l-2-2.27a.5.5 0 0 1 .76-.66l2 2.28a.5.5 0 0 1-.38.82zm-3.92-4.54a.52.52 0 0 1-.38-.17l-2-2.28a.49.49 0 0 1 0-.7.51.51 0 0 1 .71.05l2 2.27a.51.51 0 0 1-.06.71.49.49 0 0 1-.24.12zm-3.89-4.53a.49.49 0 0 1-.38-.18l-2-2.27a.49.49 0 0 1 .05-.7.51.51 0 0 1 .71 0l2 2.27a.51.51 0 0 1-.06.71.49.49 0 0 1-.32.17zm-3.92-4.55a.48.48 0 0 1-.38-.17l-2-2.27a.5.5 0 1 1 .76-.65l2 2.27a.49.49 0 0 1-.05.7.52.52 0 0 1-.33.11zm-3.92-4.54a.52.52 0 0 1-.38-.17l-2-2.28a.49.49 0 0 1 .05-.7.51.51 0 0 1 .71.05l2 2.27a.51.51 0 0 1 0 .71.52.52 0 0 1-.38.11zm-3.92-4.54a.49.49 0 0 1-.38-.18l-2-2.27a.5.5 0 0 1 .76-.65l2 2.27a.51.51 0 0 1-.05.71.52.52 0 0 1-.33.11zm-3.92-4.55a.48.48 0 0 1-.38-.17l-2-2.27a.51.51 0 0 1 .06-.71.49.49 0 0 1 .7.06l2 2.27a.49.49 0 0 1-.38.82zm-3.92-4.54a.52.52 0 0 1-.38-.17l-2-2.27a.52.52 0 0 1 .06-.71.49.49 0 0 1 .7 0l2 2.27a.51.51 0 0 1-.05.71.5.5 0 0 1-.33.16zm-3.92-4.54a.49.49 0 0 1-.38-.18l-1.95-2.27a.5.5 0 1 1 .75-.65l2 2.27a.51.51 0 0 1-.05.71.5.5 0 0 1-.37.11zm-3.92-4.56a.46.46 0 0 1-.37-.17l-2-2.27a.51.51 0 0 1 0-.71.49.49 0 0 1 .7.06l2 2.27a.49.49 0 0 1-.38.82zm-3.91-4.54a.52.52 0 0 1-.38-.17l-2-2.27a.51.51 0 0 1 0-.71.49.49 0 0 1 .7 0l2 2.27a.51.51 0 0 1 0 .71.49.49 0 0 1-.32.17zm-3.92-4.54a.52.52 0 0 1-.38-.17l-.53-.67-.74-2.22a.5.5 0 1 1 .94-.32l.72 2.13.36.42a.5.5 0 0 1-.05.71.49.49 0 0 1-.32.12zm-2.17-5.56a.49.49 0 0 1-.47-.34l-1-2.85a.5.5 0 0 1 .31-.63.51.51 0 0 1 .64.31l1 2.85a.5.5 0 0 1-.31.63.45.45 0 0 1-.17.03zm-1.91-5.69a.5.5 0 0 1-.48-.34l-1-2.84a.52.52 0 0 1 .39-.67.51.51 0 0 1 .63.32l1 2.84a.51.51 0 0 1-.31.64zm-1.92-5.68a.5.5 0 0 1-.47-.35l-1-2.84a.5.5 0 0 1 .31-.63.5.5 0 0 1 .64.31l1 2.85a.5.5 0 0 1-.31.63.45.45 0 0 1-.14.03zm-1.92-5.69a.5.5 0 0 1-.47-.34l-1-2.84a.5.5 0 1 1 1-.32l1 2.84a.49.49 0 0 1-.32.63.41.41 0 0 1-.18.03zm-1.91-5.69a.49.49 0 0 1-.47-.34l-1-2.84a.5.5 0 1 1 .94-.32l1 2.84a.51.51 0 0 1-.31.64zm-1.92-5.68a.49.49 0 0 1-.47-.34l-1-2.85a.5.5 0 0 1 1-.32l1 2.85a.5.5 0 0 1-.32.63.41.41 0 0 1-.18.03zm-1.91-5.69a.5.5 0 0 1-.48-.34l-1-2.84a.51.51 0 0 1 .31-.64.5.5 0 0 1 .63.32l1 2.84a.51.51 0 0 1-.31.64zm-1.92-5.68a.51.51 0 0 1-.47-.34l-1-2.85a.5.5 0 0 1 .31-.63.5.5 0 0 1 .64.31l1 2.85a.51.51 0 0 1-.32.63.45.45 0 0 1-.13.03zm-1.91-5.69a.5.5 0 0 1-.48-.34l-1-2.84a.52.52 0 0 1 .32-.64.5.5 0 0 1 .63.32l1 2.84a.49.49 0 0 1-.31.63zm-1.92-5.69a.49.49 0 0 1-.47-.34l-1-2.84a.5.5 0 0 1 .31-.63.51.51 0 0 1 .64.31l1 2.84a.5.5 0 0 1-.31.64.44.44 0 0 1-.14.02zm-1.92-5.68a.5.5 0 0 1-.47-.34l-1-2.85a.5.5 0 0 1 .32-.63.49.49 0 0 1 .63.32l1 2.84a.49.49 0 0 1-.32.63.41.41 0 0 1-.13.03zM95 147a.49.49 0 0 1-.47-.34l-1-2.84a.5.5 0 1 1 .94-.32l1 2.84a.51.51 0 0 1-.31.64zm-2-5.69a.51.51 0 0 1-.47-.34l-1-2.85a.5.5 0 0 1 1-.32l1 2.85a.5.5 0 0 1-.32.63.41.41 0 0 1-.21.03zm-1.91-5.69a.5.5 0 0 1-.48-.34l-1-2.84a.5.5 0 0 1 .31-.64.5.5 0 0 1 .63.32l1 2.84a.49.49 0 0 1-.31.63zm-1.92-5.69a.49.49 0 0 1-.47-.34l-1-2.84a.49.49 0 0 1 .31-.63.5.5 0 0 1 .64.31l1 2.84a.52.52 0 0 1-.32.64.44.44 0 0 1-.12.02zm-1.91-5.68a.5.5 0 0 1-.48-.34l-1-2.85a.51.51 0 0 1 .32-.63.49.49 0 0 1 .63.32l1 2.84a.5.5 0 0 1-.31.63zm-1.92-5.69a.49.49 0 0 1-.47-.34l-1-2.84a.49.49 0 0 1 .31-.63.5.5 0 0 1 .64.31l.95 2.84a.51.51 0 0 1-.31.64zm-1.92-5.68a.52.52 0 0 1-.47-.34l-1-2.85a.51.51 0 0 1 .32-.63.5.5 0 0 1 .63.31l1 2.85a.49.49 0 0 1-.32.63.41.41 0 0 1-.12.03zm-1.91-5.69a.49.49 0 0 1-.47-.34l-1-2.84a.5.5 0 0 1 .31-.64.49.49 0 0 1 .63.32l1 2.84a.49.49 0 0 1-.31.63.45.45 0 0 1-.12.03zm-1.92-5.69a.49.49 0 0 1-.47-.34l-1-2.84a.5.5 0 0 1 1-.32l1 2.84a.5.5 0 0 1-.32.64.41.41 0 0 1-.17.02zm-1.91-5.68a.5.5 0 0 1-.48-.34l-.95-2.85a.5.5 0 0 1 .35-.63.49.49 0 0 1 .63.32l1 2.84a.5.5 0 0 1-.31.63zm-1.88-5.69a.49.49 0 0 1-.47-.34l-1-2.84a.49.49 0 0 1 .32-.63.5.5 0 0 1 .63.31l1 2.84a.52.52 0 0 1-.32.64zm-1.91-5.68a.52.52 0 0 1-.48-.34l-1-2.85a.5.5 0 1 1 .94-.32l1 2.85a.5.5 0 0 1-.31.63zM72 78.76a.49.49 0 0 1-.47-.34l-1-2.84a.51.51 0 0 1 .31-.64.52.52 0 0 1 .64.32l1 2.84a.49.49 0 0 1-.31.63.45.45 0 0 1-.17.03zm42.22-5.5h-2.07a.5.5 0 0 1 0-1h1l-.06-.93a.5.5 0 1 1 1-.06zm-5.07 0h-3a.5.5 0 0 1 0-1h3a.5.5 0 0 1 0 1zm-6 0h-3a.5.5 0 0 1 0-1h3a.5.5 0 0 1 0 1zm-6 0h-3a.5.5 0 0 1 0-1h3a.5.5 0 0 1 0 1zm-6 0h-3a.5.5 0 0 1 0-1h3a.5.5 0 0 1 0 1zm-6 0h-3a.5.5 0 0 1 0-1h3a.5.5 0 0 1 0 1zm-6 0h-3a.5.5 0 0 1 0-1h3a.5.5 0 0 1 0 1zm-6 0h-3a.5.5 0 0 1-.5-.5.57.57 0 0 1-.36-.16l-2.1-2.2a.49.49 0 0 1 0-.7.5.5 0 0 1 .71 0l2.1 2.19a.48.48 0 0 1 .14.37h3a.5.5 0 0 1 0 1zm40.23-4.45a.5.5 0 0 1-.5-.47l-.2-3a.49.49 0 0 1 .46-.53.5.5 0 0 1 .54.46l.2 3a.5.5 0 0 1-.46.54zm-47.86-.43a.51.51 0 0 1-.36-.15l-2.07-2.18a.5.5 0 1 1 .73-.69l2.06 2.18a.49.49 0 0 1 0 .7.47.47 0 0 1-.39.14zM61.36 64a.48.48 0 0 1-.36-.16l-2.06-2.14a.5.5 0 1 1 .72-.69l2.07 2.17a.5.5 0 0 1 0 .71.52.52 0 0 1-.37.11zm51.58-1.21a.5.5 0 0 1-.5-.46l-.2-3a.5.5 0 0 1 .46-.53.51.51 0 0 1 .54.46l.2 3a.5.5 0 0 1-.46.53zm-55.71-3.12a.51.51 0 0 1-.36-.15l-2.06-2.18a.5.5 0 0 1 .72-.69l2.07 2.18a.49.49 0 0 1-.37.84zm55.3-2.83a.49.49 0 0 1-.49-.47l-.21-3a.5.5 0 1 1 1-.07l.2 3a.49.49 0 0 1-.46.53zm-59.42-1.52a.51.51 0 0 1-.37-.15L50.68 53a.5.5 0 0 1 0-.71.49.49 0 0 1 .7 0l2.07 2.18a.49.49 0 0 1 0 .7.47.47 0 0 1-.34.15zM49 51a.49.49 0 0 1-.37-.16l-2.06-2.17a.5.5 0 0 1 0-.71.49.49 0 0 1 .7 0l2.07 2.17a.5.5 0 0 1 0 .71.51.51 0 0 1-.34.16zm63.15-.12a.5.5 0 0 1-.5-.47l-.21-3a.5.5 0 0 1 .47-.53.5.5 0 0 1 .53.46l.21 3a.51.51 0 0 1-.47.53zm-65.87-4.37a.47.47 0 0 1-.28-.09.5.5 0 0 1-.12-.7l1.73-2.44a.5.5 0 0 1 .82.58l-1.74 2.44a.49.49 0 0 1-.41.21zm65.44-1.65a.5.5 0 0 1-.5-.46l-.21-3a.51.51 0 0 1 .47-.53.5.5 0 0 1 .53.47l.21 3a.51.51 0 0 1-.47.53zm-62-3.24a.52.52 0 0 1-.29-.09.51.51 0 0 1-.12-.7l1.74-2.44a.5.5 0 0 1 .7-.12.51.51 0 0 1 .11.7l-1.73 2.44a.49.49 0 0 1-.37.21zm61.55-2.74a.5.5 0 0 1-.5-.47l-.2-3a.48.48 0 0 1 .46-.53.5.5 0 0 1 .53.46l.21 3a.5.5 0 0 1-.47.54zm-58.04-2.15a.47.47 0 0 1-.28-.09.5.5 0 0 1-.12-.7l1.73-2.45a.51.51 0 0 1 .7-.11.49.49 0 0 1 .12.69l-1.74 2.45a.49.49 0 0 1-.41.21zm57.67-3.84a.5.5 0 0 1-.5-.46l-.2-3a.5.5 0 0 1 .46-.53.49.49 0 0 1 .53.46l.21 3a.5.5 0 0 1-.47.53zm-54.19-1.05a.52.52 0 0 1-.29-.09.51.51 0 0 1-.12-.7L58 28.6a.51.51 0 0 1 .7-.11.5.5 0 0 1 .11.69l-1.73 2.45a.49.49 0 0 1-.37.21zM60.18 27a.47.47 0 0 1-.28-.09.5.5 0 0 1-.12-.7l1.73-2.45a.51.51 0 0 1 .7-.12.5.5 0 0 1 .12.7l-1.74 2.45a.52.52 0 0 1-.41.21zm50.31 0a.51.51 0 0 1-.5-.47l-.2-3a.5.5 0 1 1 1-.07l.2 3a.49.49 0 0 1-.46.53zm-46.83-4.94a.46.46 0 0 1-.29-.1.5.5 0 0 1-.12-.69L65 18.82a.51.51 0 0 1 .7-.12.52.52 0 0 1 .12.7l-1.74 2.45a.52.52 0 0 1-.42.21zm46.42-1.14a.5.5 0 0 1-.5-.47l-.2-3a.5.5 0 0 1 1-.07l.2 3a.5.5 0 0 1-.46.53zm-42.95-3.75a.42.42 0 0 1-.28-.1.49.49 0 0 1-.12-.69l1.73-2.45a.51.51 0 0 1 .7-.12.5.5 0 0 1 .12.7L67.54 17a.5.5 0 0 1-.41.17zm42.54-2.24a.49.49 0 0 1-.49-.46l-.08-1.11-1.1-.27a.5.5 0 0 1-.37-.6.51.51 0 0 1 .61-.37l1.84.44.12 1.84a.5.5 0 0 1-.46.53zm-4.5-2.52h-.11l-2.92-.7a.5.5 0 0 1-.37-.6.51.51 0 0 1 .6-.37l2.92.7a.5.5 0 0 1 .37.6.51.51 0 0 1-.49.37zm-34.56-.14a.52.52 0 0 1-.29-.09.51.51 0 0 1-.12-.7L71.94 9a.5.5 0 0 1 .7-.12.51.51 0 0 1 .12.7L71 12.06a.49.49 0 0 1-.39.21zM99.34 11h-.12l-2.91-.7a.49.49 0 0 1-.37-.6.5.5 0 0 1 .6-.37l2.92.7a.5.5 0 0 1-.12 1zm-5.83-1.4h-.12l-2.92-.7a.51.51 0 0 1-.37-.61.5.5 0 0 1 .6-.37l2.92.7a.5.5 0 0 1-.11 1zm-5.84-1.4h-.12l-2.91-.7a.5.5 0 0 1-.37-.61.5.5 0 0 1 .6-.37l2.92.7a.51.51 0 0 1 .37.61.5.5 0 0 1-.49.38zm-13.59-.82a.47.47 0 0 1-.28-.09.5.5 0 0 1-.12-.7l1.67-2.35.77.19a.5.5 0 0 1 .37.6.51.51 0 0 1-.61.37h-.11l-1.28 1.8a.48.48 0 0 1-.41.18zm7.76-.57h-.12L78.8 6.1a.51.51 0 0 1-.37-.61.5.5 0 0 1 .6-.36l2.97.69a.5.5 0 0 1 .37.61.49.49 0 0 1-.53.38z"/><ellipse cx="46.26" cy="46.21" rx="5.44" ry="5.44"/><ellipse cx="76.19" cy="5.44" rx="5.44" ry="5.44"/><ellipse cx="108.84" cy="13.59" rx="5.44" ry="5.44"/><ellipse cx="114.29" cy="73.39" rx="5.44" ry="5.44"/><ellipse cx="70.75" cy="73.39" rx="5.44" ry="5.44"/><ellipse cx="117.01" cy="214.73" rx="5.44" ry="5.44"/><ellipse cx="228.57" cy="342.48" rx="5.44" ry="5.44"/><ellipse cx="95.24" cy="334.33" rx="5.44" ry="5.44"/><ellipse cx="5.44" cy="334.33" rx="5.44" ry="5.44"/></svg>