<svg xmlns="http://www.w3.org/2000/svg" viewBox="0 0 304.76 247.35"><path d="M117.74 241.78h-.1l-.55-.11a.5.5 0 1 1 .2-1l.54.11a.5.5 0 0 1-.09 1zm-3.49-.7h-.1l-2.94-.58a.51.51 0 0 1-.4-.59.5.5 0 0 1 .59-.39l2.94.58a.51.51 0 0 1 .4.59.5.5 0 0 1-.49.39zm-5.89-1.17h-.1l-2.94-.59a.5.5 0 0 1-.39-.59.49.49 0 0 1 .59-.39l2.94.59a.49.49 0 0 1 .39.59.5.5 0 0 1-.49.39zm-5.88-1.18h-.1l-2.94-.58a.5.5 0 0 1 .19-1l3 .59a.51.51 0 0 1 .39.59.5.5 0 0 1-.54.4zm-5.88-1.17h-.1l-3-.59a.5.5 0 1 1 .2-1l2.94.59a.5.5 0 0 1 .4.58.51.51 0 0 1-.44.42zm-5.89-1.18h-.1l-2.94-.59a.48.48 0 0 1-.39-.58.5.5 0 0 1 .59-.4l2.94.59a.5.5 0 0 1-.1 1zm-5.88-1.17h-.1l-2.94-.59a.49.49 0 0 1-.39-.59.48.48 0 0 1 .58-.39l3 .59a.49.49 0 0 1 .39.58.51.51 0 0 1-.54.4zM78.94 234h-.09l-2.95-.59a.49.49 0 0 1-.39-.58.5.5 0 0 1 .59-.4l2.9.57a.49.49 0 0 1 .39.59.49.49 0 0 1-.45.41zm-5.88-1.17H73l-3-.57a.37.37 0 0 1-.18-.08.58.58 0 0 1-.13-.14.5.5 0 0 1-.07-.27.41.41 0 0 1 0-.11.51.51 0 0 1 .09-.18.44.44 0 0 1 .14-.13l2.7-1.35a.5.5 0 1 1 .46.89l-1.4.72 1.55.31a.49.49 0 0 1 .39.58.51.51 0 0 1-.49.36zm-3.48-1.5a.51.51 0 0 1-.43-.25l-1.51-2.59a.5.5 0 0 1 .17-.68.51.51 0 0 1 .69.18l1.5 2.61a.51.51 0 0 1-.17.69.59.59 0 0 1-.25.07zm5.87-1.85a.49.49 0 0 1-.45-.27.5.5 0 0 1 .22-.67l2.66-1.38a.5.5 0 1 1 .46.89l-2.66 1.38a.48.48 0 0 1-.23.08zm5.33-2.75a.51.51 0 0 1-.45-.27.5.5 0 0 1 .22-.67l2.66-1.38a.5.5 0 1 1 .46.89L81 226.7a.46.46 0 0 1-.22.06zm-14.23-.58a.5.5 0 0 1-.43-.25l-1.52-2.59a.5.5 0 0 1 .86-.5l1.54 2.62a.5.5 0 0 1-.18.68.45.45 0 0 1-.27.07zM86.11 224a.48.48 0 0 1-.44-.28.49.49 0 0 1 .21-.67l2.67-1.38a.5.5 0 0 1 .67.22.49.49 0 0 1-.22.67L86.34 224a.46.46 0 0 1-.23 0zm5.33-2.76a.5.5 0 0 1-.23-.94l2.67-1.38a.5.5 0 1 1 .45.89l-2.66 1.38a.59.59 0 0 1-.23.06zM63.52 221a.52.52 0 0 1-.44-.24l-1.51-2.59a.51.51 0 0 1 .18-.69.5.5 0 0 1 .68.18l1.57 2.59a.49.49 0 0 1-.18.68.47.47 0 0 1-.3.07zm33.25-2.5a.5.5 0 0 1-.44-.27.51.51 0 0 1 .21-.68l2.67-1.37a.5.5 0 0 1 .67.21.49.49 0 0 1-.21.67L97 218.44a.46.46 0 0 1-.23.06zm-36.29-2.67a.5.5 0 0 1-.43-.25L58.53 213a.5.5 0 0 1 .18-.68.51.51 0 0 1 .69.17l1.51 2.59a.51.51 0 0 1-.17.69.59.59 0 0 1-.26.06zm41.62-.09a.5.5 0 0 1-.23-.94l2.67-1.38a.5.5 0 0 1 .46.89l-2.67 1.38a.46.46 0 0 1-.23.05zm5.33-2.75a.5.5 0 0 1-.44-.27.51.51 0 0 1 .21-.68l2.14-1.1a.5.5 0 1 1 .46.89l-2.14 1.1a.46.46 0 0 1-.23.07zm-50-2.34a.5.5 0 0 1-.43-.25l-1.52-2.59a.5.5 0 1 1 .86-.5l1.52 2.59a.49.49 0 0 1-.18.68.45.45 0 0 1-.23.07zm-3-5.18a.52.52 0 0 1-.44-.24l-1.51-2.59a.51.51 0 0 1 .18-.69.5.5 0 0 1 .68.18l1.52 2.59a.49.49 0 0 1-.18.68.47.47 0 0 1-.26.07zm-3-5.17a.5.5 0 0 1-.43-.25l-1.52-2.59a.49.49 0 0 1 .18-.68.51.51 0 0 1 .69.18l1.51 2.58a.51.51 0 0 1-.17.69.59.59 0 0 1-.31.07zm-3-5.18a.5.5 0 0 1-.43-.25l-1.52-2.59a.5.5 0 1 1 .86-.5l1.52 2.59a.5.5 0 0 1-.18.68.45.45 0 0 1-.33.07zm-3-5.18a.52.52 0 0 1-.44-.24l-1.51-2.59a.51.51 0 0 1 .18-.69.5.5 0 0 1 .68.18l1.52 2.59a.49.49 0 0 1-.18.68.47.47 0 0 1-.36.07zm-3-5.17a.5.5 0 0 1-.43-.25l-1.52-2.59a.49.49 0 0 1 .18-.68.51.51 0 0 1 .69.18l1.36 2.57a.51.51 0 0 1-.18.69.55.55 0 0 1-.25.08zm-3-5.18a.5.5 0 0 1-.43-.25l-1.52-2.59a.5.5 0 1 1 .86-.5l1.52 2.59a.5.5 0 0 1-.18.68.47.47 0 0 1-.43.07zm-3-5.18a.52.52 0 0 1-.43-.24l-1.51-2.59a.51.51 0 0 1 .17-.69.51.51 0 0 1 .69.18l1.52 2.59a.51.51 0 0 1-.18.69.58.58 0 0 1-.48.06zm-3-5.17a.5.5 0 0 1-.43-.25l-1.52-2.59a.49.49 0 0 1 .18-.68.51.51 0 0 1 .69.17l1.51 2.59a.51.51 0 0 1-.18.69.55.55 0 0 1-.5.07zm-3-5.18a.5.5 0 0 1-.43-.25l-1.52-2.59a.5.5 0 1 1 .86-.5l1.52 2.59a.49.49 0 0 1-.18.68.47.47 0 0 1-.53.07zm195.07-2.46a.5.5 0 0 1-.5-.47l-.14-1.86a.5.5 0 1 1 1-.07l.14 1.86a.5.5 0 0 1-.46.54zm-198.39-2.72a.52.52 0 0 1-.43-.24l-1.51-2.59a.51.51 0 0 1 .17-.69.52.52 0 0 1 .69.18l1.52 2.59a.5.5 0 0 1-.18.68.48.48 0 0 1-.26.07zm197.75-2.14a.49.49 0 0 1-.49-.46l-.22-3a.5.5 0 1 1 1-.08l.22 3a.5.5 0 0 1-.46.54zm-200.78-3a.5.5 0 0 1-.43-.25l-1.52-2.59a.5.5 0 1 1 .86-.5l1.52 2.6a.51.51 0 0 1-.18.69.55.55 0 0 1-.25.02zm200.34-3a.5.5 0 0 1-.49-.47l-.22-3a.49.49 0 0 1 .46-.53.51.51 0 0 1 .54.46l.21 3a.5.5 0 0 1-.46.54zm-203.37-2.21a.5.5 0 0 1-.43-.25l-1.52-2.59a.5.5 0 1 1 .86-.5l1.52 2.59a.49.49 0 0 1-.18.68.47.47 0 0 1-.25.07zM224 144.77a.5.5 0 0 1-.5-.46l-.22-3a.5.5 0 0 1 .46-.54.52.52 0 0 1 .54.46l.22 3a.5.5 0 0 1-.47.53zm-206-1.42a.51.51 0 0 1-.43-.24l-1.51-2.59a.5.5 0 1 1 .86-.51l1.51 2.59a.5.5 0 0 1-.17.68.48.48 0 0 1-.26.07zm205.54-4.56a.5.5 0 0 1-.5-.47l-.22-3a.5.5 0 0 1 .46-.53.51.51 0 0 1 .54.46l.22 3a.5.5 0 0 1-.46.54zM15 138.18a.5.5 0 0 1-.43-.25L13 135.34a.5.5 0 1 1 .86-.5l1.52 2.58a.51.51 0 0 1-.18.69.55.55 0 0 1-.2.07zM12 133a.5.5 0 0 1-.43-.25L10 130.16a.5.5 0 0 1 .86-.5l1.52 2.59a.49.49 0 0 1-.18.68.47.47 0 0 1-.2.07zm211.16-.2a.5.5 0 0 1-.5-.46l-.22-3a.5.5 0 0 1 .46-.54.51.51 0 0 1 .54.47l.22 3a.5.5 0 0 1-.46.53zm-214.2-5a.51.51 0 0 1-.43-.24L7 125a.5.5 0 1 1 .87-.51l1.51 2.59a.51.51 0 0 1-.17.69.58.58 0 0 1-.3.05zm213.76-1a.5.5 0 0 1-.5-.46l-.22-3a.5.5 0 0 1 .47-.54.51.51 0 0 1 .53.46l.22 3a.5.5 0 0 1-.46.54zM5.88 122.65a.5.5 0 0 1-.43-.25l-1.26-2.15.88-.91a.5.5 0 1 1 .72.7l-.35.36.87 1.49a.51.51 0 0 1-.18.69.55.55 0 0 1-.25.07zm216.35-1.81a.49.49 0 0 1-.49-.47l-.22-3a.5.5 0 0 1 1-.07l.22 3a.49.49 0 0 1-.46.53zM7.52 118a.51.51 0 0 1-.36-.85L9.25 115a.5.5 0 0 1 .72.69l-2.09 2.15a.48.48 0 0 1-.36.16zm214.28-3.19a.5.5 0 0 1-.5-.46l-.22-3a.5.5 0 0 1 .46-.54.52.52 0 0 1 .54.46l.22 3a.51.51 0 0 1-.47.53zm30.78-.77l-2.54-.66a.5.5 0 0 1 .26-1l2 .52.28-.27a.49.49 0 0 1 .7 0 .5.5 0 0 1 0 .71zm-240.88-.31a.49.49 0 0 1-.35-.14.51.51 0 0 1 0-.71l2.1-2.15a.5.5 0 1 1 .71.7l-2.09 2.15a.51.51 0 0 1-.37.15zm235.57-1h-.13l-2.9-.76a.5.5 0 0 1-.36-.61.51.51 0 0 1 .61-.36l2.9.76a.5.5 0 0 1 .36.61.49.49 0 0 1-.48.31zm7.79-1.2a.5.5 0 0 1-.35-.86l2.15-2.09a.51.51 0 0 1 .71 0 .5.5 0 0 1 0 .71l-2.15 2.09a.54.54 0 0 1-.36.1zm-13.6-.31h-.13l-2.9-.76a.5.5 0 0 1 .25-1l2.91.76a.5.5 0 0 1-.13 1zM128.62 110H128.41l-2.73-1.23a.49.49 0 0 1-.25-.66.5.5 0 0 1 .66-.25l2.2 1 .65-2.33a.5.5 0 0 1 .61-.35.49.49 0 0 1 .35.61l-.7 2.54a.49.49 0 0 1-.19.56l-.1.07-.15.06zm107-.29h-.12l-2.9-.75a.5.5 0 1 1 .25-1l2.9.75a.5.5 0 0 1-.13 1zm-219.77-.23a.5.5 0 0 1-.35-.85l2.09-2.15a.5.5 0 1 1 .71.7l-2.09 2.15a.51.51 0 0 1-.33.1zm205.48-.56a.5.5 0 0 1-.5-.46l-.21-2.89-.54-1a.5.5 0 1 1 .92-.57l.49.92 2.69.7a.5.5 0 1 1-.25 1l-2.23-.58.17 2.29a.5.5 0 0 1-.47.54zm-90.16-.68a.49.49 0 0 1-.41-.22.5.5 0 0 1 .13-.7l2.47-1.69a.5.5 0 0 1 .7.13.51.51 0 0 1-.13.69l-2.48 1.7a.47.47 0 0 1-.25.04zm98.65 0h-.13l-2.9-.76a.5.5 0 1 1 .25-1l2.9.75a.5.5 0 0 1-.12 1zm-106.71-.65a.51.51 0 0 1-.2 0l-2.74-1.23a.5.5 0 1 1 .41-.91l2.74 1.22a.51.51 0 0 1 .25.67.5.5 0 0 1-.43.16zm136.23-.2a.48.48 0 0 1-.36-.15.5.5 0 0 1 0-.71l2.15-2.09a.5.5 0 1 1 .7.72l-2.16 2.09a.49.49 0 0 1-.3.05zm-239.3-2.17a.5.5 0 0 1-.36-.85l2.09-2.15a.5.5 0 1 1 .71.69L20.42 105a.47.47 0 0 1-.35.13zm97.6-.08a.78.78 0 0 1-.21 0l-2.73-1.23a.5.5 0 0 1-.26-.66.51.51 0 0 1 .67-.25l2.73 1.22a.5.5 0 0 1 .26.66.51.51 0 0 1-.43.17zm18.48-.26a.48.48 0 0 1-.41-.21.5.5 0 0 1 .13-.7l2.47-1.7a.5.5 0 0 1 .57.83l-2.48 1.7a.57.57 0 0 1-.25-.01zm-5.93-.62h-.14a.49.49 0 0 1-.34-.61l.79-2.9a.5.5 0 0 1 .62-.34.49.49 0 0 1 .35.61l-.8 2.89a.5.5 0 0 1-.45.26zm133.45-1a.51.51 0 0 1-.36-.15.51.51 0 0 1 0-.71l2.16-2.09a.49.49 0 0 1 .7 0 .48.48 0 0 1 0 .7L264 103a.47.47 0 0 1-.33.12zm-151.48-.52a.46.46 0 0 1-.2 0l-2.74-1.22a.51.51 0 0 1-.25-.66.5.5 0 0 1 .66-.26l2.74 1.23a.5.5 0 0 1-.21 1zm107-.48a.5.5 0 0 1-.44-.27l-1.41-2.65a.49.49 0 0 1 .21-.67.49.49 0 0 1 .67.2l1.41 2.65a.5.5 0 0 1-.21.68.46.46 0 0 1-.25-.08zm-78-.72a.52.52 0 0 1-.42-.22.51.51 0 0 1 .13-.69l2.48-1.7a.5.5 0 0 1 .56.83l-2.47 1.69a.51.51 0 0 1-.34-.05zm-116.85-.58a.47.47 0 0 1-.35-.14.49.49 0 0 1 0-.7l2.04-2.3a.5.5 0 1 1 .72.7l-2.09 2.15a.51.51 0 0 1-.38.15zm82.47-.68a.52.52 0 0 1-.21 0l-2.74-1.22a.51.51 0 0 1-.25-.67.5.5 0 0 1 .66-.25l2.74 1.23a.49.49 0 0 1 .25.66.48.48 0 0 1-.51.11zM268 98.94a.51.51 0 0 1-.36-.15.49.49 0 0 1 0-.7l2.14-2.09a.5.5 0 1 1 .7.71l-2.15 2.09a.49.49 0 0 1-.33.14zm-136.16-.55h-.14a.52.52 0 0 1-.35-.62l.8-2.89a.5.5 0 1 1 1 .27L132.3 98a.5.5 0 0 1-.48.39zm14.21-.39a.52.52 0 0 1-.42-.22.51.51 0 0 1 .13-.69l2.48-1.7a.5.5 0 1 1 .56.82l-2.47 1.7a.51.51 0 0 1-.28.09zm-44.81-.32a.45.45 0 0 1-.2 0l-2.74-1.26a.49.49 0 0 1-.25-.66.5.5 0 0 1 .66-.25l2.73 1.23a.49.49 0 0 1 .26.66.52.52 0 0 1-.46.29zm115.08-.87a.5.5 0 0 1-.44-.27l-1.41-2.64a.5.5 0 0 1 .21-.68.49.49 0 0 1 .67.21l1.41 2.64a.5.5 0 0 1-.2.68.53.53 0 0 1-.24.07zm-187.89-.3a.52.52 0 0 1-.35-.14.5.5 0 0 1 0-.71l2.09-2.15a.5.5 0 1 1 .72.7l-2.09 2.15a.51.51 0 0 1-.37.16zm67.33-1.28a.51.51 0 0 1-.2 0L92.82 94a.5.5 0 0 1 .41-.91L96 94.28a.51.51 0 0 1 .25.67.5.5 0 0 1-.49.29zm176.52-.47a.48.48 0 0 1-.36-.16.5.5 0 0 1 0-.7l2.16-2.09a.5.5 0 0 1 .71 0 .51.51 0 0 1 0 .71l-2.16 2.08a.49.49 0 0 1-.35.17zM151 94.62a.52.52 0 0 1-.42-.22.51.51 0 0 1 .13-.7l2.48-1.7a.5.5 0 0 1 .56.82l-2.47 1.7a.51.51 0 0 1-.28.1zm-60.71-1.83a.78.78 0 0 1-.21 0l-2.73-1.23a.5.5 0 0 1-.26-.66.51.51 0 0 1 .67-.25l2.73 1.22a.5.5 0 0 1 .25.66.49.49 0 0 1-.45.26zm43.12-.19a.3.3 0 0 1-.13 0 .49.49 0 0 1-.35-.61l.8-2.89a.5.5 0 0 1 .61-.35.49.49 0 0 1 .35.61l-.8 2.9a.49.49 0 0 1-.48.34zm-100.8-.38a.52.52 0 0 1-.35-.14.5.5 0 0 1 0-.71l2.09-2.15a.5.5 0 0 1 .72.69L33 92.07a.51.51 0 0 1-.39.15zm180.9-.7a.5.5 0 0 1-.45-.26l-1.41-2.65a.51.51 0 0 1 .21-.68.5.5 0 0 1 .68.21l1.46 2.65a.5.5 0 0 1-.21.67.46.46 0 0 1-.28.06zm-57.57-.3a.49.49 0 0 1-.41-.21.51.51 0 0 1 .13-.7l2.48-1.7a.51.51 0 0 1 .69.13.5.5 0 0 1-.13.7l-2.47 1.7a.6.6 0 0 1-.29.08zm120.65-.63a.5.5 0 0 1-.35-.86l2.15-2.09a.5.5 0 0 1 .7.72l-2.15 2.09a.54.54 0 0 1-.35.14zm-191.78-.25a.46.46 0 0 1-.2 0l-2.74-1.22a.51.51 0 0 1-.25-.66.5.5 0 0 1 .66-.26L85 89.38a.5.5 0 0 1-.21 1zm-48-2.43a.47.47 0 0 1-.35-.14.49.49 0 0 1 0-.7l2.09-2.16a.51.51 0 0 1 .71 0 .5.5 0 0 1 0 .71l-2.09 2.15a.51.51 0 0 1-.38.14zm42.55 0a.52.52 0 0 1-.21 0l-2.74-1.23a.5.5 0 0 1-.25-.66.51.51 0 0 1 .66-.25L79.56 87a.5.5 0 0 1-.2.95zm81.55 0a.5.5 0 0 1-.41-.22.49.49 0 0 1 .13-.69l2.47-1.7a.51.51 0 0 1 .7.13.5.5 0 0 1-.13.7l-2.48 1.69a.47.47 0 0 1-.3.01zm-25.88-1h-.13a.49.49 0 0 1-.35-.61l.8-2.9a.5.5 0 0 1 1 .27l-.8 2.89a.5.5 0 0 1-.55.26zm145.89-.41a.48.48 0 0 1-.36-.15.5.5 0 0 1 0-.71l2.15-2.09a.5.5 0 0 1 .71 0 .51.51 0 0 1 0 .71l-2.16 2.09a.49.49 0 0 1-.36.06zm-70.21-.18a.5.5 0 0 1-.44-.27l-1.41-2.65a.5.5 0 1 1 .88-.47l1.41 2.65a.5.5 0 0 1-.21.68.46.46 0 0 1-.25-.03zm-136.83-.8a.45.45 0 0 1-.2 0l-2.74-1.23a.49.49 0 0 1-.25-.66.5.5 0 0 1 .66-.25l2.73 1.23a.49.49 0 0 1 .26.66.52.52 0 0 1-.48.16zm92-1a.5.5 0 0 1-.41-.22.49.49 0 0 1 .13-.69l2.47-1.7a.5.5 0 1 1 .57.82l-2.47 1.7a.52.52 0 0 1-.33.01zM41 83.61a.54.54 0 0 1-.35-.14.51.51 0 0 1 0-.71l2.09-2.15a.5.5 0 0 1 .72.7l-2.09 2.15a.51.51 0 0 1-.37.15zM68.38 83a.51.51 0 0 1-.2 0l-2.74-1.23a.5.5 0 0 1 .41-.91L68.59 82a.51.51 0 0 1 .25.66.5.5 0 0 1-.46.34zm216.82-.75a.51.51 0 0 1-.36-.15.51.51 0 0 1 0-.71l2.16-2.11a.5.5 0 0 1 .7 0 .5.5 0 0 1 0 .71l-2.15 2.09a.52.52 0 0 1-.35.15zm-114.41-1.2a.49.49 0 0 1-.41-.22.5.5 0 0 1 .13-.7l2.49-1.69a.5.5 0 1 1 .57.82l-2.5 1.74a.47.47 0 0 1-.28.05zm-34.18 0h-.14a.5.5 0 0 1-.34-.62l.79-2.89a.52.52 0 0 1 .62-.35.51.51 0 0 1 .35.62l-.8 2.89a.5.5 0 0 1-.48.3zm71.26-.11a.5.5 0 0 1-.44-.27L206 78a.49.49 0 0 1 .21-.67.5.5 0 0 1 .67.2l1.41 2.65a.5.5 0 0 1-.21.68.46.46 0 0 1-.21.07zm-145-.4a.54.54 0 0 1-.21 0L60 79.26a.5.5 0 1 1 .4-.91l2.74 1.22a.49.49 0 0 1 .25.66.49.49 0 0 1-.48.3zm-17.72-1.23a.54.54 0 0 1-.35-.14.51.51 0 0 1 0-.71l2.09-2.15a.5.5 0 0 1 .72.69l-2.09 2.16a.51.51 0 0 1-.37.15zm12.28-1.23a.46.46 0 0 1-.2 0l-2.74-1.22a.5.5 0 0 1 .41-.92l2.74 1.23a.5.5 0 0 1 .25.66.51.51 0 0 1-.46.25zm232.08 0a.5.5 0 0 1-.35-.86l2.15-2.09a.5.5 0 0 1 .71 0 .49.49 0 0 1 0 .7l-2.15 2.09a.49.49 0 0 1-.36.13zm-113.77-.4a.48.48 0 0 1-.41-.21.5.5 0 0 1 .13-.7l2.47-1.7a.5.5 0 1 1 .57.83l-2.5 1.67a.54.54 0 0 1-.26.08zm29.31-2a.51.51 0 0 1-.44-.26l-1.41-2.65a.51.51 0 0 1 .21-.68.5.5 0 0 1 .68.21l1.4 2.65a.49.49 0 0 1-.2.67.53.53 0 0 1-.24.01zM52 75.62a.52.52 0 0 1-.21 0l-1.93-.86-.13.13a.5.5 0 0 1-.71-.69l.61-.64 2.57 1.15a.5.5 0 0 1-.2 1zm86.25-.37a.34.34 0 0 1-.14 0 .5.5 0 0 1-.35-.61l.8-2.89a.5.5 0 0 1 1 .26l-.8 2.9a.5.5 0 0 1-.55.34zm42.48-1a.5.5 0 0 1-.28-.91l2.47-1.7a.5.5 0 0 1 .56.83l-2.48 1.7a.49.49 0 0 1-.31.09zm113.12-.39a.47.47 0 0 1-.35-.15.49.49 0 0 1 0-.7l2.16-2.09a.5.5 0 0 1 .71 0 .5.5 0 0 1 0 .7l-2.16 2.09a.47.47 0 0 1-.4.16zm-108.17-3a.52.52 0 0 1-.42-.22.51.51 0 0 1 .13-.69l2.48-1.7a.5.5 0 1 1 .56.82l-2.47 1.7a.51.51 0 0 1-.32.1zm16.6-.54a.5.5 0 0 1-.45-.26l-1.41-2.65a.52.52 0 0 1 .21-.68.5.5 0 0 1 .68.21l1.41 2.65a.5.5 0 0 1-.21.67.46.46 0 0 1-.27.07zm95.88-.63a.52.52 0 0 1-.36-.16.49.49 0 0 1 0-.7l1.9-1.83a.51.51 0 0 1 .71 0 .5.5 0 0 1 0 .71l-1.93 1.87a.5.5 0 0 1-.36.12zm-159.27-.06a.51.51 0 0 1-.41-.2L136.67 67a.5.5 0 0 1 .11-.7.51.51 0 0 1 .7.11l1.77 2.42a.5.5 0 0 1-.11.7.52.52 0 0 1-.29.11zm51.74-2.16a.5.5 0 0 1-.29-.92l2.48-1.69a.5.5 0 1 1 .56.82l-2.47 1.7a.51.51 0 0 1-.32.1zm8.79-2.47a.5.5 0 0 1-.44-.27l-1.15-2.15-2 1.38a.52.52 0 0 1-.7-.13.51.51 0 0 1 .13-.7l2.47-1.69a.55.55 0 0 1 .18-.06.47.47 0 0 1 0-.46l1.2-2.75a.5.5 0 0 1 .66-.26.5.5 0 0 1 .26.66l-1.2 2.75a.52.52 0 0 1-.37.29l1.41 2.64a.5.5 0 0 1-.21.68.46.46 0 0 1-.24.07zm-64.12-.23a.49.49 0 0 1-.41-.21l-1.77-2.41a.5.5 0 0 1 .11-.7.48.48 0 0 1 .69.1L135.7 64a.5.5 0 0 1-.11.7.46.46 0 0 1-.29.11zM131.75 60a.51.51 0 0 1-.41-.2l-1.77-2.42a.5.5 0 1 1 .8-.59l1.78 2.42a.5.5 0 0 1-.11.69.46.46 0 0 1-.29.1zm69-3.84a.71.71 0 0 1-.2 0 .51.51 0 0 1-.26-.66l1.2-2.75a.5.5 0 0 1 .66-.26.5.5 0 0 1 .26.66l-1.2 2.75a.5.5 0 0 1-.47.23zm-72.54-1a.51.51 0 0 1-.41-.2l-1.8-2.45a.5.5 0 0 1 .1-.7.51.51 0 0 1 .7.11l1.78 2.42a.51.51 0 0 1-.11.7.52.52 0 0 1-.27.09zm74.94-4.5a.71.71 0 0 1-.2 0 .51.51 0 0 1-.26-.66l1.2-2.75a.5.5 0 0 1 .66-.26.5.5 0 0 1 .26.66l-1.2 2.75a.5.5 0 0 1-.47.23zm-78.49-.33a.49.49 0 0 1-.41-.21l-1.77-2.41a.5.5 0 0 1 .8-.6l1.78 2.42a.51.51 0 0 1-.11.7.46.46 0 0 1-.3.07zm-3.56-4.84a.51.51 0 0 1-.4-.2l-1.77-2.42a.5.5 0 1 1 .8-.59l1.78 2.42a.5.5 0 0 1-.11.69.47.47 0 0 1-.31.07zm84.45-.33a.48.48 0 0 1-.2 0 .51.51 0 0 1-.26-.66l1.2-2.75a.5.5 0 0 1 .92.4L206 44.83a.5.5 0 0 1-.46.3zm-88-4.51a.51.51 0 0 1-.4-.2L115.37 38a.5.5 0 0 1 .1-.7.51.51 0 0 1 .7.11l1.83 2.42a.51.51 0 0 1-.11.7.53.53 0 0 1-.35.09zm90.4-1a.45.45 0 0 1-.2 0 .51.51 0 0 1-.26-.66l1.2-2.75a.5.5 0 0 1 .92.4l-1.2 2.75a.5.5 0 0 1-.47.24zM114 35.79a.49.49 0 0 1-.4-.21l-1.78-2.41a.51.51 0 0 1 .11-.7.5.5 0 0 1 .7.1L114.4 35a.51.51 0 0 1-.11.7.47.47 0 0 1-.29.09zm96.35-1.66a.48.48 0 0 1-.2 0 .51.51 0 0 1-.26-.66l1.2-2.75a.5.5 0 0 1 .92.4l-1.2 2.75a.5.5 0 0 1-.47.26zM110.44 31a.51.51 0 0 1-.4-.2l-.78-1.07-1.3-.52a.51.51 0 0 1-.27-.65.5.5 0 0 1 .65-.28l1.55.63 1 1.3a.48.48 0 0 1-.1.69.47.47 0 0 1-.35.1zm102.3-2.32a.45.45 0 0 1-.2 0 .51.51 0 0 1-.26-.66l1.2-2.75a.5.5 0 0 1 .92.4l-1.2 2.75a.5.5 0 0 1-.46.21zm-107.37-.56a.46.46 0 0 1-.19 0L102.4 27a.5.5 0 0 1 .38-.93l2.78 1.13a.5.5 0 0 1-.19 1zm-5.56-2.25a.43.43 0 0 1-.19 0l-2.78-1.12a.5.5 0 0 1-.28-.65.5.5 0 0 1 .65-.28l2.79 1.04a.49.49 0 0 1 .27.65.5.5 0 0 1-.46.31zm-5.56-2.25a.58.58 0 0 1-.19 0l-2.78-1.13a.5.5 0 0 1-.28-.65.5.5 0 0 1 .65-.28l2.78 1.13a.5.5 0 0 1 .28.65.51.51 0 0 1-.46.23zm120.89-.44a.48.48 0 0 1-.2 0 .51.51 0 0 1-.26-.66l1.2-2.75a.52.52 0 0 1 .66-.26.51.51 0 0 1 .26.66l-1.2 2.75a.5.5 0 0 1-.46.21zM88.68 21.32a.57.57 0 0 1-.18 0l-2.79-1.13a.5.5 0 0 1-.27-.65.49.49 0 0 1 .65-.27l2.78 1.12a.5.5 0 0 1-.19 1zm-5.56-2.25h-.19l-2.78-1.13a.5.5 0 0 1 .38-.92l2.78 1.12a.5.5 0 0 1 .27.65.47.47 0 0 1-.46.28zm134.42-1.44a.45.45 0 0 1-.2 0 .5.5 0 0 1-.26-.66l1.2-2.75a.52.52 0 0 1 .66-.26.51.51 0 0 1 .26.66l-1.2 2.71a.5.5 0 0 1-.46.3zm-140-.8a.65.65 0 0 1-.19 0l-2.78-1.13a.5.5 0 1 1 .37-.92l2.79 1.12a.5.5 0 0 1 .27.65.49.49 0 0 1-.44.28zM72 14.58a.58.58 0 0 1-.19 0L69 13.41a.5.5 0 1 1 .37-.92l2.78 1.12a.5.5 0 0 1-.18 1zm-5.57-2.25a.39.39 0 0 1-.18 0l-2.79-1.12a.51.51 0 0 1-.27-.65.5.5 0 0 1 .65-.28l2.78 1.12a.5.5 0 0 1-.19 1zm153.51-.2a.45.45 0 0 1-.2 0 .5.5 0 0 1-.26-.66l1.2-2.75a.5.5 0 0 1 .66-.25.5.5 0 0 1 .26.65l-1.2 2.75a.51.51 0 0 1-.46.26zM60.87 10.08a.43.43 0 0 1-.19 0L57.9 8.92a.5.5 0 0 1 .38-.92l2.78 1.12a.51.51 0 0 1 .27.66.49.49 0 0 1-.46.3zm-5.56-2.25a.43.43 0 0 1-.19 0l-2.78-1.16a.5.5 0 0 1 .37-.93l2.79 1.13a.49.49 0 0 1 .27.65.5.5 0 0 1-.46.31z"/><ellipse cx="5.44" cy="119.6" rx="5.44" ry="5.44"/><ellipse cx="51.7" cy="73.39" rx="5.44" ry="5.44"/><ellipse cx="51.7" cy="5.44" rx="5.44" ry="5.44"/><ellipse cx="111.57" cy="29.9" rx="5.44" ry="5.44"/><ellipse cx="138.78" cy="70.67" rx="5.44" ry="5.44"/><ellipse cx="127.89" cy="108.73" rx="5.44" ry="5.44"/><ellipse cx="198.64" cy="62.52" rx="5.44" ry="5.44"/><ellipse cx="220.41" cy="10.87" rx="5.44" ry="5.44"/><ellipse cx="299.32" cy="67.95" rx="5.44" ry="5.44"/><ellipse cx="250.34" cy="114.16" rx="5.44" ry="5.44"/><ellipse cx="220.41" cy="106.01" rx="5.44" ry="5.44"/><ellipse cx="225.85" cy="160.37" rx="5.44" ry="5.44"/><ellipse cx="108.84" cy="212.01" rx="5.44" ry="5.44"/><ellipse cx="117.01" cy="241.91" rx="5.44" ry="5.44"/><ellipse cx="70.75" cy="231.04" rx="5.44" ry="5.44"/></svg>