<svg width="244" height="216" viewBox="0 0 244 216" fill="none" xmlns="http://www.w3.org/2000/svg">
<path d="M14.9661 146.777L8.16333 207.935L93.8778 202.498L100.68 167.163L108.844 127.751L159.184 59.7982L236.735 32.6172M236.735 32.6172L231.293 92.4154M236.735 32.6172L219.048 5.43619" stroke="white" stroke-linecap="round" stroke-dasharray="3 3"/>
<ellipse rx="5.44069" ry="5.4377" transform="matrix(0.866264 -0.499587 0.500413 0.865787 219.679 7.42597)" fill="white"/>
<ellipse rx="5.44069" ry="5.4377" transform="matrix(0.866264 -0.499587 0.500413 0.865787 236.006 31.8889)" fill="white"/>
<ellipse rx="5.44069" ry="5.4377" transform="matrix(0.866264 -0.499587 0.500413 0.865787 230.564 91.6871)" fill="white"/>
<ellipse rx="5.44069" ry="5.4377" transform="matrix(0.866264 -0.499587 0.500413 0.865787 159.815 59.0699)" fill="white"/>
<ellipse rx="5.44069" ry="5.4377" transform="matrix(0.866264 -0.499587 0.500413 0.865787 108.115 127.022)" fill="white"/>
<ellipse rx="5.44069" ry="5.4377" transform="matrix(0.866264 -0.499587 0.500413 0.865787 99.9513 165.076)" fill="white"/>
<ellipse rx="5.44069" ry="5.4377" transform="matrix(0.866264 -0.499587 0.500413 0.865787 94.5091 200.411)" fill="white"/>
<ellipse rx="5.44069" ry="5.4377" transform="matrix(0.866264 -0.499587 0.500413 0.865787 7.43416 208.565)" fill="white"/>
<ellipse rx="5.44069" ry="5.4377" transform="matrix(0.866264 -0.499587 0.500413 0.865787 15.5975 148.767)" fill="white"/>
</svg>
