<svg xmlns="http://www.w3.org/2000/svg" viewBox="0 0 185.04 263.66"><path d="M178.72 257.9a.51.51 0 0 1-.31-.11l-2.36-1.86a.5.5 0 1 1 .62-.78L179 257a.52.52 0 0 1 .08.71.52.52 0 0 1-.36.19zm-4.72-3.72a.5.5 0 0 1-.31-.1l-2.35-1.86a.5.5 0 0 1-.09-.7.52.52 0 0 1 .71-.09l2.35 1.86a.49.49 0 0 1 .08.7.47.47 0 0 1-.39.19zm-4.71-3.71a.45.45 0 0 1-.31-.11l-2.36-1.85a.5.5 0 0 1-.08-.7.5.5 0 0 1 .7-.09l2.36 1.86a.5.5 0 0 1 .08.7.48.48 0 0 1-.39.19zm-4.71-3.71a.51.51 0 0 1-.31-.11l-2.36-1.85a.5.5 0 0 1 .62-.79l2.35 1.86a.5.5 0 0 1 .09.7.52.52 0 0 1-.39.19zm-4.72-3.71a.51.51 0 0 1-.31-.11l-2.35-1.86a.5.5 0 1 1 .61-.78l2.36 1.85a.51.51 0 0 1 .08.71.49.49 0 0 1-.39.19zm-4.71-3.72a.5.5 0 0 1-.31-.1l-2.36-1.86a.5.5 0 1 1 .62-.78l2.36 1.85a.5.5 0 0 1 .08.7.48.48 0 0 1-.39.19zm-4.72-3.71a.45.45 0 0 1-.3-.11l-2.36-1.85a.5.5 0 0 1-.09-.7.51.51 0 0 1 .71-.09l2.35 1.86a.5.5 0 0 1-.31.89zm-4.71-3.71a.51.51 0 0 1-.31-.11l-2.36-1.8a.52.52 0 0 1-.08-.71.5.5 0 0 1 .7-.08L146 231a.49.49 0 0 1 .08.7.51.51 0 0 1-.36.21zM141 228.2a.51.51 0 0 1-.31-.11l-2.36-1.86a.49.49 0 0 1-.08-.7.5.5 0 0 1 .7-.08l2.36 1.85a.52.52 0 0 1 .08.71.52.52 0 0 1-.39.19zm-4.72-3.72a.52.52 0 0 1-.31-.1l-2.35-1.86a.5.5 0 0 1-.09-.7.51.51 0 0 1 .71-.08l2.35 1.85a.5.5 0 0 1-.31.89zm-4.71-3.71a.45.45 0 0 1-.31-.11l-2.36-1.85a.5.5 0 0 1-.08-.7.5.5 0 0 1 .7-.09l2.36 1.86a.49.49 0 0 1 .08.7.48.48 0 0 1-.38.19zm-4.71-3.71a.51.51 0 0 1-.31-.11l-2.36-1.85a.5.5 0 0 1 .62-.79l2.36 1.86a.5.5 0 0 1 .08.7.52.52 0 0 1-.38.19zm-4.72-3.71a.51.51 0 0 1-.31-.11l-2.35-1.86a.5.5 0 0 1-.09-.7.52.52 0 0 1 .71-.08l2.35 1.85a.51.51 0 0 1 .09.71.53.53 0 0 1-.39.19zm-4.71-3.71a.51.51 0 0 1-.31-.11l-2.36-1.86a.5.5 0 0 1-.08-.7.5.5 0 0 1 .7-.08l2.36 1.85a.5.5 0 0 1 .08.7.49.49 0 0 1-.38.2zm-4.71-3.72a.45.45 0 0 1-.31-.11l-2.35-1.81a.49.49 0 0 1-.08-.7.5.5 0 0 1 .7-.09L113 205a.5.5 0 0 1 .08.7.49.49 0 0 1-.35.22zm-4.72-3.74a.49.49 0 0 1-.37-.16l-2-2.21a.48.48 0 0 1 0-.7.5.5 0 0 1 .71 0l2 2.2a.51.51 0 0 1 0 .71.5.5 0 0 1-.34.16zm-4-4.41a.52.52 0 0 1-.36-.16l-2-2.21a.5.5 0 1 1 .74-.68l2 2.21a.5.5 0 0 1 0 .71.51.51 0 0 1-.38.13zm-4.06-4.42a.5.5 0 0 1-.37-.16l-2-2.2a.5.5 0 1 1 .74-.68l2 2.21a.5.5 0 0 1-.37.83zm-4.06-4.41a.49.49 0 0 1-.37-.16l-2-2.21a.49.49 0 0 1 0-.7.5.5 0 0 1 .71 0l2 2.21a.5.5 0 0 1 0 .71.46.46 0 0 1-.37.15zm-4.07-4.41a.54.54 0 0 1-.37-.16l-2-2.21a.5.5 0 0 1 0-.71.51.51 0 0 1 .71 0l2 2.21a.49.49 0 0 1 0 .7.51.51 0 0 1-.37.17zm-4.06-4.42a.49.49 0 0 1-.37-.16l-2-2.2a.5.5 0 1 1 .73-.68l2 2.2a.5.5 0 0 1 0 .71.46.46 0 0 1-.39.13zm-4.07-4.41a.54.54 0 0 1-.37-.16l-2-2.21a.49.49 0 0 1 0-.7.5.5 0 0 1 .71 0l2 2.21a.5.5 0 0 1-.37.84zm-4.06-4.41a.52.52 0 0 1-.37-.16l-2-2.21a.5.5 0 0 1 0-.71.51.51 0 0 1 .71 0l2 2.21a.49.49 0 0 1 0 .7.51.51 0 0 1-.37.17zm-4.68-3.37h-.14l-2.92-.69a.5.5 0 1 1 .22-1l2.92.68a.5.5 0 0 1-.11 1zm-5.84-1.37h-.11l-2.99-.7a.5.5 0 0 1 .23-1l2.92.69a.5.5 0 0 1 .38.6.51.51 0 0 1-.46.41zm-5.84-1.38h-.12l-2.92-.69a.5.5 0 1 1 .23-1l2.92.69a.5.5 0 0 1-.11 1zm-5.84-1.37h-.12l-2.92-.69a.5.5 0 0 1-.37-.6.49.49 0 0 1 .6-.37l2.92.68a.5.5 0 0 1 .37.61.49.49 0 0 1-.51.37zm-5.84-1.37h-.12l-2.92-.68a.5.5 0 0 1-.37-.6.49.49 0 0 1 .6-.37l2.92.68a.49.49 0 0 1 .37.6.5.5 0 0 1-.51.37zm-5.84-1.37h-.12l-2.92-.68a.5.5 0 0 1 .23-1l2.92.69a.49.49 0 0 1 .37.6.5.5 0 0 1-.51.39zm-5.84-1.38h-.12l-2.95-.68a.5.5 0 0 1-.37-.6.49.49 0 0 1 .6-.37l2.92.69a.5.5 0 0 1-.11 1zm-5.9-1.37h-.12l-2.88-.7a.5.5 0 1 1 .23-1l2.92.68a.51.51 0 0 1 .37.6.5.5 0 0 1-.52.42zm-1-1.9a.48.48 0 0 1-.45-.28.5.5 0 0 1 .23-.67l2.7-1.3a.5.5 0 1 1 .44.9l-2.71 1.3a.41.41 0 0 1-.21.05zm5.4-2.6a.5.5 0 0 1-.45-.29.49.49 0 0 1 .23-.66l2.7-1.3a.49.49 0 0 1 .67.23.5.5 0 0 1-.23.67l-2.7 1.3a.59.59 0 0 1-.26.05zm5.4-2.61a.5.5 0 0 1-.21-.95l2.7-1.3a.5.5 0 1 1 .43.9l-2.7 1.3a.42.42 0 0 1-.26.05zm5.41-2.6a.49.49 0 0 1-.45-.29.5.5 0 0 1 .23-.67l2.7-1.3a.5.5 0 0 1 .67.24.49.49 0 0 1-.23.66l-2.7 1.31a.59.59 0 0 1-.26.05zm5.4-2.61a.5.5 0 0 1-.21-1l2.7-1.3a.5.5 0 1 1 .43.9l-2.7 1.3a.54.54 0 0 1-.26.11zm5.39-2.61a.48.48 0 0 1-.45-.28.5.5 0 0 1 .23-.67l2.7-1.3a.51.51 0 0 1 .67.23.5.5 0 0 1-.23.67l-2.71 1.3a.41.41 0 0 1-.21.05zm5.4-2.6a.51.51 0 0 1-.45-.29.5.5 0 0 1 .24-.66l2.7-1.31a.5.5 0 0 1 .43.9l-2.7 1.31a.54.54 0 0 1-.24.05zm4.42-3a.48.48 0 0 1-.45-.28l-1.3-2.7a.5.5 0 0 1 .9-.44l1.3 2.71a.5.5 0 0 1-.24.67.52.52 0 0 1-.23.08zm-2.6-5.4a.49.49 0 0 1-.45-.29l-1.3-2.7a.5.5 0 0 1 .9-.44l1.3 2.71a.51.51 0 0 1-.23.67.59.59 0 0 1-.24.09zM64.6 127a.51.51 0 0 1-.45-.29l-1.3-2.7a.5.5 0 0 1 .91-.43l1.29 2.7a.5.5 0 0 1-.23.67.54.54 0 0 1-.22.05zm-2.6-5.4a.52.52 0 0 1-.46-.29l-1.29-2.7a.5.5 0 1 1 .9-.43l1.3 2.7a.5.5 0 0 1-.24.67.54.54 0 0 1-.21.05zm-2.6-5.41a.5.5 0 0 1-.45-.28l-1.3-2.71a.5.5 0 1 1 .9-.43l1.3 2.7a.51.51 0 0 1-.23.67.59.59 0 0 1-.21.05zm-2.6-5.41a.5.5 0 0 1-.45-.28l-1.3-2.71a.5.5 0 0 1 .24-.67.49.49 0 0 1 .66.24l1.3 2.7a.5.5 0 0 1-.23.67.59.59 0 0 1-.21.05zm-2.59-5.41a.51.51 0 0 1-.46-.28l-1.29-2.71a.5.5 0 0 1 .9-.43l1.3 2.7a.5.5 0 0 1-.24.67.41.41 0 0 1-.2.05zM51.62 100a.48.48 0 0 1-.45-.28L49.87 97a.49.49 0 0 1 .23-.66.5.5 0 0 1 .67.23l1.3 2.71a.5.5 0 0 1-.24.66.41.41 0 0 1-.21.06zM49 94.55a.5.5 0 0 1-.45-.28l-1.3-2.71a.5.5 0 0 1 .24-.66.49.49 0 0 1 .66.23l1.3 2.71a.49.49 0 0 1-.23.66.44.44 0 0 1-.22.05zm-2.6-5.41a.5.5 0 0 1-.45-.28l-1.3-2.7a.51.51 0 0 1 .24-.67.5.5 0 0 1 .67.23l1.29 2.71a.5.5 0 0 1-.23.67.54.54 0 0 1-.2.04zm-2.59-5.4a.49.49 0 0 1-.45-.29l-1.3-2.7a.5.5 0 0 1 .23-.67.51.51 0 0 1 .67.23L44.28 83a.5.5 0 0 1-.24.67.54.54 0 0 1-.21.07zm-2.6-5.41a.5.5 0 0 1-.45-.29l-1.3-2.7a.5.5 0 0 1 .24-.67.5.5 0 0 1 .66.24l1.3 2.7a.5.5 0 0 1-.23.67.59.59 0 0 1-.2.05zm-2.6-5.41a.51.51 0 0 1-.45-.29l-1.3-2.7a.5.5 0 1 1 .91-.43l1.29 2.7a.5.5 0 0 1-.23.67.54.54 0 0 1-.2.05zM36 67.51a.5.5 0 0 1-.45-.28l-1.3-2.71a.5.5 0 1 1 .9-.43l1.3 2.7a.5.5 0 0 1-.24.67.54.54 0 0 1-.21.05zm-2.6-5.41a.48.48 0 0 1-.45-.28l-1.3-2.71a.5.5 0 1 1 .9-.43l1.3 2.7a.51.51 0 0 1-.23.67.59.59 0 0 1-.18.05zm-2.6-5.41a.5.5 0 0 1-.45-.28l-1.3-2.71a.49.49 0 0 1 .24-.66.48.48 0 0 1 .66.23l1.3 2.7a.5.5 0 0 1-.23.67.42.42 0 0 1-.18.05zm-2.59-5.41a.48.48 0 0 1-.41-.28l-1.3-2.71a.5.5 0 0 1 .9-.43l1.3 2.71a.5.5 0 0 1-.24.66.41.41 0 0 1-.21.05zm-2.6-5.41a.48.48 0 0 1-.45-.28l-1.3-2.7a.5.5 0 0 1 .9-.44l1.3 2.71a.5.5 0 0 1-.23.66.44.44 0 0 1-.18.05zm-2.6-5.41a.5.5 0 0 1-.45-.28l-1.3-2.7a.5.5 0 0 1 .24-.67.49.49 0 0 1 .66.23l1.3 2.71a.49.49 0 0 1-.23.66.44.44 0 0 1-.18.05zm-2.59-5.4a.52.52 0 0 1-.46-.29l-1.29-2.7a.5.5 0 0 1 .23-.67.51.51 0 0 1 .67.23l1.3 2.71a.5.5 0 0 1-.24.67.54.54 0 0 1-.17.05zm-2.6-5.41a.49.49 0 0 1-.45-.29l-1.3-2.7a.5.5 0 1 1 .9-.43l1.3 2.7a.5.5 0 0 1-.24.67.54.54 0 0 1-.17.05zm-2.6-5.41a.51.51 0 0 1-.45-.29l-1.3-2.7a.5.5 0 0 1 .24-.67.49.49 0 0 1 .66.24l1.3 2.7a.5.5 0 0 1-.23.67.59.59 0 0 1-.18.05zm-2.6-5.41a.51.51 0 0 1-.45-.29l-1.29-2.7a.5.5 0 1 1 .9-.43l1.29 2.7a.5.5 0 0 1-.23.67.54.54 0 0 1-.18.05zm-2.59-5.41a.48.48 0 0 1-.45-.28l-1.3-2.71a.5.5 0 1 1 .9-.43l1.3 2.7a.5.5 0 0 1-.24.67.54.54 0 0 1-.17.05zM7.47 8A.49.49 0 0 1 7 7.73L5.72 5A.49.49 0 0 1 6 4.36a.48.48 0 0 1 .66.23l1.3 2.7a.5.5 0 0 1-.27.71.44.44 0 0 1-.22 0z"/><ellipse cx="5.44" cy="5.44" rx="5.44" ry="5.44"/><ellipse cx="70.75" cy="138.62" rx="5.44" ry="5.44"/><ellipse cx="29.93" cy="157.65" rx="5.44" ry="5.44"/><ellipse cx="76.19" cy="168.52" rx="5.44" ry="5.44"/><ellipse cx="108.84" cy="201.14" rx="5.44" ry="5.44"/><ellipse cx="179.59" cy="258.22" rx="5.44" ry="5.44"/></svg>