<svg xmlns="http://www.w3.org/2000/svg" viewBox="0 0 174.15 345.2"><path d="M79.64 339.63a.53.53 0 0 1-.4-.19.52.52 0 0 1 .1-.71l1.5-1.14a.5.5 0 0 1 .61.79L80 339.53a.52.52 0 0 1-.36.1zm3.89-3a.5.5 0 0 1-.4-.19.5.5 0 0 1 .09-.7l2.39-1.83a.5.5 0 0 1 .61.8l-2.39 1.82a.49.49 0 0 1-.3.13zM88.3 333a.53.53 0 0 1-.4-.19.51.51 0 0 1 .09-.71l2.39-1.82a.51.51 0 0 1 .7.1.5.5 0 0 1-.1.7l-2.38 1.82a.49.49 0 0 1-.3.1zm4.76-3.64a.47.47 0 0 1-.39-.2.5.5 0 0 1 .09-.7l2.38-1.82a.51.51 0 0 1 .71.09.52.52 0 0 1-.1.71l-2.38 1.82a.5.5 0 0 1-.31.12zm4.77-3.64a.5.5 0 0 1-.3-.9l2.38-1.82a.5.5 0 0 1 .61.79l-2.38 1.82a.51.51 0 0 1-.31.13zm4.77-3.64a.51.51 0 0 1-.4-.2.5.5 0 0 1 .1-.7l2.38-1.82a.5.5 0 0 1 .61.79L102.9 322a.48.48 0 0 1-.3.1zm4.77-3.65a.5.5 0 0 1-.31-.89l2.39-1.83a.51.51 0 0 1 .7.1.5.5 0 0 1-.09.7l-2.39 1.82a.49.49 0 0 1-.3.12zm4.77-3.64a.51.51 0 0 1-.4-.2.5.5 0 0 1 .09-.7l2.39-1.82a.51.51 0 0 1 .7.1.5.5 0 0 1-.1.7l-2.38 1.82a.49.49 0 0 1-.3.12zm4.76-3.64a.49.49 0 0 1-.39-.2.5.5 0 0 1 .09-.7l2.38-1.82a.5.5 0 1 1 .61.79l-2.38 1.83a.5.5 0 0 1-.31.12zm4.77-3.64a.5.5 0 0 1-.3-.9l2.38-1.82a.5.5 0 1 1 .61.79l-2.36 1.84a.53.53 0 0 1-.33.11zM7.54 307.4a.48.48 0 0 1-.26-.07.5.5 0 0 1-.17-.68l1.51-2.59a.5.5 0 0 1 .87.5L8 307.15a.5.5 0 0 1-.46.25zm118.7-3.69a.55.55 0 0 1-.25-.07.51.51 0 0 1-.19-.68l1.49-2.61a.51.51 0 0 1 .69-.18.49.49 0 0 1 .18.68l-1.49 2.6a.49.49 0 0 1-.43.26zm-115.67-1.49a.45.45 0 0 1-.25-.07.49.49 0 0 1-.18-.68l1.51-2.59a.5.5 0 0 1 .87.51L11 302a.51.51 0 0 1-.43.22zm118.65-3.72a.45.45 0 0 1-.25-.07.5.5 0 0 1-.19-.68l1.49-2.6a.5.5 0 0 1 .87.49l-1.49 2.61a.5.5 0 0 1-.43.25zM13.6 297.05a.59.59 0 0 1-.25-.07.51.51 0 0 1-.18-.69l1.52-2.59a.51.51 0 0 1 .68-.18.51.51 0 0 1 .18.69L14 296.8a.5.5 0 0 1-.4.25zm118.6-3.76a.45.45 0 0 1-.25-.07.5.5 0 0 1-.19-.68l1.49-2.6a.51.51 0 0 1 .68-.19.5.5 0 0 1 .19.68l-1.49 2.57a.5.5 0 0 1-.43.29zm-115.57-1.42a.47.47 0 0 1-.25-.07.51.51 0 0 1-.18-.69l1.52-2.58a.5.5 0 1 1 .86.5l-1.51 2.59a.52.52 0 0 1-.44.25zm118.55-3.79a.54.54 0 0 1-.25-.06.51.51 0 0 1-.19-.69l1.49-2.6a.5.5 0 1 1 .87.5l-1.49 2.6a.5.5 0 0 1-.43.25zm-115.52-1.39a.47.47 0 0 1-.25-.07.49.49 0 0 1-.18-.68l1.52-2.59a.5.5 0 0 1 .86.5l-1.51 2.59a.51.51 0 0 1-.44.25zm118.49-3.82a.5.5 0 0 1-.24-.06.5.5 0 0 1-.19-.68l1.49-2.61a.5.5 0 0 1 .87.5l-1.49 2.6a.5.5 0 0 1-.44.25zM22.7 281.51a.48.48 0 0 1-.26-.07.5.5 0 0 1-.17-.68l1.51-2.59a.51.51 0 0 1 .69-.18.51.51 0 0 1 .17.69l-1.51 2.59a.51.51 0 0 1-.43.24zm118.43-3.84a.51.51 0 0 1-.24-.07.5.5 0 0 1-.19-.68l1.49-2.61a.5.5 0 0 1 .87.5l-1.49 2.6a.49.49 0 0 1-.44.26zm-115.4-1.34a.54.54 0 0 1-.25-.06.51.51 0 0 1-.18-.69l1.51-2.58a.51.51 0 0 1 .69-.18.51.51 0 0 1 .18.69l-1.52 2.59a.49.49 0 0 1-.43.23zm118.38-3.87a.42.42 0 0 1-.24-.07.49.49 0 0 1-.19-.68l1.49-2.6a.49.49 0 0 1 .68-.19.51.51 0 0 1 .19.68l-1.49 2.61a.5.5 0 0 1-.44.25zm-115.35-1.3a.55.55 0 0 1-.25-.07.51.51 0 0 1-.18-.69l1.51-2.59a.51.51 0 0 1 .69-.17.49.49 0 0 1 .18.68l-1.52 2.59a.5.5 0 0 1-.43.25zm118.33-3.91a.47.47 0 0 1-.25-.07.49.49 0 0 1-.18-.68l1.49-2.6a.49.49 0 0 1 .68-.19.51.51 0 0 1 .19.68l-1.49 2.61a.51.51 0 0 1-.44.25zM31.79 266a.47.47 0 0 1-.25-.07.5.5 0 0 1-.18-.68l1.52-2.59a.5.5 0 0 1 .86.5l-1.52 2.59a.5.5 0 0 1-.43.25zm118.28-4a.57.57 0 0 1-.25-.06.51.51 0 0 1-.18-.69l1.49-2.6a.5.5 0 0 1 .68-.19.52.52 0 0 1 .19.69l-1.49 2.6a.51.51 0 0 1-.44.25zm-115.25-1.2a.47.47 0 0 1-.25-.07.49.49 0 0 1-.18-.68l1.52-2.59a.49.49 0 0 1 .68-.18.51.51 0 0 1 .18.69l-1.51 2.58a.51.51 0 0 1-.44.25zm118.23-4a.57.57 0 0 1-.25-.06.49.49 0 0 1-.18-.68l1.49-2.61a.5.5 0 1 1 .86.5l-1.49 2.6a.5.5 0 0 1-.43.28zm-115.19-1.18a.58.58 0 0 1-.26-.06.51.51 0 0 1-.18-.69l1.52-2.59a.5.5 0 1 1 .86.51l-1.51 2.59a.52.52 0 0 1-.43.24zm118.17-4a.59.59 0 0 1-.25-.07.49.49 0 0 1-.18-.68l1.49-2.61a.5.5 0 1 1 .86.5l-1.49 2.6a.49.49 0 0 1-.46.27zm-115.14-1.17a.52.52 0 0 1-.25-.07.51.51 0 0 1-.18-.69L42 247.1a.5.5 0 0 1 .87.51l-1.52 2.59a.5.5 0 0 1-.46.25zm118.12-4a.45.45 0 0 1-.25-.07.49.49 0 0 1-.18-.68l1.49-2.6a.49.49 0 1 1 .86.49l-1.49 2.61a.5.5 0 0 1-.44.22zm-115.09-1.18a.45.45 0 0 1-.25-.07.5.5 0 0 1-.18-.68l1.51-2.59a.51.51 0 0 1 .69-.18.49.49 0 0 1 .18.68L44.35 245a.5.5 0 0 1-.43.27zM162 241.21a.45.45 0 0 1-.25-.07.49.49 0 0 1-.18-.68l1.49-2.6a.49.49 0 1 1 .86.49l-1.5 2.65a.5.5 0 0 1-.42.21zm-115-1.12a.47.47 0 0 1-.25-.07.49.49 0 0 1-.18-.68l1.43-2.52.17-.15a.51.51 0 0 1 .71.06.49.49 0 0 1-.06.7l-.11.1-1.36 2.31a.5.5 0 0 1-.35.25zM165 236a.54.54 0 0 1-.25-.06.51.51 0 0 1-.18-.69l1.48-2.6a.52.52 0 0 1 .69-.19.51.51 0 0 1 .18.69l-1.49 2.6a.5.5 0 0 1-.43.25zm-114.16-.39a.5.5 0 0 1-.32-.88l2.28-1.95a.5.5 0 1 1 .65.77l-2.28 1.94a.52.52 0 0 1-.36.12zm4.57-3.89a.5.5 0 0 1-.32-.88l2.28-2a.52.52 0 0 1 .71.06.51.51 0 0 1-.06.71l-2.28 1.94a.52.52 0 0 1-.36.17zm112.59-.93a.54.54 0 0 1-.25-.06.51.51 0 0 1-.19-.68l1.17-2-2.38-.61a.5.5 0 1 1 .25-1l1.84.47-.27-.44a.51.51 0 0 1 .18-.69.5.5 0 0 1 .68.18l.88 1.48v.06a.58.58 0 0 1 0 .19.52.52 0 0 1 0 .21v.06l-1.49 2.59a.5.5 0 0 1-.42.24zm-108-3a.52.52 0 0 1-.38-.17.51.51 0 0 1 .06-.71l2.23-1.91a.5.5 0 1 1 .65.76l-2.28 1.94a.52.52 0 0 1-.28.13zm103.57-1.17h-.13l-2.9-.75a.5.5 0 1 1 .25-1l2.9.75a.5.5 0 0 1 .36.61.48.48 0 0 1-.53.43zm-5.81-1.49h-.12l-2.91-.75a.5.5 0 0 1-.36-.61.51.51 0 0 1 .61-.36l2.91.75a.5.5 0 0 1 .35.61.49.49 0 0 1-.53.4zm9.31-1a.49.49 0 0 1-.43-.24l-1.53-2.58a.5.5 0 0 1 .17-.69.51.51 0 0 1 .69.18l1.53 2.58a.5.5 0 0 1-.17.68.48.48 0 0 1-.33.06zm-102.5-.18a.52.52 0 0 1-.38-.17.51.51 0 0 1 .06-.71l2.28-1.94a.5.5 0 1 1 .65.76l-2.28 1.94a.52.52 0 0 1-.38.11zm87.38-.27h-.13l-2.9-.75a.49.49 0 0 1-.36-.6.5.5 0 0 1 .61-.36l2.9.74a.5.5 0 0 1 .36.61.49.49 0 0 1-.53.35zm-5.81-1.5H146l-2.9-.75a.5.5 0 0 1 .25-1l2.9.75a.5.5 0 0 1 .36.61.49.49 0 0 1-.52.38zm-5.81-1.5h-.13l-2.9-.75a.5.5 0 0 1 .25-1l2.9.75a.5.5 0 0 1 .36.61.49.49 0 0 1-.53.38zm-71.19-.61a.49.49 0 0 1-.38-.18.51.51 0 0 1 .06-.71l2.28-1.94a.51.51 0 0 1 .71.06.49.49 0 0 1-.06.7l-2.28 1.95a.52.52 0 0 1-.38.11zm65.38-.88h-.13l-2.9-.75a.5.5 0 1 1 .25-1l2.9.75a.5.5 0 0 1 .36.61.49.49 0 0 1-.53.38zM164 219a.5.5 0 0 1-.43-.24l-1.57-2.62a.49.49 0 0 1 .18-.68.48.48 0 0 1 .68.17l1.53 2.58a.49.49 0 0 1-.43.75zm-35.29-1.28h-.13l-2.9-.75a.5.5 0 0 1-.36-.61.51.51 0 0 1 .61-.36l2.9.75a.5.5 0 0 1 .36.61.49.49 0 0 1-.53.32zm-5.81-1.5h-.13l-2.9-.75a.5.5 0 1 1 .25-1l2.9.75a.5.5 0 0 1 .36.61.49.49 0 0 1-.53.35zm-49.19 0a.5.5 0 0 1-.32-.88l2.28-1.95a.5.5 0 1 1 .65.76l-2.29 2a.47.47 0 0 1-.37.02zm43.29-1.54h-.13l-2.9-.75a.5.5 0 1 1 .25-1l2.9.75a.5.5 0 0 1-.12 1zm43.85-.87a.5.5 0 0 1-.43-.25l-1.49-2.56a.48.48 0 0 1 .17-.68.5.5 0 0 1 .69.17l1.53 2.58a.51.51 0 0 1-.18.69.59.59 0 0 1-.25.05zm-49.66-.63h-.13l-2.9-.75a.5.5 0 1 1 .25-1l2.9.75a.5.5 0 0 1 .36.61.48.48 0 0 1-.44.39zm-33-.9a.5.5 0 0 1-.32-.88l2.28-2a.51.51 0 0 1 .71.06.52.52 0 0 1-.06.71l-2.29 1.94a.49.49 0 0 1-.28.17zm27.19-.59h-.13l-2.9-.75a.5.5 0 0 1-.36-.61.51.51 0 0 1 .61-.36l2.9.75a.5.5 0 0 1-.12 1zm-5.81-1.5h-.13l-2.9-.74a.5.5 0 1 1 .25-1l2.9.75a.5.5 0 0 1-.12 1zm-5.81-1.5h-.13l-2.9-.75a.5.5 0 1 1 .25-1l2.9.75a.5.5 0 0 1-.12 1zm64 0a.51.51 0 0 1-.43-.25l-1.53-2.57a.5.5 0 0 1 .86-.52l1.53 2.58a.5.5 0 0 1-.17.69.48.48 0 0 1-.2.03zm-75-.26a.5.5 0 0 1-.32-.88l2.12-1.81v-.22a.5.5 0 1 1 1 .06l2.5.65a.5.5 0 0 1-.25 1l-2.65-.69-2.09 1.78a.49.49 0 0 1-.27.07zm72-4.9a.51.51 0 0 1-.43-.24l-1.54-2.58a.51.51 0 0 1 .21-.71.49.49 0 0 1 .68.18l1.54 2.58a.5.5 0 0 1-.18.68.47.47 0 0 1-.28.05zM85.31 203a.5.5 0 0 1-.46-.54l.19-3a.49.49 0 0 1 .53-.47.5.5 0 0 1 .47.53l-.2 3a.49.49 0 0 1-.53.48zm66.38-4.69a.5.5 0 0 1-.43-.24l-1.53-2.58a.5.5 0 0 1 .17-.68.49.49 0 0 1 .69.17l1.53 2.58a.5.5 0 0 1-.17.68.48.48 0 0 1-.26.09zm-66-1.3a.51.51 0 0 1-.47-.53l.2-3a.5.5 0 1 1 1 .07l-.19 3a.51.51 0 0 1-.54.45zm62.94-3.85a.5.5 0 0 1-.43-.25l-1.54-2.58a.5.5 0 0 1 .86-.51l1.53 2.58a.49.49 0 0 1-.17.69.59.59 0 0 1-.25.09zM86.08 191a.5.5 0 0 1-.47-.53l.19-3a.5.5 0 0 1 1 .07l-.19 3a.5.5 0 0 1-.53.46zm59.48-3a.5.5 0 0 1-.43-.25l-1.53-2.57a.5.5 0 0 1 .17-.69.51.51 0 0 1 .69.17l1.53 2.58a.51.51 0 0 1-.17.69.48.48 0 0 1-.26.07zm-59.09-3a.49.49 0 0 1-.46-.53l.19-3a.49.49 0 0 1 .53-.47.5.5 0 0 1 .47.53l-.2 3a.49.49 0 0 1-.53.52zm56.87-2.48a.5.5 0 0 1-.5-.44l-.34-3a.5.5 0 0 1 .44-.55.51.51 0 0 1 .56.44l.34 3a.5.5 0 0 1-.44.55zm-56.49-3.5a.5.5 0 0 1-.47-.53l.2-3a.5.5 0 0 1 .53-.47.52.52 0 0 1 .47.53l-.2 3a.51.51 0 0 1-.53.52zm55.8-2.46a.49.49 0 0 1-.49-.44l-.35-3a.5.5 0 0 1 1-.11l.34 3a.5.5 0 0 1-.44.55zm-55.41-3.53a.5.5 0 0 1-.47-.53l.19-3a.5.5 0 0 1 .53-.46.49.49 0 0 1 .47.53l-.19 3a.51.51 0 0 1-.53.51zm54.76-2.38a.49.49 0 0 1-.49-.44l-.35-3a.5.5 0 0 1 1-.11l.34 3a.5.5 0 0 1-.44.55zm-54.33-3.56a.5.5 0 0 1-.46-.53l.19-3a.49.49 0 0 1 .53-.46.5.5 0 0 1 .47.53l-.19 3a.5.5 0 0 1-.58.46zm53.65-2.4a.5.5 0 0 1-.5-.44l-.34-3a.49.49 0 0 1 .44-.55.49.49 0 0 1 .55.44l.34 3a.5.5 0 0 1-.44.55zM88 161.1a.51.51 0 0 1-.47-.53l.2-3a.5.5 0 0 1 .53-.47.52.52 0 0 1 .47.53l-.2 3a.5.5 0 0 1-.53.47zm52.58-2.37a.51.51 0 0 1-.5-.44l-.34-3a.5.5 0 1 1 1-.11l.35 3a.5.5 0 0 1-.44.55zm-52.18-3.61a.49.49 0 0 1-.47-.53l.19-3a.52.52 0 0 1 .54-.47.5.5 0 0 1 .46.53l-.19 3a.51.51 0 0 1-.53.47zm51.5-2.35a.51.51 0 0 1-.5-.44l-.34-3a.5.5 0 0 1 .44-.55.49.49 0 0 1 .55.43l.35 3a.51.51 0 0 1-.44.56zm-51.11-3.64a.5.5 0 0 1-.46-.53l.19-3a.5.5 0 0 1 .53-.46.49.49 0 0 1 .47.53l-.19 3a.51.51 0 0 1-.54.46zm50.42-2.32a.51.51 0 0 1-.5-.44l-.34-3a.5.5 0 0 1 .44-.55.49.49 0 0 1 .55.43l.35 3a.51.51 0 0 1-.44.56zm-50-3.67a.52.52 0 0 1-.47-.53l.2-3a.49.49 0 0 1 .53-.46.51.51 0 0 1 .47.53l-.2 3a.5.5 0 0 1-.57.46zm49.35-2.29a.5.5 0 0 1-.49-.44l-.35-3a.5.5 0 1 1 1-.12l.35 3a.51.51 0 0 1-.44.56zm-49-3.7a.5.5 0 0 1-.47-.53l.19-3a.53.53 0 0 1 .54-.47.5.5 0 0 1 .46.53l-.19 3a.5.5 0 0 1-.53.47zm48.27-2.26a.5.5 0 0 1-.49-.44l-.35-3a.51.51 0 0 1 .44-.56.52.52 0 0 1 .56.44l.34 3a.5.5 0 0 1-.44.56zM90 131.17a.49.49 0 0 1-.46-.53l.19-3a.52.52 0 0 1 .53-.47.5.5 0 0 1 .47.53l-.19 3a.51.51 0 0 1-.54.47zm47.19-2.24a.5.5 0 0 1-.49-.44l-.35-3a.51.51 0 0 1 .44-.56.52.52 0 0 1 .56.44l.34 3a.5.5 0 0 1-.44.56zm-46.81-3.75a.52.52 0 0 1-.47-.53l.17-2.58-2.5-.64a.5.5 0 0 1-.36-.61.49.49 0 0 1 .6-.36l2.9.74h.12a.46.46 0 0 1 .29-.17l3-.54a.51.51 0 0 1 .58.41.5.5 0 0 1-.4.58l-3 .53a.49.49 0 0 1-.24 0l-.17 2.66a.51.51 0 0 1-.57.51zm46.08-2.18a.51.51 0 0 1-.5-.44l-.34-3a.5.5 0 0 1 .43-.56.51.51 0 0 1 .56.44l.34 3a.49.49 0 0 1-.44.56zm-39.41-2a.5.5 0 0 1-.09-1l3-.54a.5.5 0 1 1 .18 1l-3 .54zm-12.34-.3h-.12l-2.91-.75a.5.5 0 1 1 .25-1l2.91.74a.5.5 0 0 1 .36.6.5.5 0 0 1-.49.41zm18.24-.77a.51.51 0 0 1-.49-.41.5.5 0 0 1 .41-.59l2.95-.53a.5.5 0 0 1 .58.4.5.5 0 0 1-.4.58l-3 .54zm-24-.71h-.12l-2.91-.74a.5.5 0 0 1-.36-.61.51.51 0 0 1 .61-.36l2.9.74a.5.5 0 0 1 .36.61.49.49 0 0 1-.53.36zm30-.37a.49.49 0 0 1-.49-.41.5.5 0 0 1 .4-.58l3-.53a.5.5 0 0 1 .58.4.5.5 0 0 1-.4.58l-3 .54zm5.9-1.07a.5.5 0 0 1-.09-1l3-.54a.52.52 0 0 1 .58.41.5.5 0 0 1-.41.58l-3 .53zm-41.67 0h-.13l-3-.78a.51.51 0 0 1-.36-.61.5.5 0 0 1 .61-.36l2.91.74a.5.5 0 0 1-.12 1zm62.68-.73a.51.51 0 0 1-.5-.44l-.28-2.45-2.43.44a.5.5 0 0 1-.18-1l3-.53h.17a.48.48 0 0 1 .26.12l.09.11a.48.48 0 0 1 .07.2l.35 3a.51.51 0 0 1-.44.56zm-15.11-.3a.51.51 0 0 1-.49-.41.5.5 0 0 1 .41-.58l3-.54a.5.5 0 0 1 .18 1l-3 .53zm-53.39-.46h-.12l-2.91-.74a.5.5 0 0 1 .25-1l2.9.74a.5.5 0 0 1-.12 1zm59.3-.61a.5.5 0 0 1-.09-1l3-.54a.5.5 0 0 1 .58.4.5.5 0 0 1-.4.58l-3 .54zm-65.11-.87a.3.3 0 0 1-.13 0l-2.9-.74a.49.49 0 0 1-.36-.6.49.49 0 0 1 .6-.37l2.91.75a.49.49 0 0 1 .36.6.5.5 0 0 1-.57.32zm-5.82-1.48h-.12l-2.91-.74a.5.5 0 0 1-.36-.61.51.51 0 0 1 .61-.36l2.91.74a.5.5 0 0 1-.13 1zm80.23-.36a.63.63 0 0 1-.19 0 .49.49 0 0 1-.27-.65l1.13-2.78a.5.5 0 1 1 .92.37l-1.13 2.78a.48.48 0 0 1-.55.24zm-86-1.12h-.12l-2.91-.74a.5.5 0 0 1 .25-1l2.9.74a.5.5 0 0 1-.12 1zM44 110.32h-.13l-2.87-.75a.51.51 0 0 1-.36-.61.5.5 0 0 1 .61-.36l2.91.74a.5.5 0 0 1-.12 1zm-5.82-1.48h-.12l-2.91-.74a.49.49 0 0 1-.36-.6.5.5 0 0 1 .61-.37l2.9.75a.5.5 0 0 1 .37.6.51.51 0 0 1-.47.36zm99.93-1.46a.43.43 0 0 1-.19 0 .5.5 0 0 1-.27-.65l1.13-2.78a.5.5 0 0 1 .65-.28.51.51 0 0 1 .27.66l-1.13 2.78a.5.5 0 0 1-.44.27zm-105.74 0h-.13l-2.9-.74a.5.5 0 0 1 .24-1l2.91.74a.5.5 0 0 1-.12 1zm108-5.54a.43.43 0 0 1-.19 0 .49.49 0 0 1-.27-.65l1.13-2.78a.5.5 0 1 1 .92.38l-1.13 2.78a.5.5 0 0 1-.44.25zm2.26-5.56a.43.43 0 0 1-.19 0 .49.49 0 0 1-.27-.65l1.13-2.78a.5.5 0 0 1 .92.38L143.11 96a.49.49 0 0 1-.46.26zm2.26-5.56a.63.63 0 0 1-.19 0 .51.51 0 0 1-.27-.66l1.13-2.77a.5.5 0 0 1 .65-.28.49.49 0 0 1 .27.65l-1.13 2.78a.47.47 0 0 1-.44.26zm2.26-5.56a.63.63 0 0 1-.19 0 .5.5 0 0 1-.27-.65l1.13-2.78a.5.5 0 0 1 .65-.28.49.49 0 0 1 .27.65l-1.13 2.78a.48.48 0 0 1-.44.26zm2.26-5.55a.43.43 0 0 1-.19 0 .5.5 0 0 1-.27-.65l1.13-2.78a.5.5 0 1 1 .92.38l-1.13 2.78a.49.49 0 0 1-.44.25zm2.28-5.61a.43.43 0 0 1-.19 0 .49.49 0 0 1-.27-.65l1.13-2.78a.5.5 0 0 1 .93.38l-1.14 2.78a.49.49 0 0 1-.46.27zm1.42-5.72a.5.5 0 0 1-.5-.5v-3a.5.5 0 0 1 1 0v3a.5.5 0 0 1-.5.53zm0-6a.5.5 0 0 1-.5-.5v-3a.5.5 0 0 1 1 0v3a.5.5 0 0 1-.5.53zm0-6a.5.5 0 0 1-.5-.5v-3a.5.5 0 0 1 1 0v3a.5.5 0 0 1-.5.53zm0-6a.5.5 0 0 1-.5-.5v-3a.5.5 0 0 1 1 0v3a.5.5 0 0 1-.5.53zm0-6a.5.5 0 0 1-.5-.5v-3a.5.5 0 0 1 1 0v3a.5.5 0 0 1-.5.53zm0-6a.5.5 0 0 1-.5-.5v-3a.5.5 0 0 1 1 0v3a.5.5 0 0 1-.5.53zm0-6a.5.5 0 0 1-.5-.5v-3a.5.5 0 0 1 1 0v3a.5.5 0 0 1-.5.53zm0-6a.5.5 0 0 1-.5-.5v-3a.5.5 0 0 1 1 0v3a.5.5 0 0 1-.5.53zm0-6a.5.5 0 0 1-.5-.5v-3a.5.5 0 0 1 1 0v3a.5.5 0 0 1-.5.53zm0-6a.5.5 0 0 1-.5-.5v-3a.5.5 0 0 1 1 0v3a.5.5 0 0 1-.5.53zm0-6a.5.5 0 0 1-.5-.5v-3a.5.5 0 0 1 1 0v3a.5.5 0 0 1-.5.53z"/><ellipse cx="152.38" cy="5.44" rx="5.44" ry="5.44"/><ellipse cx="152.38" cy="67.95" rx="5.44" ry="5.44"/><ellipse cx="136.05" cy="114.16" rx="5.44" ry="5.44"/><ellipse cx="89.8" cy="122.32" rx="5.44" ry="5.44"/><ellipse cx="27.21" cy="106.01" rx="5.44" ry="5.44"/><ellipse cx="84.35" cy="206.58" rx="5.44" ry="5.44"/><ellipse cx="144.22" cy="184.83" rx="5.44" ry="5.44"/><ellipse cx="168.71" cy="228.32" rx="5.44" ry="5.44"/><ellipse cx="127.89" cy="301.71" rx="5.44" ry="5.44"/><ellipse cx="78.91" cy="339.76" rx="5.44" ry="5.44"/><ellipse cx="5.44" cy="307.15" rx="5.44" ry="5.44"/><ellipse cx="48.98" cy="236.48" rx="5.44" ry="5.44"/></svg>