<svg xmlns="http://www.w3.org/2000/svg" viewBox="0 0 161.7 96.88"><path d="M90.75 90.42l1 .25.25-1.13-1.16-.11zm-12.6-12.18l1-.16zM69.19 26l1-.15zM65.27 1.24l1-.15L66.09 0 65 .28zm-4.34 1.12l-.25-1-.41.1-.21.37zM18.79 77l.87.5zM2.27 90.42l-.13-1-.67.09-.17.65zm-1 3.78L.32 94 0 95.2h1.29zm30.1 0v1h.8l.18-.78zm.84-3.78l1 .22.25-1.12-1.15-.09zM24.53 80.2l.9.44zm9.8-19v-1h-.6l-.28.53zm29.26 0l1-.17-.15-.83h-.84zm3.5 20.72l1-.13zm-9.38 8.54l-.1-1-.69.07-.18.67zm-1 3.78l-1-.25-.32 1.25h1.29zm33 0v1h.78l.19-.75zm-27-38.92v1h1.17l-.18-1.15zm-25.34 0l-.89-.45-.73 1.45h1.62zM56.87 19v-1h-.59l-.29.53zm.28 0l1-.15L58 18h-.86zm33.7 70.41a37.32 37.32 0 0 1-5.76-.89 6.43 6.43 0 0 1-3-1.56 7.09 7.09 0 0 1-1.67-3.08 46 46 0 0 1-1.25-5.82l-2 .33a46.94 46.94 0 0 0 1.31 6.09 9 9 0 0 0 2.17 3.9 8.45 8.45 0 0 0 3.91 2.07 40.24 40.24 0 0 0 6.09 1zM79.14 78.06a1970.05 1970.05 0 0 1-9-52.19l-2 .31c2.81 18.07 5.89 35.58 9 52.25zm-9-52.19L66.26 1.09l-2 .31 3.94 24.78zM65 .28L60.68 1.4l.5 1.93 4.34-1.12zm-5 1.59L17.92 76.49l1.74 1L61.8 2.86zM17.92 76.49c-3.31 5.85-5.21 8.74-7.27 10.37s-4.21 2-8.51 2.57l.26 2c4.24-.55 7-1 9.49-3s4.51-5.18 7.77-11zM1.3 90.17L.32 94l1.94.5 1-3.78zm0 5h30.1v-2H1.29zm31.08-.78l.84-3.78-1.95-.43-.85 3.82zm-.06-5a48.93 48.93 0 0 1-6.18-.75 4.37 4.37 0 0 1-2.52-1.14c-.27-.35-.41-.91-.13-2.08a26.81 26.81 0 0 1 1.95-4.82l-1.8-.87A28.94 28.94 0 0 0 21.53 85a4.28 4.28 0 0 0 .5 3.77 6.14 6.14 0 0 0 3.66 1.87 50.2 50.2 0 0 0 6.46.79zm-6.88-8.8c3.07-6.41 7.4-14.51 9.79-19l-1.77-.94c-2.38 4.48-6.73 12.62-9.82 19.08zm8.9-18.47h29.25v-2H34.33zm28.28-.83c1.4 8.12 2.52 14.84 3.5 20.72l2-.33c-1-5.88-2.1-12.6-3.5-20.73zM66.1 82a16.53 16.53 0 0 1 .24 3.52 2.71 2.71 0 0 1-.71 1.8 5.44 5.44 0 0 1-2.52 1.22 37.91 37.91 0 0 1-5.5.87l.2 2a38.38 38.38 0 0 0 5.82-.93 7.41 7.41 0 0 0 3.42-1.74 4.74 4.74 0 0 0 1.29-3 18.94 18.94 0 0 0-.26-4zm-9.36 8.15l-1 3.78 1.94.5 1-3.78zm0 5h33v-2h-33zm34-.75l1-3.78-1.94-.5-1 3.88zm-28-40.17H37.41v2h25.34zm-24.44 1.5c6-11.88 12.44-23.33 19.45-36.23L56 18.55c-7 12.86-13.45 24.36-19.48 36.28zM56.87 20h.28v-2h-.28zm-.71-.84l5.6 36.26 2-.31-5.6-36.26zM158.83 78l.9-.44-.62-1.24-1 1zm-10.36 1.26l1 .2zm9.66-45.5l1 .25.12-.46-.29-.39zm-.42-.56l.8-.6-.3-.4h-.5zm-5.32-.84l.21-1zm-34.72 9.8l.65.77zM122 89.58l-.63-.77zm18.06-19.32v-1h-.51l-.3.42zm.28 0l1 .21.26-1.21h-1.24zm-2.8 13.3l-1-.2zm23-2.24l.78.63.41-.5-.29-.57zm-32.9-41l.6.81zm19.32-1l1 .22.17-.76-.7-.35zm-4.62 20.16l.9.45v-.18zm15.82 17.78a48.23 48.23 0 0 1-6 5 28.4 28.4 0 0 1-2.36 1.49 6 6 0 0 1-.78.36c-.22.09-.28.08-.23.08v2a2.6 2.6 0 0 0 .95-.21 10.73 10.73 0 0 0 1-.47 24.91 24.91 0 0 0 2.57-1.62 49 49 0 0 0 6.27-5.27zm-9.38 7a.39.39 0 0 1 .26.14 1 1 0 0 1-.08-.41 17.77 17.77 0 0 1 .52-4.55l-2-.39a19.1 19.1 0 0 0-.55 5.14 2.76 2.76 0 0 0 .49 1.44 1.64 1.64 0 0 0 1.32.63zm.71-4.84c3.21-17.76 7.41-36.78 9.64-45.43l-1.93-.5c-2.25 8.71-6.46 27.78-9.68 45.58zm9.47-46.28l-.42-.56-1.6 1.2.42.56zm-1.22-1a26.91 26.91 0 0 1-5.11-.81l-.42 1.95a28.37 28.37 0 0 0 5.53.86zm-5.13-.82a47.08 47.08 0 0 0-8.87-1v2a44.58 44.58 0 0 1 8.5 1zm-8.87-1c-9.13 0-19.57 5-26.68 11l1.29 1.53c6.89-5.79 16.89-10.55 25.39-10.55zM117 41.36c-10.47 8.75-17.16 24.3-17.16 38.7h2c0-13.88 6.48-28.84 16.45-37.17zm-17.13 38.7c0 5.72 1.15 9.88 2.85 12.64s4 4.18 6.27 4.18v-2c-1.37 0-3.12-.88-4.57-3.23s-2.55-6.11-2.55-11.59zM109 96.88c4.16 0 9-2.72 13.66-6.52l-1.27-1.55c-4.59 3.76-9 6.07-12.39 6.07zm13.66-6.52a101.83 101.83 0 0 0 18.24-19.52l-1.63-1.16a99.58 99.58 0 0 1-17.88 19.13zm17.42-19.1h.28v-2h-.28zm-.69-1.2l-2.8 13.3 1.95.41 2.8-13.3zm-2.81 13.31c-1 5.13-1.06 8.42-.45 10.47a4.32 4.32 0 0 0 1.59 2.38 4.06 4.06 0 0 0 2.36.66v-2a2.06 2.06 0 0 1-1.22-.31 2.25 2.25 0 0 1-.81-1.3c-.47-1.55-.48-4.42.5-9.52zm3.5 13.51a11 11 0 0 0 4-1 32.34 32.34 0 0 0 5.25-2.9 53.87 53.87 0 0 0 12-11l-1.55-1.25a52.42 52.42 0 0 1-11.52 10.59 32.51 32.51 0 0 1-4.97 2.68 9.24 9.24 0 0 1-3.22.87zm21.34-16l-1.68-3.36-1.79.89 1.68 3.36zm-45.14 5c-.4 0-1.08-.3-1.71-1.67a16.23 16.23 0 0 1-1.07-6.57h-2a18.19 18.19 0 0 0 1.25 7.4c.77 1.68 2 2.84 3.53 2.84zm-2.78-8.24a59.84 59.84 0 0 1 3.93-20.9c2.55-6.64 6.24-12.33 10.79-15.67L127 39.5c-5 3.65-8.84 9.73-11.47 16.56a62 62 0 0 0-4.06 21.62zm14.72-36.54a16.35 16.35 0 0 1 9.33-2.74v-2A18.32 18.32 0 0 0 127 39.51zm9.33-2.74a22.37 22.37 0 0 1 8.94 1.86l.89-1.79a24.34 24.34 0 0 0-9.83-2.07zm8.41.75c-1 4.51-3.08 14.54-4.61 20.11l1.93.53c1.55-5.64 3.66-15.76 4.63-20.21zM141.42 59c-2.32 4.71-7.39 11.49-12.6 17.11a67.3 67.3 0 0 1-7.46 7.06 20.72 20.72 0 0 1-3.06 2 4.74 4.74 0 0 1-2 .67v2a6.68 6.68 0 0 0 3-.89 23.42 23.42 0 0 0 3.36-2.25 69.83 69.83 0 0 0 7.7-7.27c5.26-5.69 10.48-12.63 12.92-17.58z" fill="#fff"/></svg>