<svg xmlns="http://www.w3.org/2000/svg" viewBox="0 0 195.56 100"><path d="M39 1V0h-.42l-.29.29zm-.7.7l-.74-.7-.15.15-.08.2zM1.17 98.3l-.94-.36-.23.61.46.45zm.7.7l-.71.71.29.29h.42zm21.7 0v1H24l.29-.29zm.7-.7l.73.7.16-.16.08-.21zm7-19.6v-1h-.71l-.24.66zm35 0l.94-.34-.21-.66h-.7zm7 19.6l-1 .34.08.21.16.16zm.7.7l-.71.71.29.29H74zm21.7 0v1h.41l.29-.29zm.7-.7l.7.71.46-.46-.23-.61zM59.27 1.7l.93-.36-.08-.2L60 1zm-.7-.7l.7-.71L59 0h-.41zm-9.8 25.2l.94-.32-.94-2.78-1 2.78zM60 59.1v1h1.39l-.45-1.32zm-22.4 0l-1-.32-.45 1.32h1.4zM38.26.29l-.7.7L39 2.41l.7-.7zm-.93 1.05L.23 97.94l1.87.72 37.1-96.6zM.46 99l.7.7 1.41-1.42-.7-.7zm1.41 1h21.7v-2H1.87zm22.4-.29L25 99l-1.41-1.42-.7.7zm.94-1.07l7-19.6-1.89-.68-7 19.6zm6.06-18.94h35v-2h-35zm34.05-.7l7 19.6 1.89-.6-7-19.6zm7.24 20l.7.7 1.41-1.42-.7-.7zm1.44 1h21.7v-2H74zm22.4-.29l.7-.7-1.41-1.42-.7.7zm.93-1.77L60.2 1.34l-1.87.72 37.1 96.6zM60 1l-.7-.7-1.44 1.41.7.7zm-1.4-1H39v2h19.6zM47.82 26.52L59 59.42l1.89-.64-11.2-32.9zM60 58.1H37.57v2H60zm-21.49 1.32l11.2-32.9-1.89-.64-11.2 32.9zM137 1V0h-.41l-.29.29zm-.7.7l-.7-.71-.15.15-.08.2zM99.19 98.3l-.93-.36-.23.61.46.46zm.7.7l-.7.71.29.29h.41zm21.7 0v1h.41l.29-.29zm.7-.7l.71.7.16-.16.08-.21zm7-19.6v-1h-.7l-.24.66zm35 0l1-.34-.29-.66h-.71zm7 19.6l-.94.34.08.21.16.16zm.7.7l-.7.71.29.29h.42zm21.7 0v1h.42l.29-.29zm.7-.7l.71.71.46-.46-.23-.61zm-37.1-96.6l.94-.36-.08-.2L158 1zm-.7-.7l.71-.71L157 0h-.42zm-9.8 25.2l1-.32-1-2.78-.94 2.78zM158 59.1v1h1.4l-.45-1.32zm-22.4 0l-.94-.32-.45 1.32h1.39zm.7-58.81l-.7.7 1.4 1.42.7-.7zm-.93 1.05l-37.1 96.6 1.87.72 37.1-96.6zM98.49 99l.7.7 1.41-1.42-.7-.7zm1.4 1h21.7v-2h-21.7zm22.41-.29l.7-.7-1.41-1.42-.7.7zm.94-1.07l7-19.6-1.89-.68-7 19.6zm6-18.94h35v-2h-35zm34.11-.7l7 19.6 1.89-.68-7-19.6zm7.24 20l.7.7 1.41-1.42-.7-.7zm1.4 1h21.7v-2H172zm22.41-.29l.7-.7-1.41-1.42-.7.7zm.93-1.77l-37.1-96.6-1.87.72 37.1 96.6zM158 1l-.7-.7-1.41 1.42.7.7zm-1.41-1H137v2h19.6zm-10.74 26.52l11.2 32.9 1.89-.64-11.2-32.9zM158 58.1h-22.4v2H158zm-21.45 1.32l11.2-32.9-1.89-.64-11.2 32.9z" fill="#fff"/></svg>