<svg xmlns="http://www.w3.org/2000/svg" viewBox="0 0 466.93 228.63"><defs><style>.a,.b{fill:#fff}.a{opacity:.8;isolation:isolate}</style></defs><path class="a" d="M200.72 123.29A61.65 61.65 0 1 0 139 61.64a61.68 61.68 0 0 0 61.72 61.65z"/><path class="a" d="M266.55 123.29a61.65 61.65 0 1 0-61.72-61.65 61.68 61.68 0 0 0 61.72 61.65z"/><path class="b" d="M23 169.86l-.41.41L0 227l.41.41h10.12l.41-.41 4.86-12.49h23.45L44 227l.42.41h10.14L55 227l-22.5-56.73-.41-.41zm4.52 12.9L35.8 205H19.26zM87.43 200.11v-9.29a23.57 23.57 0 0 0-12.75-3.29c-9 0-14.73 5.59-14.73 12.17 0 14.54 21.39 9.86 21.39 16.27 0 2.38-1.48 3.62-6.17 3.62a28.17 28.17 0 0 1-14.4-4.52l-.41.41v9.45c3.7 2.46 9.87 3.7 14.81 3.7 9.87 0 16-5.67 16-12.66 0-15.37-21.39-10.6-21.39-16.27 0-1.89 1.89-3.13 4.86-3.13a21.6 21.6 0 0 1 12.34 4zM101.93 178.9l-.41.41v9.45h-6.59l-.41.42V198l.41.41h6.59v13.15c0 10.69 5.35 17.1 15.8 17.1a21.49 21.49 0 0 0 9.05-2.47V217l-.41-.42a14.64 14.64 0 0 1-8.64 2.88c-3.3 0-6.17-2.13-6.17-8.71v-12.37H126l.41-.41v-8.79l-.41-.42h-14.85v-9.36l-.42-.5zM134.33 188.76l-.41.42V227l.41.41h8.72l.41-.41v-26.15a13.28 13.28 0 0 1 9.8-4.11 12.7 12.7 0 0 1 7.9 2.46l.41-.41-.41-9.61a16.09 16.09 0 0 0-7.41-1.65 21.36 21.36 0 0 0-10.29 2.88v-1.23l-.41-.42zM185.62 187.53a20.55 20.55 0 1 0 20.57 20.55 20.36 20.36 0 0 0-20.57-20.55zm0 9.21c6.26 0 10.7 4.76 10.7 11.34s-4.44 11.34-10.7 11.34-10.78-4.77-10.78-11.34 4.44-11.34 10.78-11.34zM216.3 169.86l-.41.41V227l.41.41h8.7l.41-.41v-25.41h19.83l.41-.41v-8.8l-.41-.41h-19.81v-12.49h26.74l.42-.41v-8.8l-.42-.41zM272.81 187.53a20.55 20.55 0 1 0 20.57 20.55 20.36 20.36 0 0 0-20.57-20.55zm0 9.21c6.26 0 10.7 4.76 10.7 11.34s-4.44 11.34-10.7 11.34S262 214.65 262 208.08s4.48-11.34 10.81-11.34zM303.49 188.76l-.41.42V227l.41.41h8.72l.41-.41v-26.15a13.26 13.26 0 0 1 9.79-4.11 12.66 12.66 0 0 1 7.9 2.46l.42-.41-.42-9.61a16 16 0 0 0-7.4-1.65 21.32 21.32 0 0 0-10.29 2.88v-1.23l-.41-.42zM333.26 169.86l-.41.41 20.74 28.85V227l.41.41h8.72l.41-.41v-27.88l20.74-28.85-.41-.41h-10.29l-.66.41-14.15 19.32-14.15-19.32-.66-.41zM399.14 187.53a20.55 20.55 0 1 0 20.57 20.55 20.36 20.36 0 0 0-20.57-20.55zm0 9.21c6.25 0 10.7 4.76 10.7 11.34s-4.45 11.34-10.7 11.34-10.78-4.77-10.78-11.34 4.44-11.34 10.78-11.34zM429 188.76l-.41.42v21.36c0 11.1 6.17 18.09 18.51 18.09a21.43 21.43 0 0 0 10.29-2.88V227l.41.41h8.73l.41-.41v-37.8l-.41-.42h-8.73l-.41.42v26.13a13.26 13.26 0 0 1-9.79 4.11c-6.17 0-9.46-3.37-9.46-9.94v-20.3l-.42-.42z"/></svg>